<?xml version="1.0" encoding="UTF-8" standalone="no"?>
<!-- Created with Inkscape (http://www.inkscape.org/) -->

<svg
   xmlns:dc="http://purl.org/dc/elements/1.1/"
   xmlns:cc="http://creativecommons.org/ns#"
   xmlns:rdf="http://www.w3.org/1999/02/22-rdf-syntax-ns#"
   xmlns:svg="http://www.w3.org/2000/svg"
   xmlns="http://www.w3.org/2000/svg"
   xmlns:sodipodi="http://sodipodi.sourceforge.net/DTD/sodipodi-0.dtd"
   xmlns:inkscape="http://www.inkscape.org/namespaces/inkscape"
   width="67.557648mm"
   height="27.073965mm"
   viewBox="0 0 67.557648 27.073965"
   version="1.1"
   id="svg3249"
   inkscape:version="0.92.3 (2405546, 2018-03-11)"
   sodipodi:docname="csafe-logo.svg">
  <defs
     id="defs3243">
    <clipPath
       clipPathUnits="userSpaceOnUse"
       id="clipPath458">
      <path
         d="m 198,630 h 191.519 v 88.56 H 198 Z"
         id="path456"
         inkscape:connector-curvature="0" />
    </clipPath>
    <clipPath
       clipPathUnits="userSpaceOnUse"
       id="clipPath442">
      <path
         d="m 198.017,635.908 h 191.502 v 76.747 H 198.017 Z"
         id="path440"
         inkscape:connector-curvature="0" />
    </clipPath>
    <clipPath
       clipPathUnits="userSpaceOnUse"
       id="clipPath426">
      <path
         d="m 198,630 h 191.519 v 88.56 H 198 Z"
         id="path424"
         inkscape:connector-curvature="0" />
    </clipPath>
    <clipPath
       clipPathUnits="userSpaceOnUse"
       id="clipPath398">
      <path
         d="m 198.017,635.908 h 191.502 v 76.747 H 198.017 Z"
         id="path396"
         inkscape:connector-curvature="0" />
    </clipPath>
    <clipPath
       clipPathUnits="userSpaceOnUse"
       id="clipPath342">
      <path
         d="m 198,630 h 191.519 v 88.56 H 198 Z"
         id="path340"
         inkscape:connector-curvature="0" />
    </clipPath>
    <clipPath
       clipPathUnits="userSpaceOnUse"
       id="clipPath330">
      <path
         d="m 198.017,635.908 h 191.502 v 76.747 H 198.017 Z"
         id="path328"
         inkscape:connector-curvature="0" />
    </clipPath>
    <clipPath
       clipPathUnits="userSpaceOnUse"
       id="clipPath130">
      <path
         d="m 198,630 h 191.519 v 88.56 H 198 Z"
         id="path128"
         inkscape:connector-curvature="0" />
    </clipPath>
  </defs>
  <sodipodi:namedview
     id="base"
     pagecolor="#ffffff"
     bordercolor="#666666"
     borderopacity="1.0"
     inkscape:pageopacity="0.0"
     inkscape:pageshadow="2"
     inkscape:zoom="0.35"
     inkscape:cx="-75.189145"
     inkscape:cy="-408.8366"
     inkscape:document-units="mm"
     inkscape:current-layer="layer1"
     showgrid="false"
     fit-margin-top="0"
     fit-margin-left="0"
     fit-margin-right="0"
     fit-margin-bottom="0"
     inkscape:window-width="1920"
     inkscape:window-height="1051"
     inkscape:window-x="1920"
     inkscape:window-y="0"
     inkscape:window-maximized="1" />
  <metadata
     id="metadata3246">
    <rdf:RDF>
      <cc:Work
         rdf:about="">
        <dc:format>image/svg+xml</dc:format>
        <dc:type
           rdf:resource="http://purl.org/dc/dcmitype/StillImage" />
        <dc:title></dc:title>
      </cc:Work>
    </rdf:RDF>
  </metadata>
  <g
     inkscape:label="Layer 1"
     inkscape:groupmode="layer"
     id="layer1"
     transform="translate(-6.2866517,-13.588019)">
    <g
       transform="matrix(0.35277777,0,0,-0.35277777,-63.569344,264.99619)"
       id="g124">
      <g
         id="g126"
         clip-path="url(#clipPath130)">
        <g
           id="g132"
           transform="translate(271.3564,662.3862)">
          <path
             d="m 0,0 c -0.034,0.235 -0.144,1.174 -1.318,1.174 -1.471,0 -1.733,-1.672 -1.733,-2.799 0,-1.277 0.33,-2.657 1.724,-2.657 0.372,0 0.727,0.103 0.989,0.403 0.22,0.263 0.27,0.555 0.296,0.714 h 0.93 c -0.127,-1.333 -1.235,-1.887 -2.282,-1.887 -2.147,0 -2.561,2.103 -2.561,3.418 0,1.427 0.498,3.559 2.67,3.559 0.863,0 2.079,-0.385 2.189,-1.925 z"
             style="fill:#808285;fill-opacity:1;fill-rule:nonzero;stroke:none"
             id="path134"
             inkscape:connector-curvature="0" />
        </g>
        <g
           id="g136"
           transform="translate(275.6914,660.2544)">
          <path
             d="M 0,0 C 0.009,0.451 -0.068,1.39 -1.048,1.39 -1.564,1.39 -2.189,1.042 -2.206,0 Z m -2.24,-0.62 c -0.016,-0.977 0.347,-1.699 1.217,-1.699 0.516,0 0.93,0.3 0.998,0.976 H 0.769 C 0.744,-1.578 0.71,-1.963 0.406,-2.329 0.22,-2.563 -0.203,-2.958 -1.056,-2.958 c -1.336,0 -1.97,0.92 -1.97,2.413 0,0.93 0.169,1.7 0.837,2.217 0.406,0.319 0.913,0.347 1.158,0.347 1.901,0 1.859,-1.869 1.842,-2.639 z"
             style="fill:#808285;fill-opacity:1;fill-rule:nonzero;stroke:none"
             id="path138"
             inkscape:connector-curvature="0" />
        </g>
        <g
           id="g140"
           transform="translate(277.1792,661.6069)">
          <path
             d="m 0,0 -0.009,0.545 h 0.795 l 0.008,-0.761 c 0.093,0.197 0.397,0.855 1.361,0.855 0.38,0 1.538,-0.16 1.538,-1.606 V -4.169 H 2.882 v 2.995 c 0,0.31 -0.034,0.592 -0.228,0.808 -0.203,0.216 -0.482,0.319 -0.753,0.319 -0.574,0 -1.107,-0.46 -1.107,-1.409 V -4.169 H 0 Z"
             style="fill:#808285;fill-opacity:1;fill-rule:nonzero;stroke:none"
             id="path142"
             inkscape:connector-curvature="0" />
        </g>
        <g
           id="g144"
           transform="translate(281.3198,662.1699)">
          <path
             d="M 0,0 H 0.752 V 0.986 L 1.538,1.268 V 0 H 2.485 V -0.648 H 1.538 v -2.827 c 0,-0.234 0,-0.629 0.566,-0.629 0.161,0 0.313,0.028 0.381,0.047 V -4.742 C 2.341,-4.77 2.113,-4.799 1.825,-4.799 c -0.726,0 -1.073,0.235 -1.073,1.005 v 3.146 H 0 Z"
             style="fill:#808285;fill-opacity:1;fill-rule:nonzero;stroke:none"
             id="path146"
             inkscape:connector-curvature="0" />
        </g>
        <g
           id="g148"
           transform="translate(287.1597,660.2544)">
          <path
             d="M 0,0 C 0.009,0.451 -0.068,1.39 -1.048,1.39 -1.563,1.39 -2.189,1.042 -2.206,0 Z m -2.24,-0.62 c -0.016,-0.977 0.347,-1.699 1.217,-1.699 0.516,0 0.93,0.3 0.998,0.976 H 0.769 C 0.744,-1.578 0.71,-1.963 0.406,-2.329 0.22,-2.563 -0.203,-2.958 -1.056,-2.958 c -1.336,0 -1.969,0.92 -1.969,2.413 0,0.93 0.169,1.7 0.836,2.217 0.406,0.319 0.913,0.347 1.158,0.347 1.902,0 1.859,-1.869 1.842,-2.639 z"
             style="fill:#808285;fill-opacity:1;fill-rule:nonzero;stroke:none"
             id="path150"
             inkscape:connector-curvature="0" />
        </g>
        <g
           id="g152"
           transform="translate(288.833,661.1934)">
          <path
             d="M 0,0 C 0,0.319 -0.017,0.648 -0.042,0.958 H 0.761 L 0.778,0.047 C 0.93,0.705 1.437,0.92 1.792,0.977 2.028,1.014 2.206,1.005 2.341,0.996 V 0.131 C 2.299,0.15 2.248,0.16 2.189,0.169 2.13,0.178 2.053,0.178 1.961,0.178 1.023,0.178 0.803,-0.441 0.803,-1.249 V -3.756 H 0 Z"
             style="fill:#808285;fill-opacity:1;fill-rule:nonzero;stroke:none"
             id="path154"
             inkscape:connector-curvature="0" />
        </g>
        <g
           id="g156"
           transform="translate(296.1938,663.5601)">
          <path
             d="m 0,0 c -0.135,0.009 -0.304,0.019 -0.465,0.019 -0.642,0 -0.642,-0.357 -0.642,-0.686 v -0.742 h 0.989 v -0.638 h -0.989 v -4.076 h -0.786 v 4.076 H -2.73 v 0.638 h 0.837 v 0.536 c 0,0.648 0.034,0.882 0.178,1.126 0.177,0.301 0.515,0.517 1.064,0.517 0.229,0 0.482,-0.038 0.651,-0.066 z"
             style="fill:#808285;fill-opacity:1;fill-rule:nonzero;stroke:none"
             id="path158"
             inkscape:connector-curvature="0" />
        </g>
        <g
           id="g160"
           transform="translate(298.332,657.9351)">
          <path
             d="m 0,0 c 0.6,0 1.284,0.479 1.284,1.897 0,1.174 -0.49,1.794 -1.233,1.794 -0.507,0 -1.327,-0.357 -1.327,-1.832 C -1.276,0.892 -0.904,0 0,0 m 0.051,4.338 c 1.698,0 2.079,-1.483 2.079,-2.469 0,-1.381 -0.702,-2.527 -2.147,-2.527 -1.403,0 -2.088,1.081 -2.088,2.461 0,1.164 0.491,2.535 2.156,2.535"
             style="fill:#808285;fill-opacity:1;fill-rule:nonzero;stroke:none"
             id="path162"
             inkscape:connector-curvature="0" />
        </g>
        <g
           id="g164"
           transform="translate(301.2305,661.1934)">
          <path
             d="M 0,0 C 0,0.319 -0.017,0.648 -0.042,0.958 H 0.761 L 0.778,0.047 C 0.93,0.705 1.437,0.92 1.792,0.977 2.028,1.014 2.206,1.005 2.341,0.996 V 0.131 C 2.299,0.15 2.248,0.16 2.189,0.169 2.13,0.178 2.054,0.178 1.961,0.178 1.023,0.178 0.803,-0.441 0.803,-1.249 V -3.756 H 0 Z"
             style="fill:#808285;fill-opacity:1;fill-rule:nonzero;stroke:none"
             id="path166"
             inkscape:connector-curvature="0" />
        </g>
        <g
           id="g168"
           transform="translate(307.0791,659.4189)">
          <path
             d="m 0,0 c 0.017,-0.47 0.067,-1.343 1.471,-1.343 1.266,0 1.427,0.873 1.427,1.212 0,0.76 -0.548,0.91 -1.402,1.145 -0.931,0.254 -1.345,0.366 -1.657,0.601 -0.498,0.376 -0.633,0.883 -0.633,1.334 0,1.38 1.174,1.981 2.323,1.981 0.406,0 1.226,-0.075 1.716,-0.667 C 3.584,3.85 3.6,3.39 3.616,3.108 H 2.737 C 2.695,3.953 2.054,4.141 1.454,4.141 0.608,4.141 0.101,3.719 0.101,3.043 0.101,2.441 0.457,2.235 1.199,2.038 2.653,1.625 2.813,1.587 3.169,1.324 3.735,0.911 3.777,0.253 3.777,-0.028 c 0,-1.202 -0.844,-2.113 -2.408,-2.113 -0.466,0 -1.411,0.084 -1.893,0.77 -0.347,0.498 -0.355,1.042 -0.355,1.371 z"
             style="fill:#808285;fill-opacity:1;fill-rule:nonzero;stroke:none"
             id="path170"
             inkscape:connector-curvature="0" />
        </g>
        <g
           id="g172"
           transform="translate(311.1104,662.1699)">
          <path
             d="M 0,0 H 0.752 V 0.986 L 1.538,1.268 V 0 H 2.484 V -0.648 H 1.538 v -2.827 c 0,-0.234 0,-0.629 0.566,-0.629 0.161,0 0.313,0.028 0.38,0.047 V -4.742 C 2.341,-4.77 2.112,-4.799 1.825,-4.799 c -0.726,0 -1.073,0.235 -1.073,1.005 v 3.146 H 0 Z"
             style="fill:#808285;fill-opacity:1;fill-rule:nonzero;stroke:none"
             id="path174"
             inkscape:connector-curvature="0" />
        </g>
        <g
           id="g176"
           transform="translate(316.2656,659.7568)">
          <path
             d="m 0,0 c -0.321,0 -1.53,0 -1.53,-0.958 0,-0.3 0.169,-0.817 0.879,-0.817 0.406,0 0.71,0.179 0.905,0.507 0.177,0.32 0.184,0.583 0.203,1.24 C 0.312,-0.009 0.193,0 0,0 m 0.549,-2.319 c -0.06,0.234 -0.076,0.46 -0.076,0.704 -0.38,-0.78 -0.955,-0.855 -1.311,-0.855 -0.972,0 -1.494,0.611 -1.494,1.39 0,0.375 0.117,0.977 0.742,1.38 0.457,0.283 1.133,0.31 1.472,0.31 0.202,0 0.329,-0.009 0.575,-0.027 0,0.581 0,0.835 -0.153,1.042 -0.16,0.234 -0.507,0.31 -0.736,0.31 -0.802,0 -0.844,-0.611 -0.852,-0.799 h -0.795 c 0.024,0.245 0.051,0.573 0.296,0.892 0.32,0.395 0.921,0.508 1.369,0.508 C 0.202,2.536 0.861,2.32 1.09,1.841 1.225,1.559 1.233,1.334 1.233,1.118 L 1.199,-1.136 c 0,-0.075 0.01,-0.705 0.069,-1.183 z"
             style="fill:#808285;fill-opacity:1;fill-rule:nonzero;stroke:none"
             id="path178"
             inkscape:connector-curvature="0" />
        </g>
        <g
           id="g180"
           transform="translate(317.9297,662.1699)">
          <path
             d="M 0,0 H 0.752 V 0.986 L 1.538,1.268 V 0 H 2.485 V -0.648 H 1.538 v -2.827 c 0,-0.234 0,-0.629 0.566,-0.629 0.162,0 0.313,0.028 0.381,0.047 V -4.742 C 2.341,-4.77 2.113,-4.799 1.826,-4.799 c -0.726,0 -1.074,0.235 -1.074,1.005 v 3.146 H 0 Z"
             style="fill:#808285;fill-opacity:1;fill-rule:nonzero;stroke:none"
             id="path182"
             inkscape:connector-curvature="0" />
        </g>
        <path
           d="m 321.225,662.151 h 0.795 v -4.714 h -0.795 z m -0.084,2.048 h 0.955 v -0.967 h -0.955 z"
           style="fill:#808285;fill-opacity:1;fill-rule:nonzero;stroke:none"
           id="path184"
           inkscape:connector-curvature="0" />
        <g
           id="g186"
           transform="translate(323.6768,658.8364)">
          <path
             d="m 0,0 c -0.008,-0.357 0.161,-0.855 0.93,-0.855 0.329,0 0.574,0.066 0.743,0.301 0.085,0.122 0.136,0.281 0.136,0.441 0,0.46 -0.296,0.545 -0.93,0.705 -0.887,0.225 -1.631,0.422 -1.631,1.408 0,0.864 0.676,1.427 1.656,1.427 0.533,0 1.277,-0.169 1.53,-0.732 0.11,-0.263 0.11,-0.488 0.11,-0.685 H 1.732 C 1.758,2.723 1.2,2.78 0.913,2.78 0.794,2.78 0.051,2.78 0.051,2.104 0.051,1.671 0.431,1.568 0.65,1.503 1.825,1.193 2.079,1.117 2.333,0.855 2.568,0.61 2.654,0.281 2.654,-0.019 c 0,-0.526 -0.262,-0.976 -0.575,-1.192 -0.372,-0.254 -0.82,-0.32 -1.26,-0.32 -0.861,0 -1.664,0.395 -1.656,1.531 z"
             style="fill:#808285;fill-opacity:1;fill-rule:nonzero;stroke:none"
             id="path188"
             inkscape:connector-curvature="0" />
        </g>
        <g
           id="g190"
           transform="translate(326.6182,662.1699)">
          <path
             d="M 0,0 H 0.752 V 0.986 L 1.538,1.268 V 0 H 2.484 V -0.648 H 1.538 v -2.827 c 0,-0.234 0,-0.629 0.566,-0.629 0.161,0 0.313,0.028 0.38,0.047 V -4.742 C 2.341,-4.77 2.112,-4.799 1.825,-4.799 c -0.726,0 -1.073,0.235 -1.073,1.005 v 3.146 H 0 Z"
             style="fill:#808285;fill-opacity:1;fill-rule:nonzero;stroke:none"
             id="path192"
             inkscape:connector-curvature="0" />
        </g>
        <path
           d="m 329.913,662.151 h 0.795 v -4.714 h -0.795 z m -0.084,2.048 h 0.955 v -0.967 h -0.955 z"
           style="fill:#808285;fill-opacity:1;fill-rule:nonzero;stroke:none"
           id="path194"
           inkscape:connector-curvature="0" />
        <g
           id="g196"
           transform="translate(334.3252,660.6392)">
          <path
             d="m 0,0 c -0.017,0.216 -0.076,0.986 -0.845,0.986 -1.099,0 -1.099,-1.418 -1.099,-1.774 0,-0.968 0.211,-1.869 1.056,-1.869 0.676,0 0.905,0.563 0.922,1.023 h 0.803 c -0.051,-0.92 -0.668,-1.69 -1.716,-1.69 -0.287,0 -0.946,0.066 -1.395,0.61 -0.253,0.329 -0.507,0.827 -0.507,1.803 0,1.963 1.082,2.545 1.927,2.545 0.279,0 0.914,-0.065 1.302,-0.582 C 0.761,0.648 0.786,0.263 0.803,0 Z"
             style="fill:#808285;fill-opacity:1;fill-rule:nonzero;stroke:none"
             id="path198"
             inkscape:connector-curvature="0" />
        </g>
        <g
           id="g200"
           transform="translate(336.4121,658.8364)">
          <path
             d="m 0,0 c -0.009,-0.357 0.16,-0.855 0.931,-0.855 0.329,0 0.573,0.066 0.743,0.301 0.085,0.122 0.136,0.281 0.136,0.441 0,0.46 -0.296,0.545 -0.931,0.705 -0.888,0.225 -1.631,0.422 -1.631,1.408 0,0.864 0.677,1.427 1.656,1.427 0.533,0 1.278,-0.169 1.531,-0.732 C 2.544,2.432 2.544,2.207 2.544,2.01 H 1.733 C 1.759,2.723 1.2,2.78 0.913,2.78 c -0.119,0 -0.862,0 -0.862,-0.676 0,-0.433 0.381,-0.536 0.6,-0.601 C 1.825,1.193 2.079,1.117 2.332,0.855 2.569,0.61 2.654,0.281 2.654,-0.019 2.654,-0.545 2.393,-0.995 2.079,-1.211 1.707,-1.465 1.26,-1.531 0.82,-1.531 c -0.862,0 -1.665,0.395 -1.657,1.531 z"
             style="fill:#808285;fill-opacity:1;fill-rule:nonzero;stroke:none"
             id="path202"
             inkscape:connector-curvature="0" />
        </g>
        <g
           id="g204"
           transform="translate(344.2129,659.7568)">
          <path
             d="m 0,0 c -0.321,0 -1.53,0 -1.53,-0.958 0,-0.3 0.169,-0.817 0.88,-0.817 0.405,0 0.71,0.179 0.904,0.507 0.177,0.32 0.185,0.583 0.203,1.24 C 0.313,-0.009 0.194,0 0,0 m 0.549,-2.319 c -0.059,0.234 -0.076,0.46 -0.076,0.704 -0.38,-0.78 -0.954,-0.855 -1.31,-0.855 -0.972,0 -1.496,0.611 -1.496,1.39 0,0.375 0.119,0.977 0.744,1.38 0.457,0.283 1.133,0.31 1.471,0.31 0.202,0 0.329,-0.009 0.575,-0.027 0,0.581 0,0.835 -0.153,1.042 -0.159,0.234 -0.507,0.31 -0.735,0.31 -0.803,0 -0.844,-0.611 -0.853,-0.799 h -0.795 c 0.025,0.245 0.051,0.573 0.296,0.892 0.321,0.395 0.921,0.508 1.369,0.508 C 0.203,2.536 0.862,2.32 1.09,1.841 1.225,1.559 1.234,1.334 1.234,1.118 L 1.2,-1.136 c 0,-0.075 0.009,-0.705 0.069,-1.183 z"
             style="fill:#808285;fill-opacity:1;fill-rule:nonzero;stroke:none"
             id="path206"
             inkscape:connector-curvature="0" />
        </g>
        <g
           id="g208"
           transform="translate(346.2158,661.6069)">
          <path
             d="m 0,0 -0.008,0.545 h 0.794 l 0.008,-0.761 c 0.094,0.197 0.398,0.855 1.361,0.855 0.381,0 1.538,-0.16 1.538,-1.606 V -4.169 H 2.882 v 2.995 c 0,0.31 -0.033,0.592 -0.228,0.808 -0.203,0.216 -0.482,0.319 -0.752,0.319 -0.575,0 -1.108,-0.46 -1.108,-1.409 V -4.169 H 0 Z"
             style="fill:#808285;fill-opacity:1;fill-rule:nonzero;stroke:none"
             id="path210"
             inkscape:connector-curvature="0" />
        </g>
        <g
           id="g212"
           transform="translate(353.4844,661.1748)">
          <path
             d="m 0,0 c -0.17,0.244 -0.482,0.479 -0.931,0.479 -1.166,0 -1.166,-1.568 -1.166,-1.888 0,-0.835 0.195,-1.803 1.166,-1.803 1.251,0 1.251,1.531 1.251,1.897 C 0.32,-0.629 0.177,-0.254 0,0 M 0.296,3.033 H 1.09 v -6.019 c 0,-0.104 0.016,-0.508 0.033,-0.752 H 0.328 l -0.016,0.752 c -0.068,-0.132 -0.161,-0.329 -0.38,-0.498 -0.346,-0.263 -0.76,-0.348 -1.047,-0.348 -0.568,0 -1.826,0.329 -1.826,2.395 0,1.794 0.92,2.573 1.918,2.573 0.913,0 1.216,-0.601 1.319,-0.798 z"
             style="fill:#808285;fill-opacity:1;fill-rule:nonzero;stroke:none"
             id="path214"
             inkscape:connector-curvature="0" />
        </g>
        <g
           id="g216"
           transform="translate(268.8125,650.9766)">
          <path
             d="M 0,0 H 2.307 L 1.183,3.324 Z m 0.769,4.254 h 0.905 l 2.467,-6.78 H 3.22 L 2.561,-0.761 H -0.27 L -0.93,-2.526 H -1.8 Z"
             style="fill:#808285;fill-opacity:1;fill-rule:nonzero;stroke:none"
             id="path218"
             inkscape:connector-curvature="0" />
        </g>
        <g
           id="g220"
           transform="translate(275.3618,648.9204)">
          <path
             d="M 0,0 C 0.203,0 0.625,0.047 0.896,0.46 1.2,0.92 1.242,1.596 1.242,1.934 1.242,2.78 1.014,3.662 0.076,3.662 -1.192,3.662 -1.192,2.169 -1.192,1.746 -1.192,1.174 -1.115,0 0,0 m -1.952,3.474 c 0,0.207 -0.009,0.32 -0.026,0.771 h 0.803 l 0.017,-0.78 c 0.397,0.742 1.099,0.855 1.445,0.855 0.913,0 1.784,-0.695 1.784,-2.442 0,-1.756 -0.921,-2.526 -1.936,-2.526 -0.617,0 -1.073,0.291 -1.301,0.704 v -2.338 h -0.786 z"
             style="fill:#808285;fill-opacity:1;fill-rule:nonzero;stroke:none"
             id="path222"
             inkscape:connector-curvature="0" />
        </g>
        <g
           id="g224"
           transform="translate(280.0098,648.9204)">
          <path
             d="M 0,0 C 0.203,0 0.626,0.047 0.896,0.46 1.2,0.92 1.243,1.596 1.243,1.934 1.243,2.78 1.014,3.662 0.076,3.662 -1.191,3.662 -1.191,2.169 -1.191,1.746 -1.191,1.174 -1.115,0 0,0 m -1.952,3.474 c 0,0.207 -0.009,0.32 -0.025,0.771 h 0.802 l 0.017,-0.78 c 0.398,0.742 1.099,0.855 1.446,0.855 0.912,0 1.783,-0.695 1.783,-2.442 0,-1.756 -0.921,-2.526 -1.936,-2.526 -0.617,0 -1.073,0.291 -1.301,0.704 v -2.338 h -0.786 z"
             style="fill:#808285;fill-opacity:1;fill-rule:nonzero;stroke:none"
             id="path226"
             inkscape:connector-curvature="0" />
        </g>
        <path
           d="m 282.748,655.221 h 0.794 v -6.771 h -0.794 z"
           style="fill:#808285;fill-opacity:1;fill-rule:nonzero;stroke:none"
           id="path228"
           inkscape:connector-curvature="0" />
        <path
           d="m 284.742,653.165 h 0.794 v -4.714 h -0.794 z m -0.084,2.047 h 0.955 v -0.967 h -0.955 z"
           style="fill:#808285;fill-opacity:1;fill-rule:nonzero;stroke:none"
           id="path230"
           inkscape:connector-curvature="0" />
        <g
           id="g232"
           transform="translate(289.1543,651.6528)">
          <path
             d="m 0,0 c -0.017,0.216 -0.076,0.986 -0.845,0.986 -1.099,0 -1.099,-1.418 -1.099,-1.775 0,-0.967 0.211,-1.869 1.056,-1.869 0.677,0 0.905,0.564 0.922,1.024 h 0.803 c -0.051,-0.92 -0.668,-1.691 -1.716,-1.691 -0.287,0 -0.947,0.067 -1.395,0.611 -0.253,0.328 -0.507,0.826 -0.507,1.803 0,1.963 1.082,2.545 1.927,2.545 0.279,0 0.913,-0.066 1.302,-0.582 C 0.761,0.648 0.786,0.263 0.803,0 Z"
             style="fill:#808285;fill-opacity:1;fill-rule:nonzero;stroke:none"
             id="path234"
             inkscape:connector-curvature="0" />
        </g>
        <g
           id="g236"
           transform="translate(292.8218,650.77)">
          <path
             d="m 0,0 c -0.321,0 -1.53,0 -1.53,-0.958 0,-0.301 0.169,-0.817 0.879,-0.817 0.406,0 0.71,0.178 0.905,0.507 0.177,0.319 0.185,0.582 0.203,1.24 C 0.313,-0.01 0.194,0 0,0 m 0.549,-2.32 c -0.059,0.235 -0.076,0.46 -0.076,0.705 -0.38,-0.78 -0.954,-0.855 -1.31,-0.855 -0.972,0 -1.495,0.61 -1.495,1.39 0,0.375 0.118,0.976 0.743,1.38 0.457,0.282 1.133,0.31 1.471,0.31 0.203,0 0.329,-0.009 0.575,-0.028 0,0.582 0,0.836 -0.153,1.042 -0.16,0.235 -0.507,0.31 -0.735,0.31 -0.803,0 -0.845,-0.61 -0.853,-0.798 h -0.795 c 0.025,0.244 0.051,0.573 0.296,0.893 0.321,0.394 0.921,0.506 1.369,0.506 C 0.203,2.535 0.862,2.319 1.09,1.84 1.226,1.559 1.234,1.333 1.234,1.117 L 1.2,-1.136 c 0,-0.076 0.009,-0.705 0.068,-1.184 z"
             style="fill:#808285;fill-opacity:1;fill-rule:nonzero;stroke:none"
             id="path238"
             inkscape:connector-curvature="0" />
        </g>
        <g
           id="g240"
           transform="translate(294.6553,653.1831)">
          <path
             d="M 0,0 H 0.752 V 0.986 L 1.538,1.268 V 0 H 2.485 V -0.648 H 1.538 v -2.827 c 0,-0.234 0,-0.629 0.566,-0.629 0.161,0 0.313,0.028 0.381,0.047 V -4.742 C 2.341,-4.77 2.113,-4.799 1.825,-4.799 c -0.726,0 -1.073,0.235 -1.073,1.005 v 3.146 H 0 Z"
             style="fill:#808285;fill-opacity:1;fill-rule:nonzero;stroke:none"
             id="path242"
             inkscape:connector-curvature="0" />
        </g>
        <path
           d="m 297.782,653.165 h 0.794 v -4.714 h -0.794 z m -0.084,2.047 h 0.955 v -0.967 h -0.955 z"
           style="fill:#808285;fill-opacity:1;fill-rule:nonzero;stroke:none"
           id="path244"
           inkscape:connector-curvature="0" />
        <g
           id="g246"
           transform="translate(301.3994,648.9482)">
          <path
             d="m 0,0 c 0.6,0 1.284,0.479 1.284,1.897 0,1.174 -0.49,1.794 -1.233,1.794 -0.507,0 -1.327,-0.357 -1.327,-1.832 C -1.276,0.892 -0.904,0 0,0 m 0.051,4.339 c 1.698,0 2.079,-1.484 2.079,-2.47 0,-1.381 -0.702,-2.527 -2.147,-2.527 -1.403,0 -2.088,1.081 -2.088,2.461 0,1.165 0.491,2.536 2.156,2.536"
             style="fill:#808285;fill-opacity:1;fill-rule:nonzero;stroke:none"
             id="path248"
             inkscape:connector-curvature="0" />
        </g>
        <g
           id="g250"
           transform="translate(304.2812,652.6201)">
          <path
             d="m 0,0 -0.008,0.545 h 0.794 l 0.008,-0.761 c 0.094,0.197 0.398,0.855 1.361,0.855 0.381,0 1.537,-0.16 1.537,-1.606 v -3.202 h -0.81 v 2.995 c 0,0.31 -0.034,0.592 -0.228,0.808 -0.203,0.216 -0.482,0.319 -0.753,0.319 -0.574,0 -1.107,-0.46 -1.107,-1.409 V -4.169 H 0 Z"
             style="fill:#808285;fill-opacity:1;fill-rule:nonzero;stroke:none"
             id="path252"
             inkscape:connector-curvature="0" />
        </g>
        <g
           id="g254"
           transform="translate(309.5293,649.8496)">
          <path
             d="m 0,0 c -0.009,-0.357 0.16,-0.855 0.93,-0.855 0.329,0 0.574,0.066 0.743,0.301 0.085,0.122 0.136,0.281 0.136,0.441 0,0.461 -0.296,0.545 -0.93,0.705 -0.888,0.225 -1.631,0.422 -1.631,1.408 0,0.864 0.676,1.427 1.656,1.427 0.533,0 1.276,-0.168 1.53,-0.732 0.11,-0.263 0.11,-0.488 0.11,-0.685 H 1.732 C 1.758,2.723 1.2,2.78 0.913,2.78 0.794,2.78 0.05,2.78 0.05,2.104 0.05,1.672 0.431,1.568 0.651,1.503 1.825,1.193 2.079,1.117 2.332,0.855 2.569,0.61 2.654,0.281 2.654,-0.019 c 0,-0.526 -0.261,-0.976 -0.575,-1.192 -0.372,-0.254 -0.82,-0.32 -1.259,-0.32 -0.862,0 -1.665,0.395 -1.657,1.531 z"
             style="fill:#808285;fill-opacity:1;fill-rule:nonzero;stroke:none"
             id="path256"
             inkscape:connector-curvature="0" />
        </g>
        <path
           d="m 315.133,653.165 h 0.794 v -4.714 h -0.794 z m -0.085,2.047 h 0.955 v -0.967 h -0.955 z"
           style="fill:#808285;fill-opacity:1;fill-rule:nonzero;stroke:none"
           id="path258"
           inkscape:connector-curvature="0" />
        <g
           id="g260"
           transform="translate(317.1523,652.6201)">
          <path
             d="m 0,0 -0.009,0.545 h 0.795 l 0.008,-0.761 c 0.094,0.197 0.398,0.855 1.361,0.855 0.38,0 1.538,-0.16 1.538,-1.606 v -3.202 h -0.81 v 2.995 c 0,0.31 -0.034,0.592 -0.229,0.808 -0.203,0.216 -0.482,0.319 -0.753,0.319 -0.574,0 -1.107,-0.46 -1.107,-1.409 V -4.169 H 0 Z"
             style="fill:#808285;fill-opacity:1;fill-rule:nonzero;stroke:none"
             id="path262"
             inkscape:connector-curvature="0" />
        </g>
        <g
           id="g264"
           transform="translate(324.3447,655.2305)">
          <path
             d="M 0,0 H 3.634 V -0.798 H 0.861 V -2.911 H 3.474 V -3.7 H 0.861 V -6.78 H 0 Z"
             style="fill:#808285;fill-opacity:1;fill-rule:nonzero;stroke:none"
             id="path266"
             inkscape:connector-curvature="0" />
        </g>
        <g
           id="g268"
           transform="translate(330.2607,648.9482)">
          <path
             d="m 0,0 c 0.6,0 1.284,0.479 1.284,1.897 0,1.174 -0.49,1.794 -1.233,1.794 -0.507,0 -1.327,-0.357 -1.327,-1.832 C -1.276,0.892 -0.904,0 0,0 m 0.051,4.339 c 1.699,0 2.079,-1.484 2.079,-2.47 0,-1.381 -0.702,-2.527 -2.148,-2.527 -1.403,0 -2.086,1.081 -2.086,2.461 0,1.165 0.49,2.536 2.155,2.536"
             style="fill:#808285;fill-opacity:1;fill-rule:nonzero;stroke:none"
             id="path270"
             inkscape:connector-curvature="0" />
        </g>
        <g
           id="g272"
           transform="translate(332.9902,652.2065)">
          <path
             d="M 0,0 C 0,0.319 -0.018,0.648 -0.042,0.958 H 0.761 L 0.776,0.047 C 0.93,0.705 1.437,0.92 1.792,0.977 2.027,1.014 2.206,1.005 2.341,0.996 V 0.131 C 2.299,0.15 2.248,0.16 2.188,0.169 2.13,0.178 2.053,0.178 1.961,0.178 1.022,0.178 0.803,-0.441 0.803,-1.249 V -3.756 H 0 Z"
             style="fill:#808285;fill-opacity:1;fill-rule:nonzero;stroke:none"
             id="path274"
             inkscape:connector-curvature="0" />
        </g>
        <g
           id="g276"
           transform="translate(338.6104,651.2676)">
          <path
             d="M 0,0 C 0.008,0.451 -0.067,1.39 -1.048,1.39 -1.563,1.39 -2.188,1.042 -2.206,0 Z m -2.24,-0.62 c -0.017,-0.976 0.347,-1.699 1.218,-1.699 0.515,0 0.929,0.3 0.997,0.976 H 0.77 C 0.743,-1.578 0.71,-1.963 0.406,-2.329 0.219,-2.563 -0.203,-2.958 -1.057,-2.958 c -1.335,0 -1.968,0.92 -1.968,2.413 0,0.93 0.169,1.7 0.837,2.217 0.405,0.319 0.913,0.347 1.157,0.347 1.901,0 1.859,-1.869 1.843,-2.639 z"
             style="fill:#808285;fill-opacity:1;fill-rule:nonzero;stroke:none"
             id="path278"
             inkscape:connector-curvature="0" />
        </g>
        <g
           id="g280"
           transform="translate(340.0977,652.6201)">
          <path
             d="m 0,0 -0.008,0.545 h 0.794 l 0.008,-0.761 c 0.094,0.197 0.397,0.855 1.36,0.855 0.381,0 1.538,-0.16 1.538,-1.606 v -3.202 h -0.81 v 2.995 c 0,0.31 -0.034,0.592 -0.229,0.808 -0.202,0.216 -0.481,0.319 -0.752,0.319 -0.574,0 -1.107,-0.46 -1.107,-1.409 V -4.169 H 0 Z"
             style="fill:#808285;fill-opacity:1;fill-rule:nonzero;stroke:none"
             id="path282"
             inkscape:connector-curvature="0" />
        </g>
        <g
           id="g284"
           transform="translate(345.1768,649.8496)">
          <path
             d="m 0,0 c -0.009,-0.357 0.16,-0.855 0.93,-0.855 0.33,0 0.574,0.066 0.743,0.301 0.085,0.122 0.136,0.281 0.136,0.441 0,0.461 -0.296,0.545 -0.93,0.705 -0.888,0.225 -1.631,0.422 -1.631,1.408 0,0.864 0.676,1.427 1.655,1.427 0.534,0 1.278,-0.168 1.531,-0.732 0.11,-0.263 0.11,-0.488 0.11,-0.685 H 1.732 c 0.026,0.713 -0.533,0.77 -0.819,0.77 -0.118,0 -0.862,0 -0.862,-0.676 0,-0.432 0.38,-0.536 0.599,-0.601 1.174,-0.31 1.429,-0.386 1.683,-0.648 0.235,-0.245 0.32,-0.574 0.32,-0.874 0,-0.526 -0.261,-0.976 -0.574,-1.192 -0.372,-0.254 -0.819,-0.32 -1.26,-0.32 -0.861,0 -1.665,0.395 -1.656,1.531 z"
             style="fill:#808285;fill-opacity:1;fill-rule:nonzero;stroke:none"
             id="path286"
             inkscape:connector-curvature="0" />
        </g>
        <path
           d="m 348.608,653.165 h 0.794 v -4.714 h -0.794 z m -0.085,2.047 h 0.954 v -0.967 h -0.954 z"
           style="fill:#808285;fill-opacity:1;fill-rule:nonzero;stroke:none"
           id="path288"
           inkscape:connector-curvature="0" />
        <g
           id="g290"
           transform="translate(353.0195,651.6528)">
          <path
             d="m 0,0 c -0.018,0.216 -0.076,0.986 -0.845,0.986 -1.099,0 -1.099,-1.418 -1.099,-1.775 0,-0.967 0.211,-1.869 1.057,-1.869 0.676,0 0.904,0.564 0.921,1.024 h 0.803 c -0.051,-0.92 -0.668,-1.691 -1.716,-1.691 -0.287,0 -0.946,0.067 -1.394,0.611 -0.254,0.328 -0.508,0.826 -0.508,1.803 0,1.963 1.082,2.545 1.927,2.545 0.279,0 0.913,-0.066 1.302,-0.582 C 0.76,0.648 0.786,0.263 0.803,0 Z"
             style="fill:#808285;fill-opacity:1;fill-rule:nonzero;stroke:none"
             id="path292"
             inkscape:connector-curvature="0" />
        </g>
        <g
           id="g294"
           transform="translate(356.7207,655.2305)">
          <path
             d="M 0,0 H 3.828 V -0.798 H 0.846 v -2.113 h 2.84 V -3.7 h -2.84 v -2.254 h 3.05 V -6.78 H 0 Z"
             style="fill:#808285;fill-opacity:1;fill-rule:nonzero;stroke:none"
             id="path296"
             inkscape:connector-curvature="0" />
        </g>
        <g
           id="g298"
           transform="translate(360.8281,653.1646)">
          <path
             d="M 0,0 H 0.888 L 2.24,-3.738 3.559,0 H 4.437 L 2.577,-4.714 H 1.775 Z"
             style="fill:#808285;fill-opacity:1;fill-rule:nonzero;stroke:none"
             id="path300"
             inkscape:connector-curvature="0" />
        </g>
        <path
           d="m 365.831,653.165 h 0.795 v -4.714 h -0.795 z m -0.084,2.047 h 0.955 v -0.967 h -0.955 z"
           style="fill:#808285;fill-opacity:1;fill-rule:nonzero;stroke:none"
           id="path302"
           inkscape:connector-curvature="0" />
        <g
           id="g304"
           transform="translate(370.3018,652.188)">
          <path
             d="m 0,0 c -0.169,0.244 -0.481,0.479 -0.93,0.479 -1.166,0 -1.166,-1.568 -1.166,-1.888 0,-0.835 0.195,-1.803 1.166,-1.803 1.251,0 1.251,1.531 1.251,1.897 C 0.321,-0.629 0.178,-0.254 0,0 m 0.297,3.033 h 0.794 v -6.019 c 0,-0.104 0.016,-0.508 0.033,-0.752 H 0.329 l -0.017,0.752 c -0.067,-0.132 -0.16,-0.329 -0.379,-0.498 -0.346,-0.263 -0.761,-0.348 -1.048,-0.348 -0.567,0 -1.825,0.329 -1.825,2.395 0,1.794 0.92,2.573 1.918,2.573 0.913,0 1.216,-0.601 1.319,-0.798 z"
             style="fill:#808285;fill-opacity:1;fill-rule:nonzero;stroke:none"
             id="path306"
             inkscape:connector-curvature="0" />
        </g>
        <g
           id="g308"
           transform="translate(375.0264,651.2676)">
          <path
             d="M 0,0 C 0.008,0.451 -0.068,1.39 -1.048,1.39 -1.564,1.39 -2.189,1.042 -2.206,0 Z m -2.24,-0.62 c -0.017,-0.976 0.347,-1.699 1.217,-1.699 0.516,0 0.93,0.3 0.998,0.976 H 0.769 C 0.743,-1.578 0.71,-1.963 0.406,-2.329 0.219,-2.563 -0.203,-2.958 -1.057,-2.958 c -1.335,0 -1.969,0.92 -1.969,2.413 0,0.93 0.169,1.7 0.837,2.217 0.406,0.319 0.913,0.347 1.158,0.347 1.901,0 1.859,-1.869 1.842,-2.639 z"
             style="fill:#808285;fill-opacity:1;fill-rule:nonzero;stroke:none"
             id="path310"
             inkscape:connector-curvature="0" />
        </g>
        <g
           id="g312"
           transform="translate(376.5137,652.6201)">
          <path
             d="m 0,0 -0.008,0.545 h 0.794 l 0.008,-0.761 c 0.094,0.197 0.398,0.855 1.361,0.855 0.381,0 1.538,-0.16 1.538,-1.606 V -4.169 H 2.882 v 2.995 c 0,0.31 -0.034,0.592 -0.228,0.808 -0.203,0.216 -0.482,0.319 -0.752,0.319 -0.575,0 -1.108,-0.46 -1.108,-1.409 V -4.169 H 0 Z"
             style="fill:#808285;fill-opacity:1;fill-rule:nonzero;stroke:none"
             id="path314"
             inkscape:connector-curvature="0" />
        </g>
        <g
           id="g316"
           transform="translate(383.5537,651.6528)">
          <path
             d="m 0,0 c -0.018,0.216 -0.076,0.986 -0.845,0.986 -1.099,0 -1.099,-1.418 -1.099,-1.775 0,-0.967 0.211,-1.869 1.056,-1.869 0.677,0 0.905,0.564 0.922,1.024 h 0.803 c -0.051,-0.92 -0.668,-1.691 -1.716,-1.691 -0.287,0 -0.946,0.067 -1.394,0.611 -0.254,0.328 -0.508,0.826 -0.508,1.803 0,1.963 1.082,2.545 1.927,2.545 0.279,0 0.913,-0.066 1.302,-0.582 C 0.76,0.648 0.786,0.263 0.803,0 Z"
             style="fill:#808285;fill-opacity:1;fill-rule:nonzero;stroke:none"
             id="path318"
             inkscape:connector-curvature="0" />
        </g>
        <g
           id="g320"
           transform="translate(387.9053,651.2676)">
          <path
             d="M 0,0 C 0.01,0.451 -0.067,1.39 -1.048,1.39 -1.563,1.39 -2.188,1.042 -2.206,0 Z m -2.239,-0.62 c -0.017,-0.976 0.346,-1.699 1.217,-1.699 0.515,0 0.929,0.3 0.998,0.976 H 0.77 C 0.744,-1.578 0.71,-1.963 0.406,-2.329 0.221,-2.563 -0.202,-2.958 -1.056,-2.958 c -1.336,0 -1.969,0.92 -1.969,2.413 0,0.93 0.17,1.7 0.837,2.217 0.406,0.319 0.913,0.347 1.158,0.347 1.9,0 1.858,-1.869 1.842,-2.639 z"
             style="fill:#808285;fill-opacity:1;fill-rule:nonzero;stroke:none"
             id="path322"
             inkscape:connector-curvature="0" />
        </g>
      </g>
    </g>
    <g
       transform="matrix(0.35277777,0,0,-0.35277777,-63.569344,264.99619)"
       id="g324">
      <g
         id="g326"
         clip-path="url(#clipPath330)">
        <g
           id="g332"
           transform="translate(268.1377,669.5703)">
          <path
             d="M 0,0 H 120.641"
             style="fill:none;stroke:#d0202e;stroke-width:1.48300004;stroke-linecap:round;stroke-linejoin:miter;stroke-miterlimit:10;stroke-dasharray:none;stroke-opacity:1"
             id="path334"
             inkscape:connector-curvature="0" />
        </g>
      </g>
    </g>
    <g
       transform="matrix(0.35277777,0,0,-0.35277777,-63.569344,264.99619)"
       id="g336">
      <g
         id="g338"
         clip-path="url(#clipPath342)">
        <g
           id="g344"
           transform="translate(243.6299,662.2754)">
          <path
             d="M 0,0 C 6.156,10.478 4.684,22.767 -3.287,27.451 -4.068,27.909 -4.882,28.276 -5.72,28.558 -3.625,28.43 -1.606,27.85 0.227,26.773 8.197,22.09 8.872,9.857 2.716,-0.621 -2.836,-10.074 -11.902,-14.877 -19.631,-12.277 -12.619,-12.707 -4.74,-8.068 0,0"
             style="fill:#d0202e;fill-opacity:1;fill-rule:nonzero;stroke:none"
             id="path346"
             inkscape:connector-curvature="0" />
        </g>
        <g
           id="g348"
           transform="translate(240.5112,663.9106)">
          <path
             d="m 0,0 c 6.214,7.727 6.486,17.822 0.608,22.549 -0.576,0.463 -1.19,0.856 -1.833,1.183 1.676,-0.353 3.236,-1.06 4.589,-2.148 C 9.241,16.858 8.969,6.762 2.755,-0.965 -2.85,-7.935 -11.375,-10.595 -17.305,-7.579 -11.696,-8.759 -4.784,-5.95 0,0"
             style="fill:#27aae1;fill-opacity:1;fill-rule:nonzero;stroke:none"
             id="path350"
             inkscape:connector-curvature="0" />
        </g>
        <g
           id="g352"
           transform="translate(221.4404,680.5527)">
          <path
             d="m 0,0 c -5.509,-8.553 -4.417,-19.641 2.438,-24.766 0.671,-0.501 1.372,-0.926 2.096,-1.278 -1.818,0.369 -3.563,1.128 -5.139,2.306 C -7.46,-18.613 -8.551,-7.526 -3.043,1.028 1.927,8.744 10.568,11.76 17.245,8.514 11.159,9.747 4.241,6.586 0,0"
             style="fill:#d7df23;fill-opacity:1;fill-rule:nonzero;stroke:none"
             id="path354"
             inkscape:connector-curvature="0" />
        </g>
        <g
           id="g356"
           transform="translate(219.27,681.4561)">
          <path
             d="m 0,0 c -6.627,-10.288 -5.313,-23.626 2.933,-29.79 0.806,-0.603 1.65,-1.114 2.521,-1.537 -2.187,0.443 -4.286,1.356 -6.182,2.774 -8.245,6.163 -8.761,19.444 -2.135,29.733 5.978,9.281 17.265,12.232 23.606,9.062 C 13.422,11.724 5.101,7.922 0,0"
             style="fill:#ec008c;fill-opacity:1;fill-rule:nonzero;stroke:none"
             id="path358"
             inkscape:connector-curvature="0" />
        </g>
        <g
           id="g360"
           transform="translate(225.1523,678.9404)">
          <path
             d="M 0,0 C 4.335,6.249 11.537,8.756 16.088,5.599 16.533,5.29 16.936,4.938 17.298,4.549 16.716,5.677 15.901,6.64 14.854,7.366 10.304,10.522 3.101,8.016 -1.233,1.767 -5.144,-3.87 -5.383,-10.626 -2.052,-14.213 -4,-10.438 -3.337,-4.812 0,0"
             style="fill:#6ba2b8;fill-opacity:1;fill-rule:nonzero;stroke:none"
             id="path362"
             inkscape:connector-curvature="0" />
        </g>
        <g
           id="g364"
           transform="translate(237.8433,669.4189)">
          <path
             d="m 0,0 c -4.335,-6.249 -11.538,-8.755 -16.088,-5.6 -0.445,0.31 -0.848,0.662 -1.21,1.052 0.582,-1.128 1.396,-2.091 2.444,-2.818 4.55,-3.156 11.753,-0.649 16.088,5.6 3.91,5.637 4.149,12.394 0.817,15.98 C 4,10.438 3.337,4.812 0,0"
             style="fill:#55575a;fill-opacity:1;fill-rule:nonzero;stroke:none"
             id="path366"
             inkscape:connector-curvature="0" />
        </g>
        <g
           id="g368"
           transform="translate(245.3599,691.3818)">
          <path
             d="m 0,0 c -10.148,7.039 -26.209,1.449 -35.875,-12.485 -3.642,-5.252 -5.856,-10.939 -6.658,-16.364 0.547,5.946 2.829,12.307 6.87,18.133 C -25.998,3.218 -9.935,8.808 0.212,1.769 6.535,-2.617 9.069,-10.871 7.744,-19.842 8.505,-11.566 5.906,-4.096 0,0"
             style="fill:#6ba2b8;fill-opacity:1;fill-rule:nonzero;stroke:none"
             id="path370"
             inkscape:connector-curvature="0" />
        </g>
        <g
           id="g372"
           transform="translate(245.9097,694.6328)">
          <path
             d="m 0,0 c -10.213,7.084 -26.216,1.802 -36.284,-11.762 0.256,0.397 0.52,0.793 0.791,1.185 10,14.416 26.618,20.199 37.116,12.918 C 12.122,-4.942 12.527,-22.533 2.527,-36.948 2.256,-37.34 1.978,-37.726 1.696,-38.106 10.873,-23.923 10.213,-7.084 0,0"
             style="fill:#008445;fill-opacity:1;fill-rule:nonzero;stroke:none"
             id="path374"
             inkscape:connector-curvature="0" />
        </g>
        <g
           id="g376"
           transform="translate(217.7715,651.6919)">
          <path
             d="m 0,0 c -10.213,7.085 -10.872,23.924 -1.695,38.106 -0.282,-0.38 -0.56,-0.765 -0.832,-1.156 -10,-14.417 -9.595,-32.008 0.904,-39.29 10.499,-7.282 27.116,-1.499 37.116,12.918 0.271,0.392 0.534,0.787 0.792,1.185 C 26.216,-1.802 10.213,-7.083 0,0"
             style="fill:#f4bd47;fill-opacity:1;fill-rule:nonzero;stroke:none"
             id="path378"
             inkscape:connector-curvature="0" />
        </g>
        <g
           id="g380"
           transform="translate(235.6343,683.624)">
          <path
             d="m 0,0 c 0.086,-0.048 0.165,-0.109 0.237,-0.179 -1.17,0.274 -3.218,-1.528 -4.755,-4.254 -1.65,-2.925 -2.088,-5.804 -0.977,-6.43 1.035,-0.584 3.048,0.997 4.653,3.582 -0.117,-0.227 -0.239,-0.454 -0.367,-0.682 -2.044,-3.622 -4.814,-5.931 -6.189,-5.155 -1.375,0.776 -0.833,4.341 1.209,7.963 C -4.146,-1.533 -1.375,0.775 0,0"
             style="fill:#1e376c;fill-opacity:1;fill-rule:nonzero;stroke:none"
             id="path382"
             inkscape:connector-curvature="0" />
        </g>
        <g
           id="g384"
           transform="translate(227.48,668.5439)">
          <path
             d="m 0,0 c 1.868,-1.053 5.163,1.252 7.36,5.149 2.047,3.629 2.419,7.358 0.95,8.703 0.158,-0.049 0.31,-0.114 0.454,-0.196 2.312,-1.304 1.981,-6.273 -0.74,-11.098 -2.721,-4.826 -6.801,-7.679 -9.114,-6.376 -2.312,1.305 -1.982,6.273 0.739,11.099 0.17,0.302 0.346,0.595 0.525,0.88 C -1.625,4.53 -1.739,0.982 0,0"
             style="fill:#2e5697;fill-opacity:1;fill-rule:nonzero;stroke:none"
             id="path386"
             inkscape:connector-curvature="0" />
        </g>
        <g
           id="g388"
           transform="translate(225.0771,700.312)">
          <path
             d="m 0,0 c -4.375,-3.096 -8.416,-7.33 -11.655,-12.513 -9.877,-15.807 -8.552,-34.452 2.959,-41.645 7.015,-4.384 16.193,-3.504 24.528,1.429 -8.967,-6.347 -19.338,-7.917 -27.074,-3.082 -11.512,7.193 -12.837,25.839 -2.959,41.645 C -10.342,-7.99 -5.345,-3.162 0,0"
             style="fill:#005789;fill-opacity:1;fill-rule:nonzero;stroke:none"
             id="path390"
             inkscape:connector-curvature="0" />
        </g>
      </g>
    </g>
    <g
       transform="matrix(0.35277777,0,0,-0.35277777,-63.569344,264.99619)"
       id="g392">
      <g
         id="g394"
         clip-path="url(#clipPath398)">
        <g
           id="g400"
           transform="translate(249.7324,654.9453)">
          <path
             d="m 0,0 c 11.079,15.973 10.63,35.461 -1.001,43.529 -2.823,1.958 -6.046,3.061 -9.465,3.384 4.343,0.059 8.457,-1.056 11.957,-3.483 C 13.123,35.362 13.571,15.873 2.493,-0.099 -5.897,-12.194 -18.491,-18.803 -29.162,-17.795 -19.071,-17.655 -7.744,-11.165 0,0"
             style="fill:#ac1f2d;fill-opacity:1;fill-rule:nonzero;stroke:none"
             id="path402"
             inkscape:connector-curvature="0" />
        </g>
        <g
           id="g404"
           transform="translate(252.5391,703.7778)">
          <path
             d="m 0,0 c -12.789,7.991 -32.052,0.234 -43.025,-17.328 -3.361,-5.378 -5.552,-11.051 -6.61,-16.565 0.754,6.453 3.097,13.251 7.084,19.633 10.974,17.561 30.294,26.115 43.083,18.124 8.872,-5.545 12.238,-18.01 9.84,-30.5 C 11.695,-15.332 8.141,-5.088 0,0"
             style="fill:#ee2a7b;fill-opacity:1;fill-rule:nonzero;stroke:none"
             id="path406"
             inkscape:connector-curvature="0" />
        </g>
        <g
           id="g408"
           transform="translate(211.6831,644.126)">
          <path
             d="M 0,0 C 12.515,-7.821 31.229,-0.558 42.308,16.213 42.084,15.834 41.857,15.456 41.622,15.08 30.649,-2.481 10.559,-10.58 -2.229,-2.588 -15.018,5.404 -15.664,26.459 -4.691,44.02 c 0.235,0.377 0.476,0.747 0.718,1.114 C -14.19,27.824 -12.515,7.82 0,0"
             style="fill:#8dc63f;fill-opacity:1;fill-rule:nonzero;stroke:none"
             id="path410"
             inkscape:connector-curvature="0" />
        </g>
        <g
           id="g412"
           transform="translate(248.3711,703.1899)">
          <path
             d="m 0,0 c 3.93,-2.456 6.76,-6.513 8.52,-10.91 -1.774,3.504 -4.326,6.432 -7.641,8.503 -12.789,7.991 -32.052,0.234 -43.026,-17.327 -7.601,-12.165 -9.229,-25.841 -5.262,-35.755 -5.072,10.016 -3.661,26.348 4.468,39.357 C -31.967,1.429 -12.789,7.992 0,0"
             style="fill:#f78d2c;fill-opacity:1;fill-rule:nonzero;stroke:none"
             id="path414"
             inkscape:connector-curvature="0" />
        </g>
        <g
           id="g416"
           transform="translate(252.8296,656.293)">
          <path
             d="m 0,0 c 11.508,16.591 11.338,36.742 -0.166,45.704 0.318,-0.195 0.632,-0.397 0.941,-0.61 12.391,-8.596 14.026,-28.341 2.717,-45.688 -12.114,-18.583 -33.065,-24.525 -45.456,-15.93 -0.309,0.213 -0.608,0.438 -0.901,0.667 C -30.442,-23.492 -11.508,-16.591 0,0"
             style="fill:#92278f;fill-opacity:1;fill-rule:nonzero;stroke:none"
             id="path418"
             inkscape:connector-curvature="0" />
        </g>
      </g>
    </g>
    <g
       transform="matrix(0.35277777,0,0,-0.35277777,-63.569344,264.99619)"
       id="g420">
      <g
         id="g422"
         clip-path="url(#clipPath426)">
        <g
           id="g428"
           transform="translate(286.9902,691.6016)">
          <path
             d="m 0,0 c -1.429,2.194 -3.419,3.725 -6.429,3.725 -4.644,0 -8.011,-3.571 -8.011,-8.011 0,-4.44 3.367,-8.011 8.011,-8.011 2.908,0 5,1.48 6.429,3.725 l 4.644,-2.756 c -2.195,-3.469 -6.379,-5.97 -11.073,-5.97 -8.624,0 -13.625,6.481 -13.625,13.012 0,6.531 5.001,13.012 13.625,13.012 5.255,0 8.674,-2.501 11.073,-5.97 z"
             style="fill:#808285;fill-opacity:1;fill-rule:nonzero;stroke:none"
             id="path430"
             inkscape:connector-curvature="0" />
        </g>
        <g
           id="g432"
           transform="translate(295.9697,682.3145)">
          <path
             d="m 0,0 c 1.888,-2.041 5.001,-3.622 7.756,-3.622 3.062,0 4.899,1.734 4.899,3.112 0,1.633 -1.276,2.5 -3.215,2.858 L 6.429,2.909 c -6.939,1.276 -8.878,3.52 -8.878,7.041 0,4.184 3.52,8.063 9.695,8.063 3.419,0 6.429,-1.021 9.797,-3.419 l -3.01,-3.725 c -2.602,2.194 -4.899,2.756 -6.634,2.756 -2.296,0 -4.542,-1.123 -4.542,-3.113 0,-1.48 1.174,-2.246 3.215,-2.603 l 5.359,-1.02 c 4.388,-0.817 6.53,-2.908 6.53,-6.583 0,-3.623 -2.959,-8.317 -10.461,-8.317 -4.183,0 -7.755,1.48 -11.123,4.338 z"
             style="fill:#808285;fill-opacity:1;fill-rule:nonzero;stroke:none"
             id="path434"
             inkscape:connector-curvature="0" />
        </g>
      </g>
    </g>
    <g
       transform="matrix(0.35277777,0,0,-0.35277777,-63.569344,264.99619)"
       id="g436">
      <g
         id="g438"
         clip-path="url(#clipPath442)">
        <g
           id="g444"
           transform="translate(328.4736,679.3042)">
          <path
             d="m 0,0 c 4.185,0 7.756,3.572 7.756,8.011 0,4.44 -3.571,8.011 -7.756,8.011 -4.287,0 -7.857,-3.571 -7.857,-8.011 C -7.857,3.572 -4.287,0 0,0 M 7.552,-1.326 H 7.449 c -1.682,-2.246 -4.745,-3.675 -8.113,-3.675 -8.112,0 -12.808,6.634 -12.808,13.012 0,6.073 5.052,13.012 13.064,13.012 3.673,0 6.48,-1.582 7.857,-3.674 h 0.103 v 3.011 h 5.306 V -4.337 H 7.552 Z"
             style="fill:#808285;fill-opacity:1;fill-rule:nonzero;stroke:none"
             id="path446"
             inkscape:connector-curvature="0" />
        </g>
        <g
           id="g448"
           transform="translate(346.9453,694.5391)">
          <path
             d="M 0,0 H -3.471 V 5 H 0 v 4.184 c 0,4.593 2.807,8.93 9.185,8.93 1.276,0 2.959,-0.204 4.082,-0.663 l -2.194,-4.796 c -0.715,0.306 -1.378,0.459 -2.347,0.459 -2.143,0 -3.419,-1.786 -3.419,-3.623 V 5 h 5.306 V 0 H 5.307 V -29.027 H 0 Z"
             style="fill:#808285;fill-opacity:1;fill-rule:nonzero;stroke:none"
             id="path450"
             inkscape:connector-curvature="0" />
        </g>
      </g>
    </g>
    <g
       transform="matrix(0.35277777,0,0,-0.35277777,-63.569344,264.99619)"
       id="g452">
      <g
         id="g454"
         clip-path="url(#clipPath458)">
        <g
           id="g460"
           transform="translate(377.3828,689.8667)">
          <path
             d="m 0,0 c -1.122,3.776 -3.93,5.766 -7.297,5.766 -3.367,0 -6.123,-2.092 -6.99,-5.766 z m 4.898,-9.542 c -2.96,-3.725 -7.042,-5.97 -11.481,-6.021 -8.623,0 -13.624,6.48 -13.624,13.012 0,6.531 5.001,13.011 13.624,13.011 5.154,0 12.808,-4.235 12.808,-13.878 v -0.97 h -20.512 c 0.306,-3.776 3.827,-6.481 7.552,-6.481 2.857,0 5.306,1.378 7.142,3.827 z"
             style="fill:#808285;fill-opacity:1;fill-rule:nonzero;stroke:none"
             id="path462"
             inkscape:connector-curvature="0" />
        </g>
      </g>
    </g>
  </g>
</svg>
