<?xml version="1.0" encoding="UTF-8" standalone="no"?>
<!-- Created with Inkscape (http://www.inkscape.org/) -->

<svg
   xmlns:dc="http://purl.org/dc/elements/1.1/"
   xmlns:cc="http://creativecommons.org/ns#"
   xmlns:rdf="http://www.w3.org/1999/02/22-rdf-syntax-ns#"
   xmlns:svg="http://www.w3.org/2000/svg"
   xmlns="http://www.w3.org/2000/svg"
   xmlns:sodipodi="http://sodipodi.sourceforge.net/DTD/sodipodi-0.dtd"
   xmlns:inkscape="http://www.inkscape.org/namespaces/inkscape"
   width="22.865044mm"
   height="18.660498mm"
   viewBox="0 0 22.865044 18.660498"
   version="1.1"
   id="svg5195"
   inkscape:version="0.92.3 (2405546, 2018-03-11)"
   sodipodi:docname="equation-green.svg">
  <defs
     id="defs5189" />
  <sodipodi:namedview
     id="base"
     pagecolor="#ffffff"
     bordercolor="#666666"
     borderopacity="1.0"
     inkscape:pageopacity="0.0"
     inkscape:pageshadow="2"
     inkscape:zoom="0.35"
     inkscape:cx="-1471.0762"
     inkscape:cy="386.69251"
     inkscape:document-units="mm"
     inkscape:current-layer="layer1"
     showgrid="false"
     inkscape:window-width="1920"
     inkscape:window-height="1051"
     inkscape:window-x="1920"
     inkscape:window-y="0"
     inkscape:window-maximized="1"
     fit-margin-top="0"
     fit-margin-left="0"
     fit-margin-right="0"
     fit-margin-bottom="0" />
  <metadata
     id="metadata5192">
    <rdf:RDF>
      <cc:Work
         rdf:about="">
        <dc:format>image/svg+xml</dc:format>
        <dc:type
           rdf:resource="http://purl.org/dc/dcmitype/StillImage" />
        <dc:title></dc:title>
      </cc:Work>
    </rdf:RDF>
  </metadata>
  <g
     inkscape:label="Layer 1"
     inkscape:groupmode="layer"
     id="layer1"
     transform="translate(-375.6151,-232.48523)">
    <g
       id="g1214"
       transform="matrix(0.35277777,0,0,-0.35277777,377.87065,236.12575)">
      <path
         d="m 0,0 c -0.304,0.062 -0.582,0.189 -0.834,0.366 -0.215,0.152 -0.342,0.366 -0.38,0.633 -0.038,0.315 0.013,0.619 0.076,0.923 0.126,0.644 0.304,1.276 0.493,1.896 0.126,0.431 0.253,0.848 0.392,1.278 0.088,0.291 0.19,0.593 0.291,0.884 L 0.051,6.031 C 0.139,6.486 0.341,6.903 0.493,7.347 0.531,7.46 0.582,7.562 0.632,7.675 0.645,7.726 0.683,7.764 0.708,7.802 0.746,7.853 0.797,7.864 0.847,7.853 0.936,7.84 1.012,7.826 1.087,7.802 1.163,7.776 1.226,7.738 1.252,7.662 1.29,7.6 1.315,7.535 1.353,7.46 1.125,7.194 1.075,6.879 1.012,6.574 0.936,6.283 0.847,5.993 0.746,5.702 0.594,5.184 0.417,4.678 0.265,4.159 0.114,3.653 -0.013,3.136 -0.152,2.63 -0.278,2.199 -0.329,1.758 -0.392,1.327 -0.417,1.2 -0.405,1.087 -0.405,0.961 c 0,-0.164 0.076,-0.267 0.24,-0.304 C 0,0.606 0.177,0.582 0.367,0.594 0.531,0.606 0.708,0.632 0.872,0.657 1.543,0.783 2.213,0.923 2.883,1.036 3.351,1.125 3.831,1.162 4.312,1.15 4.653,1.138 4.995,1.112 5.336,1.087 5.425,1.087 5.513,1.062 5.614,1.049 5.513,0.923 5.387,0.871 5.26,0.847 5.071,0.797 4.881,0.771 4.691,0.745 4.084,0.694 3.49,0.594 2.896,0.454 2.82,0.43 2.757,0.417 2.681,0.403 2.491,0.354 2.301,0.291 2.124,0.253 1.808,0.163 1.517,0.075 1.201,0.024 0.923,-0.025 0.632,-0.038 0.354,-0.052 0.24,-0.063 0.114,-0.025 0,0"
         style="fill:#008446;fill-opacity:1;fill-rule:nonzero;stroke:none"
         id="path1216"
         inkscape:connector-curvature="0" />
    </g>
    <g
       id="g1218"
       transform="matrix(0.35277777,0,0,-0.35277777,380.94818,236.88885)">
      <path
         d="m 0,0 c -0.126,0.102 -0.228,0.229 -0.266,0.379 -0.063,0.216 -0.138,0.418 -0.189,0.634 -0.076,0.315 -0.127,0.643 -0.152,0.972 -0.012,0.291 0,0.594 0,0.898 0,0.228 0,0.443 0.013,0.671 0.025,0.429 0.076,0.859 0.114,1.289 l 0.113,1.189 c 0.013,0.126 0.026,0.252 0.051,0.379 0.025,0.114 -0.013,0.202 -0.088,0.278 -0.127,0.127 -0.253,0.266 -0.367,0.392 -0.101,0.114 -0.177,0.229 -0.253,0.342 -0.089,0.113 -0.127,0.24 -0.076,0.392 0.076,0.063 0.177,0.101 0.278,0.126 l 0.392,0.115 c 0.089,0.024 0.177,0.049 0.266,0.089 0.063,0.024 0.101,0.062 0.114,0.126 0,0.113 0.012,0.214 0.025,0.315 0.038,0.329 0.088,0.658 0.126,0.986 0.025,0.354 0.089,0.708 0.051,1.088 -0.038,0 -0.076,0.026 -0.114,0.026 -0.215,0 -0.417,-0.064 -0.62,-0.126 -0.101,-0.027 -0.202,-0.052 -0.29,-0.089 -0.127,-0.052 -0.228,-0.126 -0.329,-0.191 -0.063,-0.037 -0.114,-0.088 -0.165,-0.126 -0.088,-0.076 -0.202,-0.038 -0.303,-0.038 -0.013,0 -0.038,0.013 -0.051,0.026 l -0.253,0.291 c 0,0.075 0.038,0.127 0.089,0.165 0.291,0.175 0.569,0.353 0.885,0.479 0.291,0.114 0.595,0.152 0.898,0.164 0.114,0.013 0.215,0 0.303,0.065 0.026,0.024 0.076,0.011 0.114,0.011 0.152,0 0.304,-0.063 0.455,-0.088 C 1.062,11.166 1.366,11.115 1.657,11.052 2.188,10.951 2.706,10.773 3.225,10.584 3.427,10.508 3.617,10.395 3.806,10.243 4.059,10.04 4.072,9.534 3.87,9.332 3.655,9.117 3.414,8.927 3.161,8.764 2.757,8.523 2.339,8.32 1.91,8.145 1.581,8.004 1.227,7.878 0.898,7.739 0.847,7.727 0.809,7.714 0.771,7.688 0.695,7.663 0.658,7.612 0.645,7.536 L 0.62,7.321 C 0.594,7.157 0.582,7.005 0.569,6.854 0.556,6.766 0.582,6.702 0.645,6.651 0.734,6.563 0.822,6.475 0.923,6.398 1.29,6.096 1.669,5.805 2.036,5.488 2.491,5.109 2.946,4.704 3.389,4.312 L 4.375,3.465 5.88,2.125 C 6.032,1.985 6.184,1.847 6.323,1.707 6.411,1.619 6.487,1.53 6.563,1.43 6.702,1.214 6.866,1.024 7.031,0.835 7.132,0.733 7.208,0.62 7.296,0.506 7.309,0.493 7.309,0.468 7.309,0.431 7.157,0.544 7.018,0.658 6.879,0.759 6.436,1.113 5.994,1.454 5.551,1.796 5.399,1.91 5.26,2.036 5.109,2.15 4.995,2.251 4.868,2.339 4.742,2.44 4.514,2.618 4.287,2.795 4.059,2.984 L 2.643,4.186 C 2.403,4.401 2.162,4.604 1.91,4.793 1.682,4.971 1.442,5.134 1.214,5.312 L 0.683,5.729 C 0.62,5.791 0.544,5.842 0.443,5.867 0.43,5.817 0.405,5.779 0.405,5.741 0.341,5.273 0.291,4.806 0.228,4.337 0.19,3.934 0.139,3.516 0.114,3.111 0.089,2.592 0.076,2.062 0.114,1.543 0.126,1.366 0.126,1.201 0.101,1.024 0.089,0.923 0.101,0.81 0.126,0.708 0.152,0.62 0.152,0.544 0.126,0.455 0.089,0.305 0.076,0.14 0.089,-0.024 0.051,-0.013 0.013,-0.013 0,0 m 0.898,8.498 0.48,0.19 c 0.607,0.239 1.176,0.53 1.67,0.973 0.113,0.102 0.202,0.202 0.278,0.329 -0.064,0.088 -0.139,0.114 -0.203,0.139 -0.569,0.216 -1.163,0.366 -1.757,0.48 -0.127,0.026 -0.253,0.038 -0.38,0.051 -0.063,0 -0.088,-0.038 -0.101,-0.1 v -0.178 c -0.012,-0.127 0,-0.253 -0.012,-0.38 C 0.86,9.661 0.847,9.319 0.797,8.979 L 0.759,8.573 c 0,-0.025 0.012,-0.05 0.025,-0.088 0.038,0 0.076,0 0.114,0.013"
         style="fill:#008446;fill-opacity:1;fill-rule:nonzero;stroke:none"
         id="path1220"
         inkscape:connector-curvature="0" />
    </g>
    <g
       id="g1222"
       transform="matrix(0.35277777,0,0,-0.35277777,383.61088,235.41674)">
      <path
         d="m 0,0 -0.114,0.267 c -0.012,0.049 0.025,0.138 0.089,0.15 L 0.063,0.455 C 0.341,0.481 0.62,0.569 0.898,0.632 1.517,0.771 2.125,0.923 2.744,1.05 3.224,1.151 3.705,1.201 4.198,1.201 4.552,1.176 4.906,1.163 5.26,1.088 5.298,1.075 5.349,1.075 5.387,1.062 5.475,1.037 5.526,0.987 5.526,0.948 5.513,0.873 5.463,0.835 5.412,0.81 5.26,0.734 5.109,0.67 4.932,0.658 4.793,0.646 4.653,0.646 4.514,0.632 4.375,0.632 4.224,0.62 4.085,0.594 3.705,0.531 3.338,0.443 2.959,0.379 2.491,0.278 2.036,0.152 1.581,0.038 1.214,-0.062 0.86,-0.151 0.493,-0.188 0.443,-0.188 0.392,-0.202 0.329,-0.202 0.19,-0.202 0.063,-0.139 0,0 M 0.506,1.606 C 0.481,1.619 0.455,1.631 0.43,1.657 0.354,1.745 0.291,1.834 0.253,1.947 0.24,1.985 0.278,2.074 0.316,2.086 l 0.089,0.039 c 0.404,0.101 0.822,0.189 1.239,0.252 0.607,0.076 1.214,0.14 1.833,0.19 0.203,0.013 0.418,0.038 0.633,0.051 0.177,0 0.354,0 0.531,-0.064 C 4.717,2.542 4.78,2.517 4.843,2.479 4.894,2.453 4.932,2.415 4.957,2.377 5.007,2.314 4.995,2.213 4.919,2.175 4.868,2.15 4.805,2.125 4.742,2.112 4.641,2.086 4.539,2.074 4.439,2.074 3.882,2.023 3.338,1.936 2.794,1.871 2.605,1.847 2.415,1.821 2.226,1.809 1.96,1.771 1.707,1.72 1.442,1.669 L 0.784,1.557 C 0.695,1.543 0.594,1.568 0.506,1.606"
         style="fill:#008446;fill-opacity:1;fill-rule:nonzero;stroke:none"
         id="path1224"
         inkscape:connector-curvature="0" />
    </g>
    <g
       id="g1226"
       transform="matrix(0.35277777,0,0,-0.35277777,386.2693,236.32211)">
      <path
         d="m 0,0 c -0.062,0.151 -0.101,0.304 -0.126,0.455 -0.063,0.354 -0.114,0.695 -0.165,1.05 -0.024,0.253 -0.05,0.517 -0.063,0.77 l -0.114,1.481 c -0.011,0.253 -0.038,0.505 -0.063,0.758 -0.037,0.493 -0.063,0.987 -0.114,1.48 -0.013,0.227 -0.063,0.455 -0.088,0.683 -0.013,0.24 -0.089,0.455 -0.114,0.681 -0.038,0.242 -0.026,0.482 -0.026,0.722 0.051,0.127 0.089,0.266 0.165,0.367 0.164,0.201 0.367,0.366 0.632,0.454 C 0.329,9.041 0.759,9.13 1.201,9.092 1.619,9.065 2.01,8.939 2.365,8.7 2.479,8.61 2.554,8.498 2.63,8.396 2.794,8.143 2.845,7.865 2.794,7.574 2.706,7.056 2.529,6.55 2.301,6.069 2.137,5.703 1.936,5.374 1.669,5.058 1.366,4.679 0.986,4.375 0.531,4.173 0.493,4.16 0.455,4.147 0.404,4.122 0.393,4.109 0.379,4.109 0.354,4.084 0.329,3.844 0.367,3.604 0.393,3.364 0.417,2.972 0.443,2.579 0.48,2.175 0.48,2.086 0.493,1.998 0.493,1.909 0.506,1.758 0.506,1.593 0.519,1.44 0.531,1.252 0.557,1.049 0.569,0.859 0.594,0.645 0.62,0.43 0.632,0.215 0.646,0.126 0.62,0.024 0.607,-0.076 0.557,-0.102 0.506,-0.14 0.443,-0.164 0.266,-0.267 0.063,-0.19 0,0 m 0.379,4.831 c 0.152,0.101 0.305,0.214 0.418,0.366 0.088,0.127 0.178,0.24 0.265,0.354 0.039,0.051 0.076,0.1 0.089,0.164 0.063,0.241 0.203,0.443 0.29,0.671 0.152,0.379 0.317,0.746 0.38,1.15 0.05,0.24 0.076,0.481 0.012,0.734 C 1.795,8.422 1.72,8.498 1.58,8.548 1.201,8.662 0.822,8.637 0.455,8.51 0.316,8.459 0.202,8.396 0.089,8.308 -0.024,8.207 -0.101,8.093 -0.114,7.94 -0.114,7.865 -0.139,7.776 -0.151,7.687 -0.051,7.562 -0.013,7.41 0.025,7.246 0.089,6.993 0.114,6.727 0.14,6.474 L 0.253,5.399 C 0.266,5.21 0.278,5.033 0.303,4.831 Z"
         style="fill:#008446;fill-opacity:1;fill-rule:nonzero;stroke:none"
         id="path1228"
         inkscape:connector-curvature="0" />
    </g>
    <g
       id="g1230"
       transform="matrix(0.35277777,0,0,-0.35277777,387.81271,235.97417)">
      <path
         d="m 0,0 c -0.09,0.05 -0.14,0.101 -0.152,0.202 -0.013,0.113 -0.026,0.239 -0.026,0.354 0,0.329 0.013,0.658 0,0.987 0,0.303 -0.024,0.619 -0.038,0.923 l -0.075,1.201 c 0,0.076 -0.014,0.152 -0.051,0.215 -0.075,0.139 -0.101,0.291 -0.089,0.455 0.14,0.139 0.291,0.177 0.469,0.1 C 0.113,4.413 0.164,4.375 0.189,4.312 0.239,4.211 0.291,4.108 0.315,4.008 0.354,3.831 0.379,3.654 0.404,3.477 0.404,3.414 0.404,3.351 0.48,3.313 0.506,3.325 0.53,3.351 0.544,3.376 0.606,3.452 0.657,3.54 0.694,3.629 0.872,3.996 1.125,4.324 1.403,4.628 1.505,4.754 1.644,4.83 1.77,4.919 1.782,4.931 1.795,4.931 1.808,4.931 1.922,4.981 2.049,4.957 2.099,4.881 2.149,4.818 2.137,4.69 2.073,4.615 1.884,4.362 1.758,4.084 1.605,3.819 1.543,3.691 1.467,3.578 1.403,3.452 1.087,2.845 0.885,2.2 0.759,1.517 0.683,1.113 0.683,0.708 0.632,0.303 0.619,0.189 0.594,0.088 0.53,0.013 0.492,-0.038 0.442,-0.076 0.366,-0.063 0.239,-0.063 0.126,-0.063 0,0"
         style="fill:#008446;fill-opacity:1;fill-rule:nonzero;stroke:none"
         id="path1232"
         inkscape:connector-curvature="0" />
    </g>
    <g
       id="g1234"
       transform="matrix(0.35277777,0,0,-0.35277777,389.17729,236.82612)">
      <path
         d="m 0,0 c -0.228,0.101 -0.38,0.266 -0.506,0.468 -0.215,0.341 -0.303,0.72 -0.367,1.099 -0.024,0.126 -0.036,0.253 -0.05,0.379 -0.062,0.493 -0.076,0.988 -0.051,1.481 0,0.391 0.027,0.796 0.051,1.187 0.026,0.343 0.076,0.684 0.126,1.026 l 0.076,0.569 c 0.127,0.809 0.304,1.593 0.506,2.377 0.114,0.442 0.253,0.885 0.431,1.314 0.113,0.305 0.253,0.594 0.43,0.861 0.038,0.076 0.062,0.152 0.114,0.227 0.151,0.252 0.379,0.443 0.632,0.607 0.126,0.076 0.253,0.063 0.379,0.026 C 1.897,11.583 1.96,11.354 1.834,11.278 1.669,11.165 1.594,11.001 1.492,10.849 1.215,10.457 1.024,10.015 0.86,9.585 0.657,9.079 0.481,8.561 0.354,8.029 0.202,7.396 0.089,6.752 -0.024,6.106 L -0.139,5.425 C -0.151,5.323 -0.163,5.21 -0.163,5.096 -0.177,5.045 -0.177,4.994 -0.177,4.943 -0.215,4.704 -0.239,4.476 -0.266,4.249 -0.315,3.793 -0.315,3.338 -0.304,2.883 -0.304,2.516 -0.291,2.137 -0.266,1.77 -0.239,1.491 -0.201,1.214 -0.101,0.947 -0.037,0.797 -0.013,0.632 0.089,0.506 0.126,0.441 0.164,0.392 0.216,0.341 0.291,0.239 0.393,0.189 0.519,0.177 0.569,0.177 0.62,0.164 0.671,0.151 0.684,0.151 0.684,0.139 0.695,0.126 0.657,0.038 0.582,0 0.493,-0.026 0.329,-0.09 0.164,-0.076 0,0"
         style="fill:#008446;fill-opacity:1;fill-rule:nonzero;stroke:none"
         id="path1236"
         inkscape:connector-curvature="0" />
    </g>
    <g
       id="g1238"
       transform="matrix(0.35277777,0,0,-0.35277777,390.76514,236.45613)">
      <path
         d="M 0,0 C -0.189,0.051 -0.329,0.189 -0.468,0.329 -0.492,0.354 -0.519,0.404 -0.53,0.443 -0.606,0.62 -0.645,0.798 -0.657,0.986 -0.694,1.43 -0.683,1.871 -0.683,2.314 c 0,0.077 0.013,0.153 -0.038,0.228 -0.05,0 -0.1,0.013 -0.164,0.013 -0.177,0.012 -0.342,0.062 -0.48,0.203 -0.051,0.062 -0.051,0.138 -0.102,0.201 0.064,0.102 0.165,0.164 0.267,0.228 0.138,0.088 0.277,0.177 0.429,0.265 0.077,0.038 0.114,0.102 0.126,0.191 0,0.062 0.013,0.113 0.013,0.176 0.012,0.29 0.038,0.581 0.05,0.872 0.014,0.304 0.038,0.608 0.052,0.899 0.011,0.328 0.038,0.644 0.051,0.961 0.011,0.113 0.024,0.227 -0.051,0.329 -0.026,0.024 -0.026,0.075 -0.038,0.126 0,0 0,0.013 0.012,0.013 0.126,0.126 0.152,0.278 0.164,0.455 0,0.265 0.026,0.531 0.038,0.808 0.013,0.191 0,0.38 0,0.582 0.013,0.127 0.025,0.267 0.05,0.393 0.013,0.1 0.076,0.127 0.165,0.1 0.05,0 0.088,-0.011 0.139,-0.011 C 0.164,9.319 0.253,9.205 0.291,9.055 0.316,8.852 0.354,8.662 0.329,8.473 0.316,8.32 0.305,8.169 0.342,8.029 0.431,8.018 0.469,8.068 0.507,8.105 0.67,8.244 0.834,8.384 1.013,8.523 c 0.353,0.29 0.708,0.57 1.111,0.796 0.544,0.304 1.088,0.62 1.707,0.759 0.038,0 0.065,0.014 0.089,0.014 0.014,0 0.014,-0.014 0.038,-0.027 C 3.907,10.016 3.883,9.965 3.831,9.927 3.769,9.876 3.692,9.851 3.692,9.763 3.692,9.749 3.681,9.737 3.667,9.725 3.528,9.636 3.401,9.534 3.263,9.446 3.199,9.408 3.137,9.384 3.111,9.294 3.099,9.257 3.061,9.219 3.022,9.205 2.77,9.055 2.567,8.852 2.353,8.662 2.251,8.573 2.138,8.485 2.023,8.396 1.821,8.207 1.594,8.029 1.392,7.827 1.087,7.536 0.798,7.233 0.493,6.931 L 0.379,6.816 C 0.316,6.74 0.291,6.651 0.278,6.551 0.253,5.881 0.202,5.21 0.164,4.527 0.164,4.413 0.152,4.3 0.152,4.174 0.152,4.136 0.178,4.084 0.19,4.06 0.24,4.021 0.278,4.047 0.316,4.072 0.86,4.287 1.416,4.489 1.974,4.642 2.302,4.729 2.618,4.818 2.935,4.957 3.061,5.008 3.187,5.033 3.313,5.083 3.616,5.197 3.907,5.324 4.211,5.45 4.262,5.412 4.249,5.361 4.236,5.299 4.186,5.135 4.098,4.995 3.945,4.906 3.907,4.882 3.883,4.856 3.857,4.83 3.794,4.742 3.692,4.704 3.604,4.653 3.275,4.515 2.959,4.362 2.63,4.249 2.504,4.211 2.391,4.174 2.264,4.122 2.036,4.047 1.809,3.945 1.581,3.857 1.163,3.705 0.771,3.503 0.379,3.288 L 0.229,3.199 C 0.164,3.161 0.14,3.111 0.14,3.035 V 2.631 C 0.126,2.138 0.14,1.656 0.178,1.177 0.19,1.037 0.202,0.898 0.229,0.771 0.24,0.708 0.253,0.657 0.278,0.595 0.291,0.531 0.342,0.493 0.404,0.48 0.455,0.469 0.507,0.455 0.557,0.455 0.86,0.431 1.163,0.443 1.468,0.569 L 1.96,0.76 C 2.327,0.924 2.693,1.062 3.048,1.239 3.554,1.479 4.034,1.745 4.527,1.998 4.68,2.086 4.83,2.162 4.97,2.238 5.109,2.149 5.021,2.036 5.045,1.947 4.97,1.859 4.882,1.771 4.818,1.669 4.742,1.568 4.653,1.506 4.553,1.441 4.451,1.378 4.351,1.303 4.262,1.239 L 4.186,1.177 C 3.934,1.037 3.692,0.898 3.44,0.771 L 2.479,0.24 2.213,0.126 C 1.871,0 1.518,-0.126 1.151,-0.151 0.76,-0.189 0.379,-0.113 0,0"
         style="fill:#008446;fill-opacity:1;fill-rule:nonzero;stroke:none"
         id="path1240"
         inkscape:connector-curvature="0" />
    </g>
    <g
       id="g1242"
       transform="matrix(0.35277777,0,0,-0.35277777,392.96862,236.07234)">
      <path
         d="m 0,0 c -0.038,0.038 -0.05,0.101 -0.062,0.151 -0.052,0.38 -0.127,0.76 -0.166,1.125 -0.063,0.582 -0.05,1.152 -0.088,1.734 v 0.354 c 0,0.809 -0.025,1.605 0.025,2.402 0.013,0.291 0.013,0.607 0.026,0.898 l 0.076,1.163 c 0.012,0.127 0,0.24 0.012,0.354 0.013,0.127 0.025,0.253 0.051,0.38 C -0.114,8.637 -0.062,8.674 0,8.7 0.215,8.788 0.468,8.648 0.544,8.434 0.569,8.319 0.582,8.207 0.569,8.08 0.531,7.625 0.493,7.157 0.48,6.702 0.443,6.196 0.43,5.689 0.417,5.197 0.392,4.717 0.392,4.249 0.379,3.756 0.354,3.401 0.367,3.048 0.354,2.692 0.354,2.415 0.329,2.137 0.329,1.858 0.329,1.567 0.341,1.29 0.354,0.999 0.367,0.885 0.367,0.771 0.304,0.658 0.278,0.606 0.278,0.531 0.253,0.468 0.24,0.379 0.24,0.304 0.19,0.228 0.152,0.151 0.126,0.062 0.126,-0.102 0.063,-0.05 0.013,-0.038 0,0"
         style="fill:#008446;fill-opacity:1;fill-rule:nonzero;stroke:none"
         id="path1244"
         inkscape:connector-curvature="0" />
    </g>
    <g
       id="g1246"
       transform="matrix(0.35277777,0,0,-0.35277777,394.00801,236.72382)">
      <path
         d="m 0,0 c -0.051,0.038 -0.089,0.09 -0.076,0.152 0,0.101 -0.013,0.215 0.089,0.303 C 0.215,0.354 0.367,0.417 0.493,0.62 0.721,0.948 0.936,1.266 1.125,1.619 1.227,1.783 1.315,1.96 1.404,2.138 1.644,2.593 1.821,3.073 2.023,3.554 2.188,3.945 2.314,4.351 2.44,4.756 2.604,5.35 2.769,5.943 2.858,6.551 2.896,6.791 2.921,7.031 2.87,7.284 2.858,7.424 2.807,7.461 2.655,7.41 2.478,7.348 2.327,7.246 2.175,7.133 1.922,6.955 1.682,6.74 1.454,6.525 L 0.544,5.69 C 0.354,5.526 0.164,5.388 -0.038,5.235 -0.215,5.097 -0.417,5.021 -0.62,4.97 -0.809,4.919 -1.062,5.008 -1.176,5.135 c -0.051,0.062 -0.076,0.126 -0.063,0.189 0.012,0.102 0.025,0.215 0.05,0.317 0.127,0.568 0.278,1.137 0.443,1.707 0.177,0.568 0.341,1.15 0.531,1.707 0.177,0.517 0.379,1.037 0.594,1.529 0.177,0.393 0.392,0.76 0.696,1.062 0.152,0.165 0.316,0.292 0.543,0.354 0.077,0.014 0.14,0.025 0.216,0 0.24,-0.075 0.442,-0.227 0.556,-0.455 0.076,-0.126 0.114,-0.277 0.101,-0.43 0,-0.088 0,-0.164 0.025,-0.24 l 0.038,-0.177 c 0,-0.038 0.025,-0.089 0,-0.114 C 2.453,10.419 2.478,10.218 2.377,10.054 L 2.339,10.028 c -0.05,0.026 -0.038,0.064 -0.038,0.101 -0.012,0.101 -0.012,0.216 -0.012,0.329 0,0.075 0.012,0.151 0,0.228 -0.026,0.265 -0.114,0.505 -0.228,0.746 -0.088,0.164 -0.202,0.176 -0.329,0.05 C 1.606,11.344 1.492,11.204 1.391,11.039 1.265,10.85 1.138,10.647 1.062,10.433 0.986,10.218 0.86,10.016 0.784,9.801 0.619,9.37 0.455,8.94 0.316,8.511 0.089,7.865 -0.076,7.195 -0.253,6.525 -0.316,6.335 -0.354,6.146 -0.405,5.943 c -0.012,-0.038 0,-0.076 0.013,-0.138 0.114,0.038 0.202,0.1 0.278,0.165 0.215,0.215 0.481,0.379 0.683,0.605 0.063,0.065 0.139,0.114 0.215,0.178 0.164,0.14 0.329,0.29 0.493,0.442 0.304,0.291 0.658,0.493 1.024,0.67 C 2.516,7.967 2.744,7.954 2.972,7.93 3.136,7.903 3.275,7.841 3.414,7.739 3.566,7.625 3.629,7.474 3.642,7.296 3.642,6.98 3.654,6.678 3.616,6.36 3.541,5.867 3.414,5.412 3.288,4.933 3.136,4.337 2.908,3.769 2.681,3.212 2.618,3.049 2.567,2.884 2.491,2.731 2.44,2.593 2.364,2.467 2.289,2.327 L 2.137,1.985 C 1.985,1.657 1.808,1.354 1.618,1.062 1.543,0.948 1.454,0.835 1.353,0.734 1.201,0.582 1.087,0.393 0.923,0.24 0.784,0.114 0.619,0.025 0.455,-0.038 0.304,-0.113 0.139,-0.089 0,0"
         style="fill:#008446;fill-opacity:1;fill-rule:nonzero;stroke:none"
         id="path1248"
         inkscape:connector-curvature="0" />
    </g>
    <g
       id="g1250"
       transform="matrix(0.35277777,0,0,-0.35277777,395.75194,236.71934)">
      <path
         d="M 0,0 C 0.228,0.215 0.43,0.443 0.62,0.684 0.986,1.125 1.315,1.581 1.631,2.062 1.934,2.491 2.2,2.935 2.491,3.376 2.668,3.643 2.82,3.92 2.971,4.211 3.199,4.628 3.452,5.045 3.667,5.488 l 0.266,0.594 c 0.139,0.355 0.278,0.709 0.392,1.075 0.151,0.544 0.24,1.1 0.113,1.682 C 4.362,9.219 4.236,9.585 4.021,9.914 3.92,10.065 3.844,10.23 3.705,10.356 3.604,10.458 3.49,10.56 3.376,10.66 L 3.262,10.762 C 3.224,10.786 3.199,10.813 3.174,10.85 3.123,10.938 3.098,11.027 3.136,11.115 3.174,11.179 3.325,11.229 3.427,11.179 3.528,11.141 3.629,11.09 3.718,11.027 4.046,10.773 4.312,10.458 4.539,10.104 4.666,9.89 4.805,9.687 4.906,9.446 5.045,9.104 5.134,8.75 5.159,8.385 5.197,7.941 5.146,7.512 5.02,7.095 4.944,6.841 4.881,6.575 4.792,6.323 4.666,5.943 4.489,5.577 4.299,5.21 3.958,4.54 3.579,3.87 3.161,3.237 2.921,2.846 2.656,2.479 2.39,2.1 2.213,1.834 2.023,1.556 1.821,1.304 1.644,1.062 1.467,0.834 1.265,0.62 1.1,0.443 0.923,0.267 0.708,0.14 0.67,0.114 0.632,0.063 0.594,0.038 0.544,0 0.493,-0.062 0.43,-0.076 0.24,-0.126 0.063,-0.215 -0.165,-0.215 -0.114,-0.101 -0.051,-0.05 0,0"
         style="fill:#008446;fill-opacity:1;fill-rule:nonzero;stroke:none"
         id="path1252"
         inkscape:connector-curvature="0" />
    </g>
    <g
       id="g1254"
       transform="matrix(0.35277777,0,0,-0.35277777,386.38882,243.84277)">
      <path
         d="m 0,0 c -0.062,0.151 -0.101,0.304 -0.126,0.455 -0.063,0.354 -0.113,0.695 -0.165,1.05 -0.024,0.253 -0.05,0.517 -0.063,0.77 L -0.468,3.756 C -0.479,4.009 -0.506,4.261 -0.53,4.514 -0.568,5.007 -0.594,5.501 -0.645,5.994 -0.657,6.221 -0.708,6.449 -0.733,6.677 -0.746,6.917 -0.821,7.132 -0.847,7.359 -0.885,7.6 -0.873,7.84 -0.873,8.08 c 0.052,0.127 0.09,0.266 0.165,0.366 0.164,0.202 0.367,0.367 0.633,0.455 C 0.329,9.041 0.76,9.13 1.201,9.092 1.619,9.065 2.011,8.939 2.365,8.7 2.479,8.61 2.555,8.498 2.63,8.396 2.795,8.143 2.846,7.865 2.795,7.574 2.706,7.056 2.529,6.55 2.302,6.069 2.138,5.703 1.936,5.374 1.669,5.058 1.366,4.679 0.986,4.375 0.531,4.173 0.493,4.16 0.455,4.147 0.404,4.122 0.393,4.109 0.379,4.109 0.354,4.084 0.329,3.844 0.367,3.604 0.393,3.364 0.417,2.972 0.443,2.58 0.48,2.175 0.48,2.086 0.493,1.998 0.493,1.91 0.506,1.758 0.506,1.593 0.519,1.44 0.531,1.252 0.557,1.05 0.569,0.859 0.595,0.645 0.62,0.43 0.633,0.215 0.646,0.126 0.62,0.024 0.607,-0.076 0.557,-0.102 0.506,-0.14 0.443,-0.164 0.267,-0.267 0.063,-0.19 0,0 m 0.379,4.83 c 0.152,0.102 0.305,0.215 0.418,0.366 0.089,0.128 0.178,0.241 0.265,0.355 0.039,0.051 0.077,0.1 0.089,0.164 0.063,0.241 0.203,0.443 0.29,0.671 0.153,0.379 0.318,0.746 0.38,1.15 0.05,0.24 0.076,0.481 0.013,0.734 C 1.795,8.422 1.721,8.498 1.58,8.548 1.201,8.662 0.822,8.637 0.455,8.51 0.316,8.459 0.202,8.396 0.088,8.308 -0.024,8.207 -0.101,8.093 -0.113,7.94 -0.113,7.865 -0.139,7.776 -0.151,7.687 -0.051,7.562 -0.013,7.41 0.025,7.246 0.088,6.993 0.114,6.727 0.14,6.474 L 0.253,5.398 C 0.267,5.21 0.278,5.033 0.304,4.83 Z"
         style="fill:#008446;fill-opacity:1;fill-rule:nonzero;stroke:none"
         id="path1256"
         inkscape:connector-curvature="0" />
    </g>
    <g
       id="g1258"
       transform="matrix(0.35277777,0,0,-0.35277777,387.93223,243.49482)">
      <path
         d="m 0,0 c -0.089,0.051 -0.14,0.101 -0.152,0.202 -0.013,0.113 -0.025,0.239 -0.025,0.354 0,0.329 0.012,0.658 0,0.987 0,0.303 -0.025,0.619 -0.038,0.923 l -0.076,1.201 c 0,0.076 -0.013,0.151 -0.05,0.215 -0.076,0.139 -0.102,0.291 -0.09,0.455 0.14,0.139 0.291,0.177 0.469,0.1 C 0.114,4.413 0.164,4.375 0.189,4.312 0.24,4.211 0.291,4.108 0.315,4.008 0.354,3.831 0.379,3.654 0.404,3.477 c 0,-0.063 0,-0.126 0.075,-0.164 0.027,0.013 0.052,0.038 0.065,0.063 0.062,0.076 0.114,0.164 0.15,0.253 0.178,0.367 0.431,0.696 0.71,0.999 C 1.505,4.755 1.644,4.83 1.77,4.919 1.783,4.931 1.795,4.931 1.808,4.931 1.922,4.981 2.049,4.957 2.099,4.881 2.148,4.817 2.137,4.69 2.074,4.615 1.884,4.362 1.758,4.084 1.605,3.818 1.543,3.691 1.467,3.578 1.404,3.452 1.087,2.845 0.885,2.2 0.759,1.517 0.683,1.113 0.683,0.708 0.632,0.303 0.619,0.189 0.594,0.088 0.531,0.013 0.493,-0.038 0.442,-0.076 0.367,-0.063 0.24,-0.063 0.126,-0.063 0,0"
         style="fill:#008446;fill-opacity:1;fill-rule:nonzero;stroke:none"
         id="path1260"
         inkscape:connector-curvature="0" />
    </g>
    <g
       id="g1262"
       transform="matrix(0.35277777,0,0,-0.35277777,389.2972,244.34678)">
      <path
         d="m 0,0 c -0.229,0.101 -0.381,0.266 -0.507,0.468 -0.215,0.341 -0.303,0.72 -0.366,1.099 -0.025,0.126 -0.037,0.253 -0.051,0.379 -0.062,0.493 -0.075,0.988 -0.051,1.481 0,0.391 0.027,0.796 0.051,1.188 0.026,0.342 0.076,0.683 0.126,1.024 l 0.076,0.57 c 0.127,0.809 0.305,1.593 0.506,2.377 0.114,0.442 0.254,0.885 0.431,1.314 0.113,0.304 0.253,0.595 0.43,0.861 0.038,0.076 0.063,0.152 0.114,0.227 0.15,0.252 0.379,0.443 0.632,0.608 0.126,0.075 0.253,0.062 0.379,0.025 C 1.896,11.583 1.96,11.354 1.834,11.278 1.669,11.165 1.593,11.001 1.491,10.849 1.214,10.457 1.023,10.015 0.859,9.585 0.656,9.079 0.479,8.561 0.354,8.029 0.201,7.396 0.088,6.752 -0.025,6.106 L -0.14,5.425 C -0.152,5.323 -0.164,5.21 -0.164,5.096 -0.178,5.045 -0.178,4.995 -0.178,4.943 -0.216,4.704 -0.24,4.476 -0.267,4.249 -0.316,3.793 -0.316,3.338 -0.305,2.883 -0.305,2.516 -0.291,2.137 -0.267,1.77 -0.24,1.491 -0.202,1.214 -0.102,0.947 -0.038,0.797 -0.014,0.632 0.088,0.506 0.126,0.441 0.164,0.392 0.215,0.341 0.291,0.239 0.392,0.189 0.518,0.177 0.568,0.177 0.619,0.164 0.67,0.151 0.683,0.151 0.683,0.139 0.694,0.126 0.656,0.038 0.582,0 0.492,-0.025 0.328,-0.089 0.164,-0.076 0,0"
         style="fill:#008446;fill-opacity:1;fill-rule:nonzero;stroke:none"
         id="path1264"
         inkscape:connector-curvature="0" />
    </g>
    <g
       id="g1266"
       transform="matrix(0.35277777,0,0,-0.35277777,390.88505,243.97679)">
      <path
         d="M 0,0 C -0.19,0.051 -0.329,0.19 -0.469,0.329 -0.493,0.354 -0.52,0.405 -0.531,0.443 -0.607,0.62 -0.646,0.797 -0.658,0.986 -0.695,1.43 -0.684,1.871 -0.684,2.314 c 0,0.077 0.014,0.153 -0.038,0.228 -0.049,0 -0.1,0.013 -0.164,0.013 -0.176,0.012 -0.342,0.062 -0.48,0.203 -0.05,0.062 -0.05,0.138 -0.101,0.201 0.063,0.102 0.164,0.164 0.266,0.228 0.139,0.088 0.278,0.177 0.43,0.265 0.076,0.038 0.113,0.102 0.125,0.191 0,0.062 0.014,0.112 0.014,0.176 0.012,0.29 0.037,0.581 0.05,0.872 0.013,0.304 0.038,0.608 0.051,0.898 0.011,0.329 0.038,0.645 0.051,0.962 0.011,0.113 0.025,0.227 -0.051,0.328 -0.026,0.025 -0.026,0.076 -0.038,0.126 0,0 0,0.014 0.012,0.014 0.126,0.126 0.152,0.277 0.164,0.455 0,0.265 0.026,0.53 0.039,0.808 0.013,0.191 0,0.38 0,0.582 0.013,0.127 0.025,0.266 0.049,0.393 0.014,0.1 0.076,0.127 0.165,0.1 0.051,0 0.088,-0.011 0.14,-0.011 C 0.164,9.319 0.253,9.205 0.291,9.055 0.315,8.852 0.354,8.662 0.329,8.473 0.315,8.32 0.304,8.169 0.341,8.029 0.43,8.018 0.468,8.068 0.506,8.105 c 0.164,0.14 0.329,0.279 0.506,0.418 0.354,0.291 0.708,0.57 1.112,0.796 0.544,0.304 1.088,0.62 1.707,0.759 0.038,0 0.064,0.014 0.089,0.014 0.013,0 0.013,-0.014 0.038,-0.027 C 3.906,10.016 3.882,9.964 3.831,9.927 3.768,9.876 3.691,9.851 3.691,9.763 3.691,9.749 3.68,9.737 3.667,9.725 3.527,9.636 3.4,9.534 3.262,9.446 3.198,9.408 3.136,9.384 3.11,9.294 3.098,9.257 3.06,9.219 3.021,9.205 2.769,9.055 2.566,8.852 2.352,8.662 2.251,8.573 2.137,8.485 2.022,8.396 1.82,8.207 1.593,8.029 1.391,7.827 1.087,7.536 0.797,7.233 0.493,6.931 L 0.379,6.816 C 0.315,6.74 0.291,6.651 0.277,6.551 0.253,5.88 0.202,5.21 0.164,4.527 0.164,4.413 0.151,4.3 0.151,4.174 0.151,4.136 0.177,4.084 0.189,4.06 0.239,4.021 0.277,4.046 0.315,4.072 0.859,4.287 1.416,4.489 1.973,4.642 2.301,4.729 2.618,4.818 2.934,4.957 3.06,5.008 3.186,5.033 3.313,5.083 3.616,5.197 3.906,5.323 4.211,5.45 4.261,5.412 4.249,5.361 4.235,5.299 4.185,5.135 4.097,4.995 3.944,4.906 3.906,4.882 3.882,4.856 3.856,4.83 3.794,4.742 3.691,4.704 3.604,4.653 3.274,4.515 2.959,4.362 2.63,4.249 2.504,4.211 2.39,4.174 2.263,4.122 2.036,4.046 1.808,3.945 1.581,3.857 1.163,3.705 0.771,3.503 0.379,3.288 L 0.228,3.199 C 0.164,3.161 0.139,3.111 0.139,3.035 V 2.63 C 0.126,2.138 0.139,1.656 0.177,1.177 0.189,1.037 0.202,0.898 0.228,0.771 0.239,0.708 0.253,0.657 0.277,0.595 0.291,0.531 0.341,0.493 0.404,0.48 0.455,0.469 0.506,0.455 0.556,0.455 0.859,0.431 1.163,0.443 1.467,0.569 L 1.96,0.76 C 2.327,0.924 2.692,1.062 3.047,1.239 3.553,1.48 4.034,1.745 4.526,1.998 4.679,2.086 4.831,2.162 4.969,2.238 5.108,2.149 5.02,2.036 5.045,1.947 4.969,1.859 4.881,1.771 4.817,1.669 4.742,1.568 4.652,1.505 4.552,1.441 4.451,1.378 4.35,1.303 4.261,1.239 L 4.185,1.177 C 3.933,1.037 3.691,0.898 3.439,0.771 L 2.478,0.24 2.213,0.126 C 1.871,0 1.517,-0.126 1.15,-0.151 0.759,-0.189 0.379,-0.113 0,0"
         style="fill:#008446;fill-opacity:1;fill-rule:nonzero;stroke:none"
         id="path1268"
         inkscape:connector-curvature="0" />
    </g>
    <g
       id="g1270"
       transform="matrix(0.35277777,0,0,-0.35277777,393.08853,243.593)">
      <path
         d="M 0,0 C -0.038,0.038 -0.051,0.101 -0.063,0.152 -0.114,0.531 -0.19,0.91 -0.229,1.277 -0.291,1.859 -0.278,2.428 -0.316,3.009 v 0.355 c 0,0.809 -0.026,1.605 0.025,2.402 0.013,0.291 0.013,0.607 0.025,0.898 l 0.076,1.163 c 0.012,0.127 0,0.241 0.012,0.354 0.014,0.127 0.026,0.253 0.051,0.38 C -0.114,8.637 -0.063,8.674 0,8.7 0.215,8.788 0.468,8.649 0.544,8.434 0.568,8.32 0.581,8.207 0.568,8.08 0.53,7.625 0.492,7.157 0.479,6.702 0.442,6.196 0.43,5.69 0.417,5.197 0.392,4.717 0.392,4.249 0.379,3.756 0.354,3.402 0.366,3.048 0.354,2.693 0.354,2.415 0.328,2.137 0.328,1.859 0.328,1.568 0.341,1.29 0.354,0.999 0.366,0.885 0.366,0.771 0.304,0.658 0.277,0.607 0.277,0.531 0.253,0.468 0.239,0.379 0.239,0.304 0.189,0.228 0.151,0.152 0.126,0.062 0.126,-0.101 0.062,-0.05 0.013,-0.038 0,0"
         style="fill:#008446;fill-opacity:1;fill-rule:nonzero;stroke:none"
         id="path1272"
         inkscape:connector-curvature="0" />
    </g>
    <g
       id="g1274"
       transform="matrix(0.35277777,0,0,-0.35277777,394.12757,244.24447)">
      <path
         d="m 0,0 c -0.051,0.038 -0.089,0.089 -0.076,0.152 0,0.101 -0.013,0.215 0.089,0.303 C 0.215,0.354 0.367,0.417 0.493,0.62 0.721,0.948 0.937,1.266 1.125,1.619 1.228,1.783 1.315,1.96 1.404,2.138 1.645,2.593 1.821,3.073 2.023,3.554 2.188,3.945 2.314,4.351 2.44,4.755 2.605,5.35 2.77,5.943 2.858,6.551 2.896,6.79 2.921,7.031 2.87,7.284 2.858,7.423 2.807,7.461 2.655,7.41 2.479,7.348 2.327,7.246 2.175,7.133 1.922,6.955 1.682,6.74 1.454,6.525 L 0.544,5.69 C 0.354,5.526 0.164,5.388 -0.038,5.235 -0.215,5.097 -0.417,5.021 -0.62,4.97 -0.809,4.919 -1.062,5.008 -1.176,5.135 c -0.051,0.062 -0.076,0.126 -0.063,0.189 0.012,0.102 0.025,0.215 0.051,0.317 0.126,0.568 0.278,1.137 0.442,1.707 0.177,0.568 0.341,1.15 0.531,1.707 0.177,0.517 0.379,1.037 0.594,1.529 0.177,0.393 0.392,0.76 0.696,1.062 0.153,0.165 0.317,0.292 0.544,0.354 0.076,0.014 0.139,0.025 0.215,0 0.24,-0.075 0.442,-0.227 0.556,-0.455 0.076,-0.126 0.114,-0.277 0.101,-0.43 0,-0.088 0,-0.164 0.026,-0.24 l 0.037,-0.177 c 0,-0.038 0.025,-0.089 0,-0.114 C 2.453,10.419 2.479,10.218 2.377,10.054 L 2.339,10.028 c -0.05,0.026 -0.038,0.064 -0.038,0.101 -0.012,0.101 -0.012,0.216 -0.012,0.329 0,0.075 0.012,0.151 0,0.228 -0.026,0.265 -0.114,0.505 -0.227,0.746 -0.089,0.164 -0.203,0.176 -0.33,0.05 C 1.606,11.344 1.492,11.203 1.392,11.039 1.264,10.851 1.138,10.647 1.062,10.433 0.986,10.218 0.86,10.016 0.784,9.801 0.62,9.37 0.455,8.94 0.316,8.511 0.089,7.865 -0.076,7.195 -0.253,6.525 -0.315,6.335 -0.354,6.146 -0.405,5.943 c -0.012,-0.038 0,-0.076 0.013,-0.138 0.114,0.038 0.203,0.1 0.278,0.165 0.216,0.215 0.481,0.379 0.683,0.606 0.063,0.064 0.139,0.113 0.215,0.177 0.164,0.14 0.329,0.29 0.493,0.442 0.304,0.291 0.659,0.493 1.024,0.67 C 2.517,7.967 2.744,7.954 2.972,7.93 3.136,7.903 3.275,7.841 3.414,7.739 3.566,7.625 3.629,7.474 3.643,7.296 3.643,6.98 3.655,6.678 3.616,6.36 3.541,5.867 3.414,5.412 3.288,4.933 3.136,4.337 2.908,3.769 2.681,3.212 2.618,3.048 2.567,2.884 2.491,2.731 2.44,2.593 2.364,2.467 2.289,2.327 L 2.137,1.985 C 1.985,1.657 1.809,1.354 1.619,1.062 1.543,0.948 1.454,0.835 1.354,0.734 1.201,0.582 1.087,0.393 0.923,0.24 0.784,0.114 0.62,0.025 0.455,-0.038 0.304,-0.113 0.139,-0.089 0,0"
         style="fill:#008446;fill-opacity:1;fill-rule:nonzero;stroke:none"
         id="path1276"
         inkscape:connector-curvature="0" />
    </g>
    <g
       id="g1278"
       transform="matrix(0.35277777,0,0,-0.35277777,395.87146,244.24)">
      <path
         d="M 0,0 C 0.229,0.215 0.431,0.443 0.619,0.684 0.986,1.125 1.315,1.581 1.631,2.062 1.936,2.491 2.2,2.935 2.491,3.376 2.668,3.643 2.82,3.92 2.972,4.211 3.199,4.628 3.452,5.045 3.667,5.488 L 3.934,6.082 C 4.072,6.437 4.211,6.79 4.324,7.157 4.477,7.701 4.565,8.257 4.438,8.839 4.362,9.218 4.236,9.585 4.021,9.914 3.92,10.065 3.845,10.23 3.705,10.356 3.604,10.458 3.49,10.56 3.376,10.66 l -0.113,0.102 c -0.038,0.024 -0.064,0.051 -0.089,0.089 -0.051,0.087 -0.075,0.176 -0.037,0.264 0.037,0.064 0.188,0.114 0.29,0.064 C 3.528,11.141 3.629,11.09 3.718,11.027 4.046,10.773 4.312,10.458 4.539,10.104 4.666,9.89 4.806,9.687 4.906,9.446 5.045,9.104 5.134,8.75 5.159,8.384 5.197,7.941 5.146,7.512 5.021,7.095 4.944,6.841 4.881,6.575 4.792,6.323 4.666,5.943 4.489,5.577 4.299,5.21 3.958,4.54 3.579,3.87 3.161,3.237 2.921,2.846 2.655,2.479 2.391,2.1 2.213,1.834 2.023,1.556 1.821,1.304 1.645,1.062 1.467,0.835 1.266,0.62 1.101,0.443 0.923,0.267 0.708,0.14 0.67,0.114 0.632,0.063 0.595,0.038 0.543,0 0.493,-0.062 0.431,-0.076 0.24,-0.126 0.063,-0.215 -0.165,-0.215 -0.113,-0.101 -0.051,-0.05 0,0"
         style="fill:#008446;fill-opacity:1;fill-rule:nonzero;stroke:none"
         id="path1280"
         inkscape:connector-curvature="0" />
    </g>
    <g
       id="g1282"
       transform="matrix(0.35277777,0,0,-0.35277777,394.0955,239.47093)">
      <path
         d="m 0,0 c -0.277,0 -1.049,0.062 -1.302,0.202 -0.026,0.013 -0.051,0.026 -0.076,0.051 -0.013,0.013 -0.013,0.038 -0.013,0.051 0.013,0.063 0.051,0.101 0.101,0.126 0.178,0.089 0.367,0.164 0.569,0.152 0.81,-0.026 2.137,-0.051 2.441,-0.051 0.733,0 1.961,-0.025 2.187,-0.025 h 1.037 c 0.19,0 0.354,-0.051 0.532,-0.089 C 5.501,0.405 5.514,0.392 5.526,0.38 5.551,0.354 5.564,0.291 5.551,0.266 5.526,0.228 5.488,0.189 5.463,0.177 L 5.21,0.101 C 4.906,0.038 3.958,0 2.63,-0.014 H 1.683 C 1.454,-0.014 0.734,-0.014 0,0"
         style="fill:#008446;fill-opacity:1;fill-rule:nonzero;stroke:none"
         id="path1284"
         inkscape:connector-curvature="0" />
    </g>
    <g
       id="g1286"
       transform="matrix(0.35277777,0,0,-0.35277777,385.41008,238.147)">
      <path
         d="m 0,0 9.262,0.165 9.261,0.124 c 3.088,0.035 6.175,0.144 9.262,0.082 C 30.874,0.316 33.961,0.228 37.049,0 v -0.082 c -3.088,-0.227 -6.175,-0.315 -9.264,-0.371 -3.087,-0.061 -6.174,0.046 -9.262,0.082 L 9.262,-0.247 0,-0.082 Z"
         style="fill:#008446;fill-opacity:1;fill-rule:nonzero;stroke:none"
         id="path1288"
         inkscape:connector-curvature="0" />
    </g>
    <g
       id="g1290"
       transform="matrix(0.35277777,0,0,-0.35277777,376.05339,251.11641)">
      <path
         d="m 0,0 c -0.051,0.038 -0.089,0.089 -0.076,0.151 0,0.102 -0.013,0.216 0.089,0.304 C 0.215,0.354 0.367,0.417 0.493,0.62 0.721,0.948 0.936,1.265 1.125,1.619 1.227,1.783 1.315,1.96 1.404,2.137 1.644,2.592 1.821,3.073 2.023,3.553 2.188,3.945 2.314,4.35 2.44,4.755 2.605,5.349 2.769,5.942 2.858,6.55 2.896,6.791 2.921,7.031 2.87,7.284 2.858,7.423 2.807,7.461 2.655,7.41 2.478,7.347 2.327,7.246 2.175,7.132 1.922,6.955 1.682,6.74 1.454,6.524 L 0.544,5.689 C 0.354,5.525 0.164,5.387 -0.038,5.234 -0.215,5.096 -0.417,5.02 -0.62,4.97 -0.809,4.919 -1.062,5.007 -1.176,5.134 c -0.051,0.063 -0.076,0.126 -0.063,0.19 0.012,0.101 0.025,0.215 0.05,0.316 0.127,0.569 0.278,1.138 0.443,1.707 0.177,0.569 0.341,1.151 0.531,1.707 0.177,0.518 0.379,1.037 0.594,1.53 0.177,0.392 0.392,0.759 0.696,1.062 0.152,0.164 0.316,0.291 0.544,0.354 0.075,0.013 0.139,0.024 0.214,0 0.241,-0.076 0.443,-0.228 0.557,-0.455 0.076,-0.126 0.114,-0.278 0.101,-0.43 0,-0.089 0,-0.164 0.025,-0.24 l 0.038,-0.177 c 0,-0.038 0.025,-0.09 0,-0.114 C 2.453,10.419 2.478,10.217 2.377,10.053 L 2.339,10.028 c -0.05,0.025 -0.038,0.063 -0.038,0.101 -0.012,0.1 -0.012,0.215 -0.012,0.329 0,0.075 0.012,0.15 0,0.227 C 2.263,10.951 2.175,11.19 2.061,11.431 1.973,11.595 1.859,11.607 1.732,11.481 1.606,11.343 1.492,11.203 1.391,11.039 1.264,10.849 1.138,10.646 1.062,10.432 0.986,10.217 0.86,10.015 0.784,9.8 0.619,9.37 0.455,8.939 0.316,8.51 0.089,7.865 -0.076,7.195 -0.253,6.524 -0.316,6.335 -0.354,6.146 -0.405,5.942 c -0.012,-0.037 0,-0.075 0.013,-0.138 0.114,0.038 0.202,0.101 0.278,0.165 0.215,0.215 0.481,0.379 0.683,0.607 0.063,0.063 0.139,0.112 0.215,0.177 0.164,0.139 0.329,0.29 0.493,0.442 0.304,0.29 0.658,0.492 1.024,0.67 C 2.516,7.966 2.744,7.954 2.972,7.929 3.136,7.903 3.275,7.84 3.414,7.739 3.566,7.625 3.629,7.473 3.642,7.296 3.642,6.979 3.654,6.677 3.616,6.359 3.541,5.867 3.414,5.412 3.288,4.932 3.136,4.337 2.908,3.768 2.681,3.212 2.618,3.048 2.567,2.883 2.491,2.73 2.44,2.592 2.364,2.466 2.289,2.327 L 2.137,1.984 C 1.985,1.656 1.808,1.353 1.619,1.062 1.543,0.948 1.454,0.835 1.353,0.733 1.201,0.582 1.087,0.392 0.923,0.24 0.784,0.114 0.619,0.024 0.455,-0.038 0.304,-0.114 0.139,-0.089 0,0"
         style="fill:#008446;fill-opacity:1;fill-rule:nonzero;stroke:none"
         id="path1292"
         inkscape:connector-curvature="0" />
    </g>
    <g
       id="g1294"
       transform="matrix(0.35277777,0,0,-0.35277777,377.77939,249.80933)">
      <path
         d="m 0,0 -0.114,0.266 c -0.012,0.049 0.025,0.138 0.089,0.151 L 0.063,0.455 C 0.341,0.479 0.62,0.568 0.898,0.632 1.517,0.771 2.125,0.923 2.744,1.05 3.225,1.15 3.705,1.201 4.198,1.201 4.552,1.176 4.906,1.163 5.26,1.088 5.298,1.075 5.349,1.075 5.387,1.062 5.475,1.037 5.526,0.985 5.526,0.948 5.513,0.873 5.463,0.835 5.412,0.809 5.26,0.733 5.109,0.67 4.932,0.658 4.793,0.645 4.653,0.645 4.514,0.632 4.375,0.632 4.224,0.62 4.085,0.594 3.705,0.53 3.338,0.442 2.959,0.38 2.491,0.277 2.036,0.151 1.581,0.038 1.214,-0.063 0.86,-0.152 0.493,-0.189 0.443,-0.189 0.392,-0.202 0.329,-0.202 0.19,-0.202 0.063,-0.14 0,0 M 0.506,1.605 C 0.48,1.619 0.455,1.631 0.43,1.657 0.354,1.745 0.291,1.834 0.253,1.946 0.24,1.984 0.278,2.074 0.316,2.086 l 0.089,0.039 c 0.404,0.1 0.822,0.188 1.239,0.252 0.607,0.076 1.214,0.139 1.833,0.189 0.203,0.014 0.418,0.038 0.633,0.052 0.177,0 0.354,0 0.531,-0.064 C 4.717,2.542 4.78,2.516 4.843,2.479 4.894,2.453 4.932,2.415 4.957,2.377 5.007,2.313 4.995,2.213 4.919,2.175 4.868,2.149 4.805,2.125 4.742,2.111 4.641,2.086 4.539,2.074 4.439,2.074 3.882,2.022 3.338,1.935 2.795,1.871 2.605,1.846 2.415,1.82 2.225,1.808 1.96,1.77 1.707,1.72 1.442,1.669 L 0.784,1.555 C 0.695,1.543 0.594,1.567 0.506,1.605"
         style="fill:#008446;fill-opacity:1;fill-rule:nonzero;stroke:none"
         id="path1296"
         inkscape:connector-curvature="0" />
    </g>
    <g
       id="g1298"
       transform="matrix(0.35277777,0,0,-0.35277777,380.01402,250.42048)">
      <path
         d="m 0,0 c -0.013,0 -0.025,0.013 -0.05,0.038 0.316,0.088 0.606,0.19 0.897,0.329 0.102,0.05 0.19,0.126 0.279,0.189 0.139,0.102 0.202,0.253 0.24,0.418 C 1.417,1.227 1.391,1.479 1.29,1.72 1.176,1.985 1.075,2.251 0.987,2.516 0.936,2.655 0.911,2.807 0.885,2.946 0.847,3.199 0.835,3.438 0.86,3.691 0.885,3.996 1.024,4.249 1.189,4.489 1.265,4.59 1.378,4.653 1.505,4.69 1.568,4.704 1.644,4.704 1.707,4.679 1.973,4.59 2.175,4.426 2.289,4.16 2.289,4.147 2.301,4.135 2.301,4.122 2.327,4.009 2.264,3.92 2.226,3.819 2.188,3.743 2.112,3.68 1.998,3.691 1.872,3.844 1.947,4.11 1.745,4.236 1.631,4.147 1.593,4.021 1.581,3.907 1.505,3.274 1.568,2.668 1.897,2.099 1.998,1.947 2.074,1.77 2.125,1.593 2.289,1.037 2.036,0.405 1.454,0.139 1.315,0.062 1.176,0 1.012,-0.013 0.999,-0.013 0.987,-0.025 0.961,-0.025 0.86,-0.063 0.759,-0.126 0.645,-0.102 0.43,-0.063 0.215,-0.076 0,0"
         style="fill:#008446;fill-opacity:1;fill-rule:nonzero;stroke:none"
         id="path1300"
         inkscape:connector-curvature="0" />
    </g>
    <g
       id="g1302"
       transform="matrix(0.35277777,0,0,-0.35277777,381.1826,250.0815)">
      <path
         d="M 0,0 C 0,0.126 0,0.253 0.025,0.379 0.089,0.771 0.152,1.176 0.228,1.568 0.291,1.909 0.367,2.251 0.455,2.592 0.544,2.959 0.645,3.325 0.784,3.667 0.86,3.857 0.961,4.034 1.062,4.198 1.189,4.426 1.581,4.552 1.834,4.477 2.086,4.4 2.238,4.249 2.301,3.983 2.415,3.996 2.504,3.996 2.592,4.008 2.845,4.021 3.06,3.869 3.136,3.629 3.136,3.591 3.149,3.553 3.149,3.516 3.199,3.187 3.237,2.87 3.212,2.529 3.187,2.276 3.161,2.01 3.149,1.758 3.111,1.302 3.073,0.847 3.047,0.393 3.035,0.354 3.035,0.303 3.022,0.278 2.959,0.177 2.959,0.063 2.946,-0.051 2.908,-0.076 2.87,-0.114 2.833,-0.152 2.706,-0.24 2.567,-0.228 2.479,-0.114 2.44,-0.062 2.415,0 2.39,0.063 2.365,0.126 2.352,0.177 2.339,0.24 2.327,0.556 2.314,0.872 2.314,1.176 c 0,0.291 0.013,0.569 0.013,0.86 L 2.314,2.086 C 2.264,2.112 2.251,2.086 2.238,2.062 2.162,1.897 2.099,1.732 2.036,1.555 1.973,1.378 1.909,1.189 1.834,1.011 1.707,0.695 1.568,0.379 1.429,0.063 1.34,-0.114 1.227,-0.278 1.075,-0.417 0.822,-0.658 0.531,-0.658 0.253,-0.48 0.089,-0.38 0,-0.202 0,0 M 0.986,1.011 C 1.113,1.328 1.252,1.631 1.378,1.947 1.505,2.276 1.631,2.63 1.77,2.971 1.871,3.237 1.897,3.566 1.796,3.907 1.745,3.869 1.72,3.857 1.695,3.831 1.644,3.743 1.593,3.667 1.555,3.578 1.429,3.225 1.315,2.87 1.227,2.504 1.113,2.023 1.012,1.543 0.923,1.062 0.91,1.024 0.91,0.999 0.91,0.91 0.961,0.975 0.974,0.986 0.986,1.011"
         style="fill:#008446;fill-opacity:1;fill-rule:nonzero;stroke:none"
         id="path1304"
         inkscape:connector-curvature="0" />
    </g>
    <g
       id="g1306"
       transform="matrix(0.35277777,0,0,-0.35277777,383.84551,249.92095)">
      <path
         d="m 0,0 c -0.089,0.19 -0.139,0.392 -0.165,0.607 -0.037,0.164 -0.063,0.342 -0.101,0.506 0,0.038 -0.025,0.075 -0.05,0.139 C -0.354,1.214 -0.38,1.188 -0.38,1.176 -0.43,1.024 -0.519,0.911 -0.607,0.784 -0.645,0.721 -0.695,0.696 -0.771,0.683 -0.999,0.658 -1.176,0.771 -1.315,0.936 c -0.063,0.088 -0.076,0.228 -0.076,0.341 0,0.215 0,0.443 -0.013,0.658 0,0.164 -0.013,0.329 -0.025,0.493 0,0.025 -0.013,0.051 -0.025,0.101 C -1.492,2.479 -1.517,2.466 -1.543,2.428 -1.72,2.099 -1.859,1.745 -1.973,1.378 L -2.2,0.645 C -2.238,0.493 -2.327,0.354 -2.428,0.215 -2.504,0.114 -2.605,0.089 -2.719,0.101 c -0.139,0.026 -0.253,0.101 -0.367,0.165 -0.025,0.012 -0.037,0.05 -0.05,0.075 -0.038,0.089 -0.051,0.19 -0.051,0.279 0.013,0.265 0.038,0.531 0.051,0.784 0.05,0.455 0.088,0.909 0.126,1.365 0.026,0.241 0.038,0.494 0.064,0.734 0,0.139 0.012,0.278 -0.038,0.404 -0.013,0.026 -0.013,0.064 -0.013,0.089 0,0.063 0.038,0.114 0.114,0.126 0.101,0.026 0.215,0.026 0.329,-0.012 0.063,-0.025 0.114,-0.064 0.151,-0.127 0.102,-0.139 0.152,-0.291 0.152,-0.455 V 3.06 c 0,-0.063 0.013,-0.126 0.013,-0.215 0.126,0.064 0.164,0.139 0.215,0.215 0.076,0.101 0.152,0.203 0.24,0.291 0.202,0.228 0.582,0.278 0.822,0.127 0.101,-0.051 0.152,-0.14 0.202,-0.228 0.089,-0.164 0.114,-0.341 0.127,-0.52 0.012,-0.1 0,-0.188 0.05,-0.289 0.051,0.012 0.076,0.012 0.114,0.025 0.139,0.076 0.291,0.076 0.443,0.05 0.063,0 0.139,-0.037 0.189,-0.088 C 0.291,2.313 0.379,2.175 0.417,2.011 0.455,1.783 0.48,1.568 0.506,1.341 0.518,1.075 0.518,0.822 0.468,0.556 c 0,-0.025 -0.013,-0.05 0,-0.088 C 0.48,0.266 0.417,0.089 0.291,-0.063 L 0.253,-0.164 C 0.114,-0.177 0.038,-0.101 0,0"
         style="fill:#008446;fill-opacity:1;fill-rule:nonzero;stroke:none"
         id="path1308"
         inkscape:connector-curvature="0" />
    </g>
    <g
       id="g1310"
       transform="matrix(0.35277777,0,0,-0.35277777,384.44752,250.22861)">
      <path
         d="m 0,0 c -0.139,0.177 -0.202,0.392 -0.165,0.632 0.114,0.582 0.266,1.163 0.456,1.732 L 0.354,2.542 C 0.506,2.997 0.67,3.452 0.936,3.869 1.062,4.034 1.176,4.211 1.315,4.375 1.429,4.514 1.593,4.614 1.77,4.679 2.048,4.755 2.453,4.666 2.63,4.312 2.655,4.287 2.668,4.249 2.668,4.211 2.693,3.944 2.681,3.68 2.592,3.414 2.415,2.857 2.086,2.402 1.656,2.01 1.505,1.871 1.328,1.77 1.113,1.77 0.986,1.77 0.923,1.707 0.885,1.593 0.797,1.276 0.695,0.961 0.632,0.645 0.62,0.506 0.582,0.379 0.632,0.239 c 0,-0.024 0.013,-0.05 0.025,-0.088 0.051,0 0.102,0 0.14,0.013 0.177,0.051 0.354,0.113 0.518,0.215 0.265,0.151 0.518,0.342 0.759,0.544 l 0.114,0.1 c 0.05,0.026 0.088,0.064 0.139,0.102 0.05,0.025 0.088,0.076 0.126,0.113 l 0.24,0.229 c 0.026,0.012 0.038,0.025 0.051,0.05 0.012,0 0.025,0.012 0.038,0.026 h 0.05 c 0,-0.014 0.013,-0.026 0.013,-0.038 0.013,-0.026 0.013,-0.051 0,-0.089 L 2.807,1.34 C 2.731,1.227 2.643,1.1 2.579,0.974 2.44,0.721 2.213,0.518 2.01,0.304 1.732,0.05 1.441,-0.305 1.049,-0.354 0.657,-0.405 0.253,-0.354 0,0 M 1.922,3.527 C 1.998,3.667 2.023,3.768 2.036,3.92 1.935,3.882 1.884,3.818 1.846,3.729 L 1.353,2.781 C 1.328,2.757 1.328,2.719 1.302,2.63 1.53,2.819 1.669,3.035 1.922,3.527"
         style="fill:#008446;fill-opacity:1;fill-rule:nonzero;stroke:none"
         id="path1312"
         inkscape:connector-curvature="0" />
    </g>
    <g
       id="g1314"
       transform="matrix(0.35277777,0,0,-0.35277777,387.16811,250.42048)">
      <path
         d="M 0,0 C -0.013,0 -0.024,0.013 -0.05,0.038 0.267,0.126 0.557,0.228 0.848,0.367 0.949,0.417 1.037,0.493 1.125,0.556 1.266,0.658 1.328,0.809 1.366,0.974 1.416,1.227 1.392,1.479 1.29,1.72 1.177,1.985 1.075,2.251 0.986,2.516 0.937,2.655 0.91,2.807 0.886,2.946 0.848,3.199 0.835,3.438 0.86,3.691 0.886,3.996 1.024,4.249 1.189,4.489 1.266,4.59 1.378,4.653 1.505,4.69 1.568,4.704 1.645,4.704 1.707,4.679 1.974,4.59 2.176,4.426 2.289,4.16 2.289,4.147 2.302,4.135 2.302,4.122 2.327,4.009 2.264,3.92 2.227,3.819 2.188,3.743 2.112,3.68 1.998,3.691 1.872,3.844 1.947,4.11 1.745,4.236 1.631,4.147 1.594,4.021 1.581,3.907 1.505,3.274 1.568,2.668 1.897,2.099 1.998,1.947 2.074,1.77 2.125,1.593 2.289,1.037 2.036,0.405 1.454,0.139 1.315,0.062 1.177,0 1.013,-0.013 0.999,-0.013 0.986,-0.025 0.961,-0.025 0.86,-0.063 0.76,-0.126 0.646,-0.102 0.431,-0.063 0.216,-0.076 0,0"
         style="fill:#008446;fill-opacity:1;fill-rule:nonzero;stroke:none"
         id="path1316"
         inkscape:connector-curvature="0" />
    </g>
    <g
       id="g1318"
       transform="matrix(0.35277777,0,0,-0.35277777,388.48863,250.38912)">
      <path
         d="m 0,0 c -0.152,0.113 -0.253,0.277 -0.316,0.454 -0.101,0.291 -0.127,0.582 -0.101,0.887 0.012,0.314 0.038,0.619 0.088,0.934 0.051,0.253 0.127,0.494 0.228,0.721 0.063,0.164 0.114,0.329 0.202,0.481 0.152,0.227 0.342,0.429 0.62,0.494 0.253,0.05 0.417,0.214 0.556,0.404 0.063,0.075 0.127,0.127 0.215,0.151 0.025,0 0.051,0.012 0.063,0.012 0.203,0.114 0.392,0.052 0.595,0 C 2.188,4.526 2.251,4.488 2.276,4.45 2.478,4.235 2.655,4.009 2.706,3.704 2.706,3.629 2.719,3.553 2.719,3.477 2.719,3.086 2.643,2.692 2.516,2.313 2.415,1.96 2.289,1.618 2.099,1.302 1.884,0.923 1.656,0.556 1.353,0.239 1.214,0.089 1.049,-0.025 0.86,-0.102 0.556,-0.202 0.266,-0.178 0,0 M 0.544,0.544 C 0.721,0.694 0.91,0.847 1.049,1.036 1.328,1.44 1.568,1.858 1.72,2.326 1.795,2.504 1.846,2.692 1.922,2.869 1.998,3.072 2.036,3.274 2.049,3.489 2.061,3.604 2.036,3.729 2.01,3.844 1.985,3.957 1.909,3.971 1.808,3.906 1.77,3.868 1.72,3.844 1.694,3.794 1.593,3.653 1.492,3.503 1.391,3.351 1.29,3.187 1.239,2.983 1.1,2.819 1.075,2.781 1.049,2.719 1.037,2.655 0.999,2.478 0.936,2.313 0.784,2.188 0.645,2.073 0.582,1.909 0.493,1.758 0.443,1.669 0.367,1.555 0.367,1.429 V 0.721 c 0,-0.076 0.012,-0.153 0.076,-0.215 0.025,0.012 0.063,0.012 0.101,0.038"
         style="fill:#008446;fill-opacity:1;fill-rule:nonzero;stroke:none"
         id="path1320"
         inkscape:connector-curvature="0" />
    </g>
    <g
       id="g1322"
       transform="matrix(0.35277777,0,0,-0.35277777,390.02755,250.0591)">
      <path
         d="m 0,0 c -0.126,0.228 -0.202,0.468 -0.267,0.732 -0.15,0.558 -0.239,1.139 -0.315,1.721 -0.025,0.266 -0.038,0.544 -0.051,0.821 0,0.115 0.026,0.241 0.051,0.355 0.013,0.062 0.062,0.1 0.139,0.113 0.152,0.026 0.341,-0.088 0.38,-0.239 C -0.026,3.313 0,3.136 0.024,2.946 0.051,2.794 0.088,2.643 0.126,2.49 0.189,2.175 0.265,1.846 0.341,1.529 0.417,1.214 0.492,0.885 0.582,0.568 c 0,-0.024 0.024,-0.049 0.05,-0.113 0.062,0.089 0.1,0.139 0.127,0.202 0.1,0.24 0.215,0.481 0.315,0.721 L 1.188,1.694 C 1.276,1.946 1.34,2.199 1.44,2.453 1.543,2.73 1.619,3.021 1.693,3.313 1.731,3.477 1.795,3.629 1.884,3.768 1.908,3.818 1.96,3.87 2.048,3.831 V 3.718 C 2.048,3.654 2.036,3.591 2.061,3.565 2.124,3.489 2.111,3.414 2.099,3.325 2.086,3.161 2.124,2.983 2.124,2.819 2.137,2.73 2.137,2.63 2.124,2.554 2.086,2.339 2.036,2.137 1.998,1.935 1.946,1.543 1.82,1.163 1.707,0.783 1.655,0.632 1.593,0.492 1.543,0.341 1.454,0.062 1.265,-0.126 1.049,-0.305 0.911,-0.417 0.746,-0.443 0.582,-0.417 0.329,-0.367 0.126,-0.24 0,0"
         style="fill:#008446;fill-opacity:1;fill-rule:nonzero;stroke:none"
         id="path1324"
         inkscape:connector-curvature="0" />
    </g>
    <g
       id="g1326"
       transform="matrix(0.35277777,0,0,-0.35277777,391.33428,250.36708)">
      <path
         d="m 0,0 c -0.089,0.051 -0.14,0.102 -0.152,0.202 -0.013,0.114 -0.025,0.24 -0.025,0.355 0,0.329 0.012,0.658 0,0.986 0,0.304 -0.025,0.619 -0.038,0.924 l -0.076,1.2 c 0,0.076 -0.014,0.152 -0.05,0.216 -0.076,0.138 -0.102,0.291 -0.09,0.455 0.14,0.139 0.291,0.177 0.469,0.1 C 0.114,4.413 0.164,4.375 0.189,4.312 0.24,4.211 0.291,4.109 0.315,4.009 0.354,3.831 0.379,3.654 0.405,3.478 0.405,3.414 0.405,3.352 0.48,3.313 0.506,3.325 0.531,3.352 0.544,3.376 0.606,3.452 0.658,3.54 0.694,3.63 0.872,3.996 1.125,4.325 1.403,4.628 1.505,4.756 1.644,4.83 1.77,4.919 1.783,4.932 1.795,4.932 1.808,4.932 1.922,4.982 2.049,4.957 2.099,4.882 2.149,4.818 2.137,4.691 2.074,4.615 1.884,4.362 1.758,4.084 1.605,3.819 1.543,3.692 1.467,3.579 1.403,3.452 1.087,2.846 0.885,2.2 0.759,1.518 0.683,1.113 0.683,0.708 0.632,0.304 0.62,0.19 0.594,0.089 0.531,0.014 0.493,-0.037 0.442,-0.075 0.367,-0.062 0.24,-0.062 0.126,-0.062 0,0"
         style="fill:#008446;fill-opacity:1;fill-rule:nonzero;stroke:none"
         id="path1328"
         inkscape:connector-curvature="0" />
    </g>
    <g
       id="g1330"
       transform="matrix(0.35277777,0,0,-0.35277777,392.50733,250.13936)">
      <path
         d="m 0,0 c -0.177,0.101 -0.278,0.265 -0.367,0.43 -0.064,0.126 -0.088,0.253 -0.064,0.391 0.027,0.089 0.027,0.178 0.027,0.267 0,0.088 0.011,0.164 0.037,0.24 0.062,0.253 0.101,0.492 0.138,0.745 0.014,0.013 0.014,0.026 0.014,0.038 0.101,0.228 0.152,0.468 0.19,0.708 0.038,0.202 0.139,0.379 0.214,0.57 0.051,0.152 0.126,0.302 0.19,0.455 0.127,0.24 0.304,0.455 0.557,0.569 0.252,0.113 0.531,0.165 0.795,0 C 1.858,4.35 1.91,4.261 1.896,4.173 1.871,4.097 1.783,4.046 1.631,4.046 1.567,4.046 1.53,4.021 1.505,3.982 1.378,3.831 1.252,3.68 1.176,3.503 0.936,2.945 0.721,2.364 0.568,1.77 0.506,1.529 0.442,1.29 0.43,1.049 0.417,0.897 0.379,0.759 0.392,0.606 0.392,0.556 0.405,0.493 0.405,0.442 L 0.455,0.354 C 0.506,0.366 0.544,0.366 0.582,0.379 0.809,0.506 1.049,0.606 1.252,0.784 1.467,0.961 1.682,1.138 1.896,1.302 1.922,1.328 1.96,1.353 1.998,1.378 2.061,1.353 2.049,1.302 2.022,1.265 1.973,1.163 1.896,1.062 1.896,0.936 1.796,0.771 1.707,0.606 1.605,0.43 1.581,0.392 1.543,0.354 1.505,0.304 1.429,0.177 1.302,0.101 1.163,0.038 1.075,0 0.974,-0.038 0.897,-0.089 0.721,-0.215 0.518,-0.202 0.315,-0.164 0.202,-0.126 0.101,-0.063 0,0"
         style="fill:#008446;fill-opacity:1;fill-rule:nonzero;stroke:none"
         id="path1332"
         inkscape:connector-curvature="0" />
    </g>
    <g
       id="g1334"
       transform="matrix(0.35277777,0,0,-0.35277777,393.60458,250.22861)">
      <path
         d="m 0,0 c -0.14,0.177 -0.202,0.392 -0.165,0.632 0.113,0.582 0.266,1.163 0.456,1.732 L 0.354,2.542 C 0.506,2.997 0.67,3.452 0.936,3.869 1.062,4.034 1.176,4.211 1.314,4.375 1.429,4.514 1.593,4.614 1.77,4.679 2.048,4.755 2.452,4.666 2.63,4.312 2.654,4.287 2.668,4.249 2.668,4.211 2.692,3.944 2.681,3.68 2.592,3.414 2.414,2.857 2.086,2.402 1.655,2.01 1.505,1.871 1.327,1.77 1.112,1.77 0.985,1.77 0.923,1.707 0.885,1.593 0.797,1.276 0.694,0.961 0.632,0.645 0.619,0.506 0.581,0.379 0.632,0.239 c 0,-0.024 0.013,-0.05 0.024,-0.088 0.052,0 0.103,0 0.141,0.013 0.177,0.051 0.353,0.113 0.517,0.215 0.265,0.151 0.519,0.342 0.759,0.544 l 0.115,0.1 C 2.237,1.049 2.275,1.087 2.326,1.125 2.377,1.15 2.414,1.201 2.452,1.238 l 0.24,0.229 c 0.027,0.012 0.038,0.025 0.051,0.05 0.013,0 0.026,0.012 0.038,0.026 h 0.05 c 0,-0.014 0.014,-0.026 0.014,-0.038 0.012,-0.026 0.012,-0.051 0,-0.089 L 2.807,1.34 C 2.73,1.227 2.643,1.1 2.579,0.974 2.439,0.721 2.213,0.518 2.01,0.304 1.731,0.05 1.44,-0.305 1.049,-0.354 0.656,-0.405 0.253,-0.354 0,0 M 1.922,3.527 C 1.997,3.667 2.022,3.768 2.035,3.92 1.935,3.882 1.884,3.818 1.846,3.729 L 1.353,2.781 C 1.327,2.757 1.327,2.719 1.302,2.63 1.529,2.819 1.669,3.035 1.922,3.527"
         style="fill:#008446;fill-opacity:1;fill-rule:nonzero;stroke:none"
         id="path1336"
         inkscape:connector-curvature="0" />
    </g>
  </g>
</svg>
