<?xml version="1.0" encoding="UTF-8" standalone="no"?>
<!-- Created with Inkscape (http://www.inkscape.org/) -->

<svg
   xmlns:dc="http://purl.org/dc/elements/1.1/"
   xmlns:cc="http://creativecommons.org/ns#"
   xmlns:rdf="http://www.w3.org/1999/02/22-rdf-syntax-ns#"
   xmlns:svg="http://www.w3.org/2000/svg"
   xmlns="http://www.w3.org/2000/svg"
   xmlns:sodipodi="http://sodipodi.sourceforge.net/DTD/sodipodi-0.dtd"
   xmlns:inkscape="http://www.inkscape.org/namespaces/inkscape"
   width="22.110542mm"
   height="22.110508mm"
   viewBox="0 0 22.110542 22.110508"
   version="1.1"
   id="svg4507"
   inkscape:version="0.92.3 (2405546, 2018-03-11)"
   sodipodi:docname="graph-green.svg">
  <defs
     id="defs4501" />
  <sodipodi:namedview
     id="base"
     pagecolor="#ffffff"
     bordercolor="#666666"
     borderopacity="1.0"
     inkscape:pageopacity="0.0"
     inkscape:pageshadow="2"
     inkscape:zoom="0.35"
     inkscape:cx="-683.93058"
     inkscape:cy="387.49791"
     inkscape:document-units="mm"
     inkscape:current-layer="layer1"
     showgrid="false"
     fit-margin-top="0"
     fit-margin-left="0"
     fit-margin-right="0"
     fit-margin-bottom="0"
     inkscape:window-width="1920"
     inkscape:window-height="1051"
     inkscape:window-x="1920"
     inkscape:window-y="0"
     inkscape:window-maximized="1" />
  <metadata
     id="metadata4504">
    <rdf:RDF>
      <cc:Work
         rdf:about="">
        <dc:format>image/svg+xml</dc:format>
        <dc:type
           rdf:resource="http://purl.org/dc/dcmitype/StillImage" />
        <dc:title></dc:title>
      </cc:Work>
    </rdf:RDF>
  </metadata>
  <g
     inkscape:label="Layer 1"
     inkscape:groupmode="layer"
     id="layer1"
     transform="translate(-167.34949,-229.24831)">
    <g
       id="g1338"
       transform="matrix(0.35277777,0,0,-0.35277777,167.82108,240.19832)">
      <path
         d="M 0,0 14.91,0.156 29.82,0.273 37.275,0.347 41.003,0.366 44.73,0.35 48.458,0.305 C 49.7,0.282 50.943,0.266 52.185,0.235 54.67,0.184 57.155,0.106 59.64,0 V -0.078 C 57.155,-0.184 54.67,-0.262 52.185,-0.312 50.943,-0.344 49.7,-0.359 48.458,-0.383 L 44.73,-0.428 41.003,-0.444 37.275,-0.424 29.82,-0.35 14.91,-0.234 0,-0.078 Z"
         style="fill:#008446;fill-opacity:1;fill-rule:nonzero;stroke:none"
         id="path1340"
         inkscape:connector-curvature="0" />
    </g>
    <g
       id="g1342"
       transform="matrix(0.35277777,0,0,-0.35277777,168.01486,239.81146)">
      <path
         d="m 0,0 c -0.353,-0.345 -0.718,-0.673 -1.076,-1.01 -0.094,-0.084 -0.18,-0.16 -0.236,-0.234 -0.06,-0.076 -0.072,-0.142 -0.057,-0.157 0.006,-0.012 0.011,-0.019 0.026,-0.035 0.015,-0.014 0.041,-0.037 0.076,-0.059 0.036,-0.024 0.078,-0.047 0.128,-0.072 l 0.162,-0.081 c 0.219,-0.11 0.445,-0.206 0.668,-0.306 0.223,-0.104 0.434,-0.224 0.632,-0.367 0.394,-0.29 0.772,-0.611 1.087,-1.045 L 1.372,-3.435 c -0.528,0.062 -0.994,0.237 -1.443,0.442 -0.223,0.103 -0.434,0.23 -0.633,0.377 -0.198,0.146 -0.394,0.297 -0.597,0.435 l -0.153,0.107 c -0.055,0.039 -0.114,0.083 -0.173,0.137 -0.06,0.054 -0.122,0.119 -0.173,0.207 -0.052,0.086 -0.088,0.2 -0.086,0.31 0,0.112 0.038,0.218 0.085,0.298 0.048,0.08 0.105,0.141 0.161,0.191 0.113,0.103 0.228,0.168 0.329,0.233 0.422,0.253 0.836,0.514 1.264,0.76 z"
         style="fill:#008446;fill-opacity:1;fill-rule:nonzero;stroke:none"
         id="path1344"
         inkscape:connector-curvature="0" />
    </g>
    <g
       id="g1346"
       transform="matrix(0.35277777,0,0,-0.35277777,188.44154,239.72944)">
      <path
         d="M 0,0 C 0.445,0.071 0.826,0.025 1.187,-0.057 1.546,-0.143 1.88,-0.274 2.191,-0.446 L 2.307,-0.513 2.365,-0.548 C 2.389,-0.562 2.421,-0.579 2.458,-0.606 2.532,-0.659 2.645,-0.738 2.753,-0.904 2.864,-1.068 2.909,-1.31 2.877,-1.479 2.85,-1.653 2.79,-1.759 2.741,-1.839 2.692,-1.917 2.638,-1.974 2.604,-2.006 2.534,-2.069 2.46,-2.128 2.384,-2.186 2.078,-2.416 1.742,-2.618 1.313,-2.725 l -0.06,0.05 0.311,0.433 0.32,0.426 c 0.097,0.14 0.244,0.287 0.261,0.417 0.026,0.117 -0.177,0.182 -0.328,0.27 l -0.93,0.525 -0.465,0.262 -0.459,0.274 z"
         style="fill:#008446;fill-opacity:1;fill-rule:nonzero;stroke:none"
         id="path1348"
         inkscape:connector-curvature="0" />
    </g>
    <g
       id="g1350"
       transform="matrix(0.35277777,0,0,-0.35277777,178.15429,250.88745)">
      <path
         d="m 0,0 -0.156,14.91 -0.117,14.91 -0.074,7.455 -0.019,3.728 0.016,3.727 0.045,3.728 c 0.023,1.242 0.039,2.485 0.07,3.728 0.051,2.484 0.129,4.969 0.235,7.455 H 0.078 C 0.184,57.155 0.262,54.67 0.313,52.186 0.344,50.943 0.36,49.7 0.383,48.458 L 0.428,44.73 0.444,41.003 0.424,37.275 0.35,29.82 0.234,14.91 0.078,0 Z"
         style="fill:#008446;fill-opacity:1;fill-rule:nonzero;stroke:none"
         id="path1352"
         inkscape:connector-curvature="0" />
    </g>
    <g
       id="g1354"
       transform="matrix(0.35277777,0,0,-0.35277777,177.76758,250.69345)">
      <path
         d="m 0,0 c 0.345,-0.354 0.672,-0.718 1.009,-1.076 0.085,-0.094 0.16,-0.18 0.235,-0.236 0.076,-0.06 0.141,-0.072 0.157,-0.057 0.012,0.006 0.018,0.011 0.034,0.026 0.015,0.015 0.037,0.042 0.06,0.075 0.023,0.037 0.047,0.079 0.072,0.128 l 0.081,0.162 c 0.109,0.22 0.206,0.446 0.306,0.668 0.103,0.224 0.223,0.435 0.367,0.633 0.29,0.395 0.61,0.772 1.045,1.088 L 3.434,1.372 C 3.373,0.845 3.198,0.378 2.993,-0.071 2.889,-0.294 2.762,-0.505 2.616,-0.704 2.469,-0.902 2.319,-1.099 2.18,-1.301 L 2.074,-1.454 C 2.035,-1.509 1.991,-1.568 1.937,-1.627 1.882,-1.687 1.818,-1.748 1.73,-1.8 1.643,-1.853 1.53,-1.888 1.419,-1.886 c -0.112,0 -0.217,0.037 -0.297,0.085 -0.08,0.048 -0.141,0.105 -0.192,0.16 -0.102,0.114 -0.168,0.229 -0.232,0.329 -0.253,0.422 -0.515,0.836 -0.76,1.265 z"
         style="fill:#008446;fill-opacity:1;fill-rule:nonzero;stroke:none"
         id="path1356"
         inkscape:connector-curvature="0" />
    </g>
    <g
       id="g1358"
       transform="matrix(0.35277777,0,0,-0.35277777,177.68541,230.26681)">
      <path
         d="M 0,0 C -0.071,0.445 -0.025,0.826 0.057,1.187 0.143,1.546 0.274,1.88 0.446,2.191 L 0.514,2.307 0.548,2.365 C 0.562,2.389 0.579,2.421 0.606,2.458 0.659,2.532 0.738,2.646 0.904,2.753 1.068,2.864 1.31,2.909 1.479,2.877 1.653,2.85 1.759,2.79 1.839,2.741 1.917,2.692 1.974,2.638 2.006,2.604 2.069,2.534 2.128,2.46 2.186,2.384 2.416,2.078 2.618,1.742 2.725,1.313 L 2.675,1.253 2.242,1.564 1.816,1.884 C 1.676,1.981 1.529,2.128 1.399,2.146 1.282,2.171 1.217,1.968 1.129,1.817 L 0.604,0.887 0.342,0.422 0.068,-0.037 Z"
         style="fill:#008446;fill-opacity:1;fill-rule:nonzero;stroke:none"
         id="path1360"
         inkscape:connector-curvature="0" />
    </g>
    <g
       id="g1362"
       transform="matrix(0.35277777,0,0,-0.35277777,173.20316,244.88952)">
      <path
         d="m 0,0 c -0.007,1.827 0.051,3.654 0.181,5.479 0.14,1.822 0.357,3.64 0.65,5.446 0.29,1.807 0.683,3.598 1.156,5.368 0.475,1.769 1.042,3.516 1.72,5.222 0.681,1.704 1.474,3.368 2.406,4.956 0.933,1.586 2.007,3.098 3.26,4.462 0.158,0.17 0.312,0.342 0.473,0.508 l 0.501,0.483 0.25,0.242 c 0.084,0.081 0.176,0.152 0.263,0.23 l 0.531,0.451 c 0.175,0.153 0.37,0.281 0.554,0.424 l 0.281,0.208 0.14,0.104 0.147,0.095 c 0.395,0.249 0.781,0.513 1.201,0.722 l 0.309,0.166 c 0.103,0.056 0.206,0.111 0.315,0.155 l 0.645,0.282 0.162,0.07 0.166,0.057 0.334,0.114 c 0.224,0.071 0.443,0.162 0.674,0.208 l 0.687,0.167 c 0.23,0.052 0.466,0.074 0.699,0.112 l 0.35,0.052 c 0.117,0.015 0.235,0.015 0.353,0.023 l 0.708,0.037 0.708,-0.028 c 0.118,-0.006 0.237,-0.004 0.354,-0.018 L 20.53,35.75 c 0.233,-0.035 0.47,-0.055 0.701,-0.103 l 0.691,-0.159 c 0.233,-0.043 0.453,-0.131 0.679,-0.2 l 0.337,-0.11 0.168,-0.055 0.163,-0.068 0.652,-0.275 c 0.11,-0.042 0.214,-0.097 0.319,-0.152 l 0.313,-0.162 c 0.425,-0.205 0.817,-0.464 1.218,-0.709 l 0.149,-0.094 0.143,-0.101 0.285,-0.207 c 0.188,-0.14 0.387,-0.267 0.565,-0.417 l 0.541,-0.448 c 0.089,-0.076 0.183,-0.147 0.268,-0.227 l 0.256,-0.239 0.511,-0.479 c 0.165,-0.165 0.323,-0.337 0.485,-0.505 1.276,-1.361 2.378,-2.87 3.329,-4.46 0.943,-1.596 1.745,-3.267 2.436,-4.977 1.354,-3.435 2.288,-7.017 2.842,-10.647 0.273,-1.815 0.471,-3.639 0.588,-5.468 0.09,-1.83 0.125,-3.661 0.063,-5.488 h -0.093 c -0.141,3.648 -0.502,7.279 -1.192,10.846 -0.343,1.784 -0.763,3.55 -1.272,5.289 -0.505,1.739 -1.093,3.452 -1.791,5.118 -0.686,1.67 -1.48,3.295 -2.405,4.837 -0.919,1.544 -1.962,3.015 -3.174,4.328 -1.203,1.314 -2.572,2.492 -4.136,3.325 L 23.877,33.9 c -0.097,0.054 -0.194,0.106 -0.296,0.147 l -0.607,0.266 -0.151,0.067 -0.156,0.053 -0.313,0.107 c -0.21,0.067 -0.414,0.153 -0.631,0.196 l -0.641,0.158 c -0.215,0.048 -0.434,0.068 -0.651,0.104 l -0.327,0.049 c -0.109,0.015 -0.219,0.015 -0.329,0.022 l -0.659,0.036 -0.66,-0.027 c -0.11,-0.006 -0.221,-0.004 -0.33,-0.016 L 17.799,35.017 C 17.581,34.983 17.36,34.966 17.144,34.92 l -0.645,-0.148 c -0.218,-0.04 -0.424,-0.124 -0.636,-0.188 L 15.548,34.481 15.39,34.43 15.237,34.365 14.624,34.107 c -0.104,-0.04 -0.202,-0.092 -0.301,-0.144 l -0.296,-0.154 c -0.401,-0.192 -0.773,-0.441 -1.153,-0.674 l -0.142,-0.089 -0.135,-0.098 -0.272,-0.196 c -0.179,-0.135 -0.368,-0.255 -0.538,-0.4 l -0.517,-0.43 c -0.085,-0.073 -0.175,-0.14 -0.257,-0.217 l -0.245,-0.231 -0.49,-0.462 C 10.119,30.854 9.967,30.687 9.812,30.524 8.577,29.215 7.506,27.747 6.569,26.199 5.632,24.649 4.829,23.017 4.134,21.34 3.435,19.664 2.844,17.942 2.342,16.194 1.843,14.445 1.422,12.671 1.104,10.878 0.782,9.085 0.535,7.278 0.364,5.463 0.205,3.647 0.116,1.824 0.092,0 Z"
         style="fill:#008446;fill-opacity:1;fill-rule:nonzero;stroke:none"
         id="path1364"
         inkscape:connector-curvature="0" />
    </g>
  </g>
</svg>
