<?xml version="1.0" encoding="UTF-8" standalone="no"?>
<!-- Created with Inkscape (http://www.inkscape.org/) -->

<svg
   xmlns:dc="http://purl.org/dc/elements/1.1/"
   xmlns:cc="http://creativecommons.org/ns#"
   xmlns:rdf="http://www.w3.org/1999/02/22-rdf-syntax-ns#"
   xmlns:svg="http://www.w3.org/2000/svg"
   xmlns="http://www.w3.org/2000/svg"
   xmlns:sodipodi="http://sodipodi.sourceforge.net/DTD/sodipodi-0.dtd"
   xmlns:inkscape="http://www.inkscape.org/namespaces/inkscape"
   sodipodi:docname="graph-slide-bkgd.svg"
   inkscape:version="0.92.3 (2405546, 2018-03-11)"
   id="svg8"
   version="1.1"
   viewBox="0 0 240.24167 180.18125"
   height="681"
   width="908"
   enable-background="new">
  <defs
     id="defs2">
    <clipPath
       clipPathUnits="userSpaceOnUse"
       id="clipPath726">
      <path
         d="m 198,630 h 191.519 v 88.56 H 198 Z"
         id="path724"
         inkscape:connector-curvature="0" />
    </clipPath>
    <clipPath
       clipPathUnits="userSpaceOnUse"
       id="clipPath926">
      <path
         d="m 198.017,635.908 h 191.502 v 76.747 H 198.017 Z"
         id="path924"
         inkscape:connector-curvature="0" />
    </clipPath>
    <clipPath
       clipPathUnits="userSpaceOnUse"
       id="clipPath938">
      <path
         d="m 198,630 h 191.519 v 88.56 H 198 Z"
         id="path936"
         inkscape:connector-curvature="0" />
    </clipPath>
    <clipPath
       clipPathUnits="userSpaceOnUse"
       id="clipPath994">
      <path
         d="m 198.017,635.908 h 191.502 v 76.747 H 198.017 Z"
         id="path992"
         inkscape:connector-curvature="0" />
    </clipPath>
    <clipPath
       clipPathUnits="userSpaceOnUse"
       id="clipPath1022">
      <path
         d="m 198,630 h 191.519 v 88.56 H 198 Z"
         id="path1020"
         inkscape:connector-curvature="0" />
    </clipPath>
    <clipPath
       clipPathUnits="userSpaceOnUse"
       id="clipPath1038">
      <path
         d="m 198.017,635.908 h 191.502 v 76.747 H 198.017 Z"
         id="path1036"
         inkscape:connector-curvature="0" />
    </clipPath>
    <clipPath
       clipPathUnits="userSpaceOnUse"
       id="clipPath1054">
      <path
         d="m 198,630 h 191.519 v 88.56 H 198 Z"
         id="path1052"
         inkscape:connector-curvature="0" />
    </clipPath>
    <clipPath
       clipPathUnits="userSpaceOnUse"
       id="clipPath1414">
      <path
         d="M 0,792 H 612 V 0 H 0 Z"
         id="path1412"
         inkscape:connector-curvature="0" />
    </clipPath>
    <clipPath
       clipPathUnits="userSpaceOnUse"
       id="clipPath7878">
      <g
         id="use7880"
         inkscape:label="Clip">
        <rect
           style="opacity:1;fill:#003a70;fill-opacity:1;stroke:#000000;stroke-width:0.16955528;stroke-linecap:round;stroke-linejoin:bevel;stroke-miterlimit:4;stroke-dasharray:none;stroke-dashoffset:0;stroke-opacity:1"
           id="rect7882"
           width="125.67709"
           height="185.15831"
           x="119.0625"
           y="111.79151" />
      </g>
    </clipPath>
    <filter
       inkscape:collect="always"
       style="color-interpolation-filters:sRGB"
       id="filter12141">
      <feBlend
         inkscape:collect="always"
         mode="multiply"
         in2="BackgroundImage"
         id="feBlend12143" />
    </filter>
  </defs>
  <sodipodi:namedview
     inkscape:lockguides="false"
     showguides="true"
     inkscape:window-maximized="1"
     inkscape:window-y="0"
     inkscape:window-x="1920"
     inkscape:window-height="1051"
     inkscape:window-width="1920"
     fit-margin-bottom="0"
     fit-margin-right="0"
     fit-margin-left="0"
     fit-margin-top="0"
     inkscape:pagecheckerboard="false"
     units="px"
     showgrid="true"
     inkscape:current-layer="layer4"
     inkscape:document-units="mm"
     inkscape:cy="-24.50499"
     inkscape:cx="1153.3777"
     inkscape:zoom="0.5579885"
     inkscape:pageshadow="2"
     inkscape:pageopacity="0.0"
     borderopacity="1.0"
     bordercolor="#666666"
     pagecolor="#ffffff"
     id="base"
     inkscape:guide-bbox="true">
    <inkscape:grid
       type="xygrid"
       id="grid10"
       units="px"
       spacingx="1.3229167"
       spacingy="1.3229167" />
    <sodipodi:guide
       position="0,0"
       orientation="0,908"
       id="guide7896"
       inkscape:locked="false" />
    <sodipodi:guide
       position="240.24167,0"
       orientation="-681,0"
       id="guide7898"
       inkscape:locked="false" />
    <sodipodi:guide
       position="240.24167,180.18125"
       orientation="0,-908"
       id="guide7900"
       inkscape:locked="false" />
    <sodipodi:guide
       position="0,180.18125"
       orientation="681,0"
       id="guide7902"
       inkscape:locked="false" />
    <sodipodi:guide
       position="119.7288,306.31605"
       orientation="1,0"
       id="guide12115"
       inkscape:locked="false" />
  </sodipodi:namedview>
  <metadata
     id="metadata5">
    <rdf:RDF>
      <cc:Work
         rdf:about="">
        <dc:format>image/svg+xml</dc:format>
        <dc:type
           rdf:resource="http://purl.org/dc/dcmitype/StillImage" />
        <dc:title></dc:title>
      </cc:Work>
    </rdf:RDF>
  </metadata>
  <g
     inkscape:label="Layer 1"
     inkscape:groupmode="layer"
     id="layer1"
     transform="translate(0,-116.8186)">
    <g
       id="g932"
       transform="matrix(0.35277777,0,0,-0.35277777,-63.716038,518.33459)">
      <g
         id="g934"
         clip-path="url(#clipPath938)">
        <g
           id="g940"
           transform="translate(243.6299,662.2754)">
          <path
             d="M 0,0 C 6.156,10.478 4.684,22.767 -3.287,27.451 -4.068,27.909 -4.882,28.276 -5.72,28.558 -3.625,28.43 -1.606,27.85 0.227,26.773 8.197,22.09 8.872,9.857 2.716,-0.621 -2.836,-10.074 -11.902,-14.877 -19.631,-12.277 -12.619,-12.707 -4.74,-8.068 0,0"
             style="fill:#d0202e;fill-opacity:1;fill-rule:nonzero;stroke:none"
             id="path942"
             inkscape:connector-curvature="0" />
        </g>
        <g
           id="g944"
           transform="translate(240.5112,663.9106)">
          <path
             d="m 0,0 c 6.214,7.727 6.486,17.822 0.608,22.549 -0.576,0.463 -1.19,0.856 -1.833,1.183 1.676,-0.353 3.236,-1.06 4.589,-2.148 C 9.241,16.858 8.969,6.762 2.755,-0.965 -2.85,-7.935 -11.375,-10.595 -17.305,-7.579 -11.696,-8.759 -4.784,-5.95 0,0"
             style="fill:#27aae1;fill-opacity:1;fill-rule:nonzero;stroke:none"
             id="path946"
             inkscape:connector-curvature="0" />
        </g>
        <g
           id="g948"
           transform="translate(221.4404,680.5527)">
          <path
             d="m 0,0 c -5.509,-8.553 -4.417,-19.641 2.438,-24.766 0.671,-0.501 1.372,-0.926 2.096,-1.278 -1.818,0.369 -3.563,1.128 -5.139,2.306 C -7.46,-18.613 -8.551,-7.526 -3.043,1.028 1.927,8.744 10.568,11.76 17.245,8.514 11.159,9.747 4.241,6.586 0,0"
             style="fill:#d7df23;fill-opacity:1;fill-rule:nonzero;stroke:none"
             id="path950"
             inkscape:connector-curvature="0" />
        </g>
        <g
           id="g952"
           transform="translate(219.27,681.4561)">
          <path
             d="m 0,0 c -6.627,-10.288 -5.313,-23.626 2.933,-29.79 0.806,-0.603 1.65,-1.114 2.521,-1.537 -2.187,0.443 -4.286,1.356 -6.182,2.774 -8.245,6.163 -8.761,19.444 -2.135,29.733 5.978,9.281 17.265,12.232 23.606,9.062 C 13.422,11.724 5.101,7.922 0,0"
             style="fill:#ec008c;fill-opacity:1;fill-rule:nonzero;stroke:none"
             id="path954"
             inkscape:connector-curvature="0" />
        </g>
        <g
           id="g956"
           transform="translate(225.1523,678.9404)">
          <path
             d="M 0,0 C 4.335,6.249 11.537,8.756 16.088,5.599 16.533,5.29 16.936,4.938 17.298,4.549 16.716,5.677 15.901,6.64 14.854,7.366 10.304,10.522 3.101,8.016 -1.233,1.767 -5.144,-3.87 -5.383,-10.626 -2.052,-14.213 -4,-10.438 -3.337,-4.812 0,0"
             style="fill:#6ba2b8;fill-opacity:1;fill-rule:nonzero;stroke:none"
             id="path958"
             inkscape:connector-curvature="0" />
        </g>
        <g
           id="g960"
           transform="translate(237.8433,669.4189)">
          <path
             d="m 0,0 c -4.335,-6.249 -11.538,-8.755 -16.088,-5.6 -0.445,0.31 -0.848,0.662 -1.21,1.052 0.582,-1.128 1.396,-2.091 2.444,-2.818 4.55,-3.156 11.753,-0.649 16.088,5.6 3.91,5.637 4.149,12.394 0.817,15.98 C 4,10.438 3.337,4.812 0,0"
             style="fill:#55575a;fill-opacity:1;fill-rule:nonzero;stroke:none"
             id="path962"
             inkscape:connector-curvature="0" />
        </g>
        <g
           id="g964"
           transform="translate(245.3599,691.3818)">
          <path
             d="m 0,0 c -10.148,7.039 -26.209,1.449 -35.875,-12.485 -3.642,-5.252 -5.856,-10.939 -6.658,-16.364 0.547,5.946 2.829,12.307 6.87,18.133 C -25.998,3.218 -9.935,8.808 0.212,1.769 6.535,-2.617 9.069,-10.871 7.744,-19.842 8.505,-11.566 5.906,-4.096 0,0"
             style="fill:#6ba2b8;fill-opacity:1;fill-rule:nonzero;stroke:none"
             id="path966"
             inkscape:connector-curvature="0" />
        </g>
        <g
           id="g968"
           transform="translate(245.9097,694.6328)">
          <path
             d="m 0,0 c -10.213,7.084 -26.216,1.802 -36.284,-11.762 0.256,0.397 0.52,0.793 0.791,1.185 10,14.416 26.618,20.199 37.116,12.918 C 12.122,-4.942 12.527,-22.533 2.527,-36.948 2.256,-37.34 1.978,-37.726 1.696,-38.106 10.873,-23.923 10.213,-7.084 0,0"
             style="fill:#008445;fill-opacity:1;fill-rule:nonzero;stroke:none"
             id="path970"
             inkscape:connector-curvature="0" />
        </g>
        <g
           id="g972"
           transform="translate(217.7715,651.6919)">
          <path
             d="m 0,0 c -10.213,7.085 -10.872,23.924 -1.695,38.106 -0.282,-0.38 -0.56,-0.765 -0.832,-1.156 -10,-14.417 -9.595,-32.008 0.904,-39.29 10.499,-7.282 27.116,-1.499 37.116,12.918 0.271,0.392 0.534,0.787 0.792,1.185 C 26.216,-1.802 10.213,-7.083 0,0"
             style="fill:#f4bd47;fill-opacity:1;fill-rule:nonzero;stroke:none"
             id="path974"
             inkscape:connector-curvature="0" />
        </g>
        <g
           id="g976"
           transform="translate(235.6343,683.624)">
          <path
             d="m 0,0 c 0.086,-0.048 0.165,-0.109 0.237,-0.179 -1.17,0.274 -3.218,-1.528 -4.755,-4.254 -1.65,-2.925 -2.088,-5.804 -0.977,-6.43 1.035,-0.584 3.048,0.997 4.653,3.582 -0.117,-0.227 -0.239,-0.454 -0.367,-0.682 -2.044,-3.622 -4.814,-5.931 -6.189,-5.155 -1.375,0.776 -0.833,4.341 1.209,7.963 C -4.146,-1.533 -1.375,0.775 0,0"
             style="fill:#1e376c;fill-opacity:1;fill-rule:nonzero;stroke:none"
             id="path978"
             inkscape:connector-curvature="0" />
        </g>
        <g
           id="g980"
           transform="translate(227.48,668.5439)">
          <path
             d="m 0,0 c 1.868,-1.053 5.163,1.252 7.36,5.149 2.047,3.629 2.419,7.358 0.95,8.703 0.158,-0.049 0.31,-0.114 0.454,-0.196 2.312,-1.304 1.981,-6.273 -0.74,-11.098 -2.721,-4.826 -6.801,-7.679 -9.114,-6.376 -2.312,1.305 -1.982,6.273 0.739,11.099 0.17,0.302 0.346,0.595 0.525,0.88 C -1.625,4.53 -1.739,0.982 0,0"
             style="fill:#2e5697;fill-opacity:1;fill-rule:nonzero;stroke:none"
             id="path982"
             inkscape:connector-curvature="0" />
        </g>
        <g
           id="g984"
           transform="translate(225.0771,700.312)">
          <path
             d="m 0,0 c -4.375,-3.096 -8.416,-7.33 -11.655,-12.513 -9.877,-15.807 -8.552,-34.452 2.959,-41.645 7.015,-4.384 16.193,-3.504 24.528,1.429 -8.967,-6.347 -19.338,-7.917 -27.074,-3.082 -11.512,7.193 -12.837,25.839 -2.959,41.645 C -10.342,-7.99 -5.345,-3.162 0,0"
             style="fill:#005789;fill-opacity:1;fill-rule:nonzero;stroke:none"
             id="path986"
             inkscape:connector-curvature="0" />
        </g>
      </g>
    </g>
    <g
       id="g988"
       transform="matrix(0.35277777,0,0,-0.35277777,-63.716038,518.33459)">
      <g
         id="g990"
         clip-path="url(#clipPath994)">
        <g
           id="g996"
           transform="translate(249.7324,654.9453)">
          <path
             d="m 0,0 c 11.079,15.973 10.63,35.461 -1.001,43.529 -2.823,1.958 -6.046,3.061 -9.465,3.384 4.343,0.059 8.457,-1.056 11.957,-3.483 C 13.123,35.362 13.571,15.873 2.493,-0.099 -5.897,-12.194 -18.491,-18.803 -29.162,-17.795 -19.071,-17.655 -7.744,-11.165 0,0"
             style="fill:#ac1f2d;fill-opacity:1;fill-rule:nonzero;stroke:none"
             id="path998"
             inkscape:connector-curvature="0" />
        </g>
        <g
           id="g1000"
           transform="translate(252.5391,703.7778)">
          <path
             d="m 0,0 c -12.789,7.991 -32.052,0.234 -43.025,-17.328 -3.361,-5.378 -5.552,-11.051 -6.61,-16.565 0.754,6.453 3.097,13.251 7.084,19.633 10.974,17.561 30.294,26.115 43.083,18.124 8.872,-5.545 12.238,-18.01 9.84,-30.5 C 11.695,-15.332 8.141,-5.088 0,0"
             style="fill:#ee2a7b;fill-opacity:1;fill-rule:nonzero;stroke:none"
             id="path1002"
             inkscape:connector-curvature="0" />
        </g>
        <g
           id="g1004"
           transform="translate(211.6831,644.126)">
          <path
             d="M 0,0 C 12.515,-7.821 31.229,-0.558 42.308,16.213 42.084,15.834 41.857,15.456 41.622,15.08 30.649,-2.481 10.559,-10.58 -2.229,-2.588 -15.018,5.404 -15.664,26.459 -4.691,44.02 c 0.235,0.377 0.476,0.747 0.718,1.114 C -14.19,27.824 -12.515,7.82 0,0"
             style="fill:#8dc63f;fill-opacity:1;fill-rule:nonzero;stroke:none"
             id="path1006"
             inkscape:connector-curvature="0" />
        </g>
        <g
           id="g1008"
           transform="translate(248.3711,703.1899)">
          <path
             d="m 0,0 c 3.93,-2.456 6.76,-6.513 8.52,-10.91 -1.774,3.504 -4.326,6.432 -7.641,8.503 -12.789,7.991 -32.052,0.234 -43.026,-17.327 -7.601,-12.165 -9.229,-25.841 -5.262,-35.755 -5.072,10.016 -3.661,26.348 4.468,39.357 C -31.967,1.429 -12.789,7.992 0,0"
             style="fill:#f78d2c;fill-opacity:1;fill-rule:nonzero;stroke:none"
             id="path1010"
             inkscape:connector-curvature="0" />
        </g>
        <g
           id="g1012"
           transform="translate(252.8296,656.293)">
          <path
             d="m 0,0 c 11.508,16.591 11.338,36.742 -0.166,45.704 0.318,-0.195 0.632,-0.397 0.941,-0.61 12.391,-8.596 14.026,-28.341 2.717,-45.688 -12.114,-18.583 -33.065,-24.525 -45.456,-15.93 -0.309,0.213 -0.608,0.438 -0.901,0.667 C -30.442,-23.492 -11.508,-16.591 0,0"
             style="fill:#92278f;fill-opacity:1;fill-rule:nonzero;stroke:none"
             id="path1014"
             inkscape:connector-curvature="0" />
        </g>
      </g>
    </g>
    <g
       id="g6076"
       transform="translate(3.308953,-35.329663)">
      <path
         d="m 14.893374,205.09704 c 0.58792,-0.79996 1.714606,-0.97151 2.513599,-0.38167 0.799957,0.58985 0.971514,1.71557 0.383594,2.51553 -0.588884,0.79996 -1.71557,0.97055 -2.515527,0.37974 -0.80092,-0.58792 -0.97055,-1.71364 -0.381666,-2.5136"
         style="opacity:0.3;fill:#8a8a8d;fill-opacity:1;fill-rule:nonzero;stroke:none;stroke-width:0.96380341"
         id="path1418"
         inkscape:connector-curvature="0" />
      <path
         d="m 26.592694,207.8247 c 0.267937,-0.36335 0.780681,-0.44142 1.144035,-0.17348 0.363354,0.26793 0.441422,0.77971 0.17252,1.14307 -0.267937,0.36335 -0.778753,0.44142 -1.142107,0.17444 -0.364317,-0.2689 -0.441422,-0.78068 -0.174448,-1.14403"
         style="opacity:0.3;fill:#8a8a8d;fill-opacity:1;fill-rule:nonzero;stroke:none;stroke-width:0.96380341"
         id="path1422"
         inkscape:connector-curvature="0" />
      <path
         d="m 9.935087,183.97808 c 0.346969,-0.47226 1.012957,-0.57346 1.486185,-0.22553 0.472263,0.3489 0.573463,1.01392 0.224566,1.48618 -0.346969,0.47227 -1.011994,0.57347 -1.486185,0.22553 -0.4712997,-0.34889 -0.572499,-1.01392 -0.224566,-1.48618"
         style="opacity:0.3;fill:#8a8a8d;fill-opacity:1;fill-rule:nonzero;stroke:none;stroke-width:0.96380341"
         id="path1426"
         inkscape:connector-curvature="0" />
      <path
         d="m -5.232576,183.06228 c 0.4819017,-0.65442 1.4032977,-0.79321 2.0577202,-0.31131 0.6534587,0.4819 0.794174,1.4033 0.3122723,2.05772 -0.4828655,0.65346 -1.4032977,0.79514 -2.0577202,0.31227 -0.6544225,-0.4819 -0.794174,-1.40329 -0.3122723,-2.05868"
         style="opacity:0.3;fill:#8a8a8d;fill-opacity:1;fill-rule:nonzero;stroke:none;stroke-width:0.96380341"
         id="path1430"
         inkscape:connector-curvature="0" />
      <path
         d="m -11.655458,166.55242 c 0.267937,-0.36335 0.779717,-0.44142 1.144035,-0.17348 0.36239,0.26793 0.440458,0.77971 0.17252,1.14307 -0.267937,0.36335 -0.779717,0.44142 -1.14307,0.17444 -0.364318,-0.2689 -0.441422,-0.78068 -0.173485,-1.14403"
         style="opacity:0.3;fill:#8a8a8d;fill-opacity:1;fill-rule:nonzero;stroke:none;stroke-width:0.96380341"
         id="path1434"
         inkscape:connector-curvature="0" />
      <path
         d="m -12.308628,157.2363 c 0.267937,-0.36335 0.780681,-0.44142 1.144035,-0.17348 0.363354,0.2689 0.441422,0.77971 0.17252,1.14307 -0.267937,0.36335 -0.779717,0.44142 -1.14307,0.17444 -0.364318,-0.2689 -0.441422,-0.78068 -0.173485,-1.14403"
         style="opacity:0.3;fill:#8a8a8d;fill-opacity:1;fill-rule:nonzero;stroke:none;stroke-width:0.96380341"
         id="path1438"
         inkscape:connector-curvature="0" />
      <path
         d="m 16.142366,158.59256 c 0.401906,-0.54455 1.170057,-0.66213 1.713642,-0.26023 0.547441,0.40191 0.663097,1.1691 0.262155,1.71557 -0.40287,0.54552 -1.170057,0.66117 -1.71557,0.26023 -0.545513,-0.40191 -0.662133,-1.17006 -0.260227,-1.71557"
         style="opacity:0.3;fill:#8a8a8d;fill-opacity:1;fill-rule:nonzero;stroke:none;stroke-width:0.96380341"
         id="path1442"
         inkscape:connector-curvature="0" />
      <path
         d="m 23.504571,160.86752 c 0.267937,-0.36335 0.779717,-0.44142 1.144035,-0.17348 0.36239,0.26793 0.440458,0.77971 0.17252,1.14307 -0.267937,0.36335 -0.779717,0.44142 -1.14307,0.17444 -0.364318,-0.2689 -0.441422,-0.78068 -0.173485,-1.14403"
         style="opacity:0.3;fill:#8a8a8d;fill-opacity:1;fill-rule:nonzero;stroke:none;stroke-width:0.96380341"
         id="path1446"
         inkscape:connector-curvature="0" />
      <path
         d="m -8.8958,141.57256 c 0.2679373,-0.36335 0.7806807,-0.44142 1.1440346,-0.17348 0.3633539,0.2689 0.441422,0.77971 0.1725208,1.14307 -0.2669735,0.36431 -0.7787531,0.44142 -1.142107,0.17444 -0.3643177,-0.2689 -0.4414219,-0.78068 -0.1744484,-1.14403"
         style="opacity:0.3;fill:#8a8a8d;fill-opacity:1;fill-rule:nonzero;stroke:none;stroke-width:0.96380341"
         id="path1450"
         inkscape:connector-curvature="0" />
      <path
         d="m 30.793334,160.34697 c 0.294924,-0.39998 0.857785,-0.48479 1.257763,-0.19083 0.399979,0.29396 0.484794,0.85682 0.190833,1.2568 -0.294923,0.39997 -0.857785,0.48479 -1.257763,0.19179 -0.399978,-0.29492 -0.484793,-0.85778 -0.190833,-1.25776"
         style="opacity:0.3;fill:#8a8a8d;fill-opacity:1;fill-rule:nonzero;stroke:none;stroke-width:0.96380341"
         id="path1454"
         inkscape:connector-curvature="0" />
      <path
         d="m 29.236599,150.46616 c 0.481902,-0.65442 1.403298,-0.79417 2.05772,-0.31227 0.653459,0.4819 0.794174,1.4033 0.312273,2.05868 -0.482866,0.65346 -1.403298,0.79321 -2.057721,0.31131 -0.654422,-0.4819 -0.794174,-1.4033 -0.312272,-2.05772"
         style="opacity:0.3;fill:#8a8a8d;fill-opacity:1;fill-rule:nonzero;stroke:none;stroke-width:0.96380341"
         id="path1458"
         inkscape:connector-curvature="0" />
      <path
         d="m 16.899145,147.77618 c 0.294924,-0.39901 0.857785,-0.48479 1.257763,-0.18987 0.399015,0.29396 0.484794,0.85682 0.190833,1.2568 -0.295887,0.39901 -0.858748,0.48479 -1.258727,0.1918 -0.399978,-0.29589 -0.484793,-0.85875 -0.189869,-1.25873"
         style="opacity:0.3;fill:#8a8a8d;fill-opacity:1;fill-rule:nonzero;stroke:none;stroke-width:0.96380341"
         id="path1462"
         inkscape:connector-curvature="0" />
      <path
         d="m 5.8173334,137.17714 c 0.2958876,-0.39998 0.8587488,-0.48479 1.2587272,-0.19083 0.3990146,0.29492 0.4847931,0.85778 0.1889055,1.25776 -0.29396,0.39901 -0.8568212,0.48479 -1.2567996,0.1918 -0.3999784,-0.29589 -0.4857569,-0.85875 -0.1908331,-1.25873"
         style="opacity:0.3;fill:#8a8a8d;fill-opacity:1;fill-rule:nonzero;stroke:none;stroke-width:0.96380341"
         id="path1466"
         inkscape:connector-curvature="0" />
      <path
         d="m 16.981936,129.05073 c 0.267937,-0.36335 0.779717,-0.44046 1.144035,-0.17348 0.363354,0.2689 0.440458,0.78068 0.17252,1.14403 -0.267937,0.36335 -0.779717,0.44142 -1.14307,0.17348 -0.364318,-0.2689 -0.441422,-0.77971 -0.173485,-1.14403"
         style="opacity:0.3;fill:#8a8a8d;fill-opacity:1;fill-rule:nonzero;stroke:none;stroke-width:0.96380341"
         id="path1470"
         inkscape:connector-curvature="0" />
      <path
         d="m 31.358991,123.59541 c 0.642857,-0.87321 1.870742,-1.05922 2.743948,-0.41636 0.872242,0.64285 1.057293,1.87074 0.414436,2.74395 -0.642857,0.87224 -1.869779,1.05922 -2.742021,0.41636 -0.87417,-0.64286 -1.05922,-1.87074 -0.416363,-2.74395"
         style="opacity:0.3;fill:#8a8a8d;fill-opacity:1;fill-rule:nonzero;stroke:none;stroke-width:0.96380341"
         id="path1474"
         inkscape:connector-curvature="0" />
      <path
         d="m 33.769463,139.48689 c 0.267937,-0.36335 0.779717,-0.44142 1.144035,-0.17445 0.36239,0.2689 0.440458,0.78068 0.17252,1.14404 -0.267937,0.36335 -0.779717,0.44238 -1.14307,0.17444 -0.364318,-0.26986 -0.441422,-0.78068 -0.173485,-1.14403"
         style="opacity:0.3;fill:#8a8a8d;fill-opacity:1;fill-rule:nonzero;stroke:none;stroke-width:0.96380341"
         id="path1478"
         inkscape:connector-curvature="0" />
      <path
         d="m 51.164958,140.82436 c 0.294924,-0.39998 0.857785,-0.48576 1.257763,-0.19083 0.399015,0.29396 0.484794,0.85682 0.18987,1.2568 -0.294924,0.39997 -0.857785,0.48479 -1.257764,0.19179 -0.399978,-0.29492 -0.485757,-0.85778 -0.189869,-1.25776"
         style="opacity:0.3;fill:#8a8a8d;fill-opacity:1;fill-rule:nonzero;stroke:none;stroke-width:0.96380341"
         id="path1482"
         inkscape:connector-curvature="0" />
      <path
         d="m 54.710501,148.00586 c 0.266974,-0.36335 0.779717,-0.44142 1.144035,-0.17445 0.36239,0.2689 0.440458,0.78068 0.171557,1.14404 -0.266974,0.36335 -0.778754,0.44142 -1.142107,0.17444 -0.364318,-0.26986 -0.441422,-0.78068 -0.173485,-1.14403"
         style="opacity:0.3;fill:#8a8a8d;fill-opacity:1;fill-rule:nonzero;stroke:none;stroke-width:0.96380341"
         id="path1486"
         inkscape:connector-curvature="0" />
      <path
         d="m 54.943934,156.09833 c 0.266974,-0.36335 0.780681,-0.44142 1.144035,-0.17445 0.36239,0.2689 0.440458,0.78068 0.171557,1.14404 -0.26601,0.36335 -0.778754,0.44238 -1.142107,0.17444 -0.363354,-0.26793 -0.441422,-0.78068 -0.173485,-1.14403"
         style="opacity:0.3;fill:#8a8a8d;fill-opacity:1;fill-rule:nonzero;stroke:none;stroke-width:0.96380341"
         id="path1490"
         inkscape:connector-curvature="0" />
      <path
         d="m 62.269418,148.49614 c 0.481902,-0.65539 1.403298,-0.79417 2.058684,-0.31227 0.653459,0.4819 0.79321,1.4033 0.311309,2.05772 -0.482866,0.65346 -1.403298,0.79417 -2.057721,0.31227 -0.653458,-0.4819 -0.794174,-1.4033 -0.312272,-2.05772"
         style="opacity:0.3;fill:#8a8a8d;fill-opacity:1;fill-rule:nonzero;stroke:none;stroke-width:0.96380341"
         id="path1494"
         inkscape:connector-curvature="0" />
      <path
         d="m 62.014396,134.09094 c 0.266974,-0.36335 0.780681,-0.44142 1.144035,-0.17445 0.36239,0.2689 0.440458,0.78068 0.17252,1.14404 -0.267937,0.36431 -0.779717,0.44238 -1.14307,0.17444 -0.363354,-0.2689 -0.441422,-0.78068 -0.173485,-1.14403"
         style="opacity:0.3;fill:#8a8a8d;fill-opacity:1;fill-rule:nonzero;stroke:none;stroke-width:0.96380341"
         id="path1498"
         inkscape:connector-curvature="0" />
      <path
         d="m 72.886291,156.41745 c 0.267937,-0.36335 0.779717,-0.44142 1.144035,-0.17445 0.36239,0.2689 0.440458,0.78068 0.17252,1.14404 -0.267937,0.36335 -0.779717,0.44142 -1.14307,0.17444 -0.364318,-0.2689 -0.441422,-0.78068 -0.173485,-1.14403"
         style="opacity:0.3;fill:#8a8a8d;fill-opacity:1;fill-rule:nonzero;stroke:none;stroke-width:0.96380341"
         id="path1502"
         inkscape:connector-curvature="0" />
      <path
         d="m 70.697108,179.38026 c 0.295888,-0.39998 0.858749,-0.48479 1.258727,-0.19083 0.399015,0.29396 0.484793,0.85682 0.189869,1.2568 -0.294923,0.39997 -0.857785,0.48479 -1.257763,0.19179 -0.399978,-0.29492 -0.485757,-0.85778 -0.190833,-1.25776"
         style="opacity:0.3;fill:#8a8a8d;fill-opacity:1;fill-rule:nonzero;stroke:none;stroke-width:0.96380341"
         id="path1506"
         inkscape:connector-curvature="0" />
      <path
         d="m 50.065643,176.3702 c 0.588884,-0.79996 1.71557,-0.97151 2.514563,-0.38167 0.800921,0.58985 0.971514,1.71557 0.38263,2.51553 -0.58792,0.79899 -1.714606,0.97055 -2.515527,0.37974 -0.799957,-0.58792 -0.969586,-1.71364 -0.381666,-2.5136"
         style="opacity:0.3;fill:#8a8a8d;fill-opacity:1;fill-rule:nonzero;stroke:none;stroke-width:0.96380341"
         id="path1510"
         inkscape:connector-curvature="0" />
      <path
         d="m 58.590195,184.3743 c 0.294924,-0.39998 0.857785,-0.48479 1.257763,-0.18987 0.399015,0.29396 0.484794,0.85682 0.18987,1.2568 -0.29396,0.39901 -0.856822,0.48479 -1.2568,0.1918 -0.399978,-0.29589 -0.485757,-0.85875 -0.190833,-1.25873"
         style="opacity:0.3;fill:#8a8a8d;fill-opacity:1;fill-rule:nonzero;stroke:none;stroke-width:0.96380341"
         id="path1514"
         inkscape:connector-curvature="0" />
      <path
         d="m 54.29356,201.92613 c 0.481902,-0.65442 1.403298,-0.79321 2.05772,-0.31131 0.655387,0.4819 0.794174,1.40234 0.312273,2.05772 -0.481902,0.65346 -1.403298,0.79514 -2.057721,0.31227 -0.653458,-0.4819 -0.794174,-1.40329 -0.312272,-2.05868"
         style="opacity:0.3;fill:#8a8a8d;fill-opacity:1;fill-rule:nonzero;stroke:none;stroke-width:0.96380341"
         id="path1518"
         inkscape:connector-curvature="0" />
      <path
         d="m 45.421653,202.80425 c 0.455879,-0.6178 1.32523,-0.74888 1.943028,-0.29492 0.617798,0.45588 0.750802,1.32523 0.29396,1.94399 -0.453952,0.61876 -1.32523,0.74984 -1.942064,0.29492 -0.617798,-0.45588 -0.750803,-1.32523 -0.294924,-1.94399"
         style="opacity:0.3;fill:#8a8a8d;fill-opacity:1;fill-rule:nonzero;stroke:none;stroke-width:0.96380341"
         id="path1522"
         inkscape:connector-curvature="0" />
      <path
         d="m 29.308113,183.32019 c 0.294924,-0.39998 0.857785,-0.48576 1.257763,-0.19083 0.399015,0.29396 0.484794,0.85682 0.190833,1.2568 -0.294923,0.39997 -0.857785,0.48479 -1.257763,0.19179 -0.399978,-0.29492 -0.485757,-0.85778 -0.190833,-1.25776"
         style="opacity:0.3;fill:#8a8a8d;fill-opacity:1;fill-rule:nonzero;stroke:none;stroke-width:0.96380341"
         id="path1526"
         inkscape:connector-curvature="0" />
      <path
         d="m 38.983832,208.16733 c 2.213856,1.62979 2.689011,4.7583 1.058256,6.97312 -1.631719,2.21482 -4.760225,2.68901 -6.974081,1.05922 -2.215784,-1.63172 -2.689012,-4.76023 -1.058256,-6.97408 1.631719,-2.21482 4.760225,-2.68902 6.974081,-1.05826 m -5.770291,7.83476 c 2.104947,1.54979 5.080208,1.0997 6.630967,-1.00621 1.55076,-2.10688 1.0997,-5.08117 -1.00621,-6.63097 -2.105911,-1.55076 -5.080208,-1.10066 -6.630968,1.00621 -1.551723,2.10495 -1.099699,5.07924 1.006211,6.63097"
         style="opacity:0.3;fill:#8a8a8d;fill-opacity:1;fill-rule:nonzero;stroke:none;stroke-width:0.96380341"
         id="path1530"
         inkscape:connector-curvature="0" />
      <path
         d="m 34.856537,190.40183 c 1.868815,1.37728 2.269757,4.0181 0.892482,5.88787 -1.376311,1.86978 -4.018096,2.26976 -5.886911,0.89345 -1.869779,-1.37727 -2.270721,-4.01906 -0.89441,-5.88787 1.377275,-1.86978 4.01906,-2.27073 5.888839,-0.89345 m -4.848895,6.58374 c 1.759905,1.29728 4.247482,0.91947 5.543797,-0.8414 1.29728,-1.76087 0.920432,-4.24844 -0.840436,-5.54476 -1.760869,-1.29728 -4.248446,-0.91947 -5.545725,0.8414 -1.296316,1.75991 -0.919468,4.24748 0.842364,5.54476"
         style="opacity:0.3;fill:#8a8a8d;fill-opacity:1;fill-rule:nonzero;stroke:none;stroke-width:0.96380341"
         id="path1534"
         inkscape:connector-curvature="0" />
      <path
         d="m 50.851529,190.60703 c 1.505461,1.10837 1.828335,3.23742 0.719961,4.7448 -1.109338,1.50546 -3.238379,1.82834 -4.744804,0.719 -1.506425,-1.10934 -1.829299,-3.23741 -0.718997,-4.74384 1.109337,-1.50642 3.237415,-1.8293 4.74384,-0.71996 m -3.879309,5.26622 c 1.398479,1.03031 3.372348,0.73056 4.40169,-0.66791 1.028379,-1.39752 0.7296,-3.37235 -0.667915,-4.40073 -1.398479,-1.02934 -3.372348,-0.73056 -4.40169,0.66695 -1.029342,1.39848 -0.730563,3.37235 0.667915,4.40169"
         style="opacity:0.3;fill:#8a8a8d;fill-opacity:1;fill-rule:nonzero;stroke:none;stroke-width:0.96380341"
         id="path1538"
         inkscape:connector-curvature="0" />
      <path
         d="m 68.124717,189.21404 c 2.523237,1.85918 3.063931,5.42429 1.205718,7.9456 -1.858213,2.52323 -5.422358,3.06393 -7.945595,1.20475 -2.522274,-1.85821 -3.062967,-5.42236 -1.204754,-7.94463 1.858213,-2.52228 5.421394,-3.06393 7.944631,-1.20572 m -6.594343,8.95277 c 2.414328,1.77918 5.825228,1.26258 7.603445,-1.15175 1.777254,-2.41336 1.259691,-5.82426 -1.154636,-7.60344 -2.413364,-1.77822 -5.8233,-1.26066 -7.601518,1.15367 -1.778217,2.41337 -1.260654,5.82427 1.152709,7.60152"
         style="opacity:0.3;fill:#8a8a8d;fill-opacity:1;fill-rule:nonzero;stroke:none;stroke-width:0.96380341"
         id="path1542"
         inkscape:connector-curvature="0" />
      <path
         d="m 37.595473,166.82913 c 3.140071,2.31313 3.812806,6.74855 1.500642,9.88862 -2.313128,3.14104 -6.749515,3.81281 -9.889587,1.50064 -3.139107,-2.31312 -3.812806,-6.74951 -1.499678,-9.88862 2.312165,-3.14103 6.748552,-3.81184 9.888623,-1.50064 m -8.24341,11.19168 c 3.031161,2.23314 7.31334,1.58257 9.546472,-1.44859 2.232169,-3.03116 1.582565,-7.31334 -1.448596,-9.54551 -3.031162,-2.23217 -7.31334,-1.58257 -9.546473,1.44763 -2.232169,3.03213 -1.582565,7.31334 1.448597,9.54647"
         style="opacity:0.3;fill:#8a8a8d;fill-opacity:1;fill-rule:nonzero;stroke:none;stroke-width:0.96380341"
         id="path1546"
         inkscape:connector-curvature="0" />
      <path
         d="m 17.30481,169.14737 c 1.797493,1.3233 2.182051,3.86196 0.858749,5.65849 -1.323302,1.79749 -3.86196,2.18205 -5.659454,0.85875 -1.796529,-1.3233 -2.182051,-3.86196 -0.858749,-5.65945 1.323303,-1.79653 3.861961,-2.18109 5.659454,-0.85779 m -4.65517,6.31966 c 1.688583,1.24331 4.073033,0.88188 5.316339,-0.80574 1.243306,-1.68858 0.880916,-4.07303 -0.806703,-5.31634 -1.68762,-1.24331 -4.073033,-0.88188 -5.31634,0.80574 -1.243306,1.68858 -0.880916,4.07303 0.806704,5.31634"
         style="opacity:0.3;fill:#8a8a8d;fill-opacity:1;fill-rule:nonzero;stroke:none;stroke-width:0.96380341"
         id="path1550"
         inkscape:connector-curvature="0" />
      <path
         d="m 20.416449,190.4292 c 1.288605,0.94935 1.564253,2.76997 0.614907,4.05858 -0.949347,1.2886 -2.769008,1.56425 -4.057613,0.61587 -1.288605,-0.94935 -1.565216,-2.77094 -0.61587,-4.05858 0.948382,-1.2886 2.769971,-1.56522 4.058576,-0.61587 m -3.297171,4.47687 c 1.179695,0.86838 2.845147,0.61587 3.715462,-0.56383 0.868387,-1.17969 0.614906,-2.84804 -0.563825,-3.71546 -1.179696,-0.86935 -2.847076,-0.61683 -3.715462,0.56382 -0.869351,1.1797 -0.616835,2.84612 0.563825,3.71547"
         style="opacity:0.3;fill:#8a8a8d;fill-opacity:1;fill-rule:nonzero;stroke:none;stroke-width:0.96380341"
         id="path1554"
         inkscape:connector-curvature="0" />
      <path
         d="m 4.019551,192.97422 c 2.1598834,1.59124 2.622509,4.64264 1.0322334,6.80349 -1.5912394,2.15988 -4.6426409,2.62251 -6.8025243,1.03223 -2.1608472,-1.59124 -2.6234728,-4.64264 -1.0331972,-6.80349 1.5922032,-2.15988 4.6436047,-2.62251 6.8034881,-1.03223 m -5.6247566,7.63814 c 2.05097363,1.50932 4.9481666,1.06982 6.4594103,-0.98115 1.5102799,-2.05097 1.0707856,-4.94913 -0.980188,-6.45941 -2.0509736,-1.50932 -4.9491304,-1.06982 -6.4603741,0.98115 -1.5093161,2.05098 -1.0698218,4.9472 0.9811518,6.45941"
         style="opacity:0.3;fill:#8a8a8d;fill-opacity:1;fill-rule:nonzero;stroke:none;stroke-width:0.96380341"
         id="path1558"
         inkscape:connector-curvature="0" />
      <path
         d="m 3.0294358,161.78044 c 2.4866127,1.83123 3.019596,5.34429 1.1874058,7.8309 -1.8312265,2.48758 -5.3442898,3.02056 -7.8309026,1.18934 -2.4866127,-1.83219 -3.0186322,-5.34526 -1.1874057,-7.83187 1.8312264,-2.48661 5.34428975,-3.0196 7.8309025,-1.18837 m -6.4979625,8.82266 c 2.3786668,1.75026 5.7365578,1.24137 7.4877886,-1.13729 1.7521945,-2.3777 1.2423426,-5.73656 -1.1343966,-7.48779 -2.37866678,-1.75123 -5.7375216,-1.24138 -7.4887523,1.13632 -1.750267,2.37771 -1.2423426,5.73753 1.1353603,7.48876"
         style="opacity:0.3;fill:#8a8a8d;fill-opacity:1;fill-rule:nonzero;stroke:none;stroke-width:0.96380341"
         id="path1562"
         inkscape:connector-curvature="0" />
      <path
         d="m -18.330471,170.92722 c 1.724244,1.27029 2.093381,3.70582 0.823088,5.43103 -1.269329,1.72425 -3.705824,2.09338 -5.430068,0.82309 -1.724244,-1.27029 -2.093381,-3.70486 -0.824052,-5.43007 1.270293,-1.72424 3.706788,-2.09434 5.431032,-0.82405 m -4.461446,6.05654 c 1.615335,1.19126 3.897621,0.84429 5.087918,-0.77104 1.189334,-1.6163 0.843328,-3.89859 -0.772006,-5.08792 -1.615335,-1.18933 -3.897621,-0.84333 -5.087918,0.77201 -1.189334,1.61533 -0.843328,3.89762 0.772006,5.08695"
         style="opacity:0.3;fill:#8a8a8d;fill-opacity:1;fill-rule:nonzero;stroke:none;stroke-width:0.96380341"
         id="path1566"
         inkscape:connector-curvature="0" />
      <path
         d="m -16.121434,148.48776 c 1.470764,1.08332 1.786891,3.15935 0.703576,4.63011 -1.083315,1.47077 -3.160311,1.784 -4.631075,0.70165 -1.4698,-1.08235 -1.784964,-3.15935 -0.702612,-4.62915 1.083315,-1.47076 3.161275,-1.78496 4.630111,-0.70261 m -3.781965,5.13514 c 1.360891,1.00236 3.284642,0.71033 4.287962,-0.65153 1.002355,-1.36089 0.710323,-3.28367 -0.650568,-4.28603 -1.36089,-1.00236 -3.285605,-0.71129 -4.287961,0.65057 -1.002355,1.36089 -0.710323,3.28368 0.650567,4.28699"
         style="opacity:0.3;fill:#8a8a8d;fill-opacity:1;fill-rule:nonzero;stroke:none;stroke-width:0.96380341"
         id="path1570"
         inkscape:connector-curvature="0" />
      <path
         d="m 3.3353469,147.99169 c 1.8341179,1.35029 2.2263858,3.94196 0.8760973,5.77318 -1.3502886,1.83412 -3.94002828,2.22735 -5.7731823,0.8761 -1.8331541,-1.35029 -2.2273497,-3.93906 -0.8760973,-5.77318 1.3502885,-1.83219 3.9400283,-2.22542 5.7731823,-0.8761 m -4.7515507,6.4517 c 1.72328045,1.27126 4.1607392,0.90212 5.4300683,-0.82212 1.2693291,-1.72425 0.9001924,-4.16171 -0.8240519,-5.432 -1.7242443,-1.26933 -4.16073925,-0.90019 -5.4300683,0.82502 -1.2712567,1.72424 -0.9011562,4.15881 0.8240519,5.4291"
         style="opacity:0.3;fill:#8a8a8d;fill-opacity:1;fill-rule:nonzero;stroke:none;stroke-width:0.96380341"
         id="path1574"
         inkscape:connector-curvature="0" />
      <path
         d="m -0.13309231,127.0572 c 1.72424431,1.26933 2.09338101,3.70582 0.8230881,5.43007 -1.26932907,1.72424 -3.70486019,2.09434 -5.42910449,0.82309 -1.7242443,-1.26933 -2.0943448,-3.70486 -0.8240519,-5.43007 1.2702929,-1.72425 3.705824,-2.09338 5.43006829,-0.82309 m -4.46144589,6.05558 c 1.6153345,1.19126 3.89762091,0.84332 5.08791809,-0.77105 1.19029721,-1.61533 0.84332801,-3.89858 -0.77104271,-5.08695 -1.61629828,-1.1903 -3.89762088,-0.84333 -5.08791808,0.77201 -1.1902972,1.61533 -0.8442918,3.89762 0.7710427,5.08599"
         style="opacity:0.3;fill:#8a8a8d;fill-opacity:1;fill-rule:nonzero;stroke:none;stroke-width:0.96380341"
         id="path1578"
         inkscape:connector-curvature="0" />
      <path
         d="m 25.997834,134.32052 c 2.595523,1.91219 3.152601,5.57849 1.239451,8.17402 -1.911222,2.59552 -5.578494,3.1526 -8.173053,1.24138 -2.596486,-1.91219 -3.1526,-5.57946 -1.240415,-8.17499 1.911223,-2.59552 5.579458,-3.15163 8.174017,-1.24041 m -6.789031,9.21685 c 2.485649,1.83219 6.00064,1.29824 7.830902,-1.18837 1.832191,-2.48661 1.299207,-5.99967 -1.186442,-7.8309 -2.486612,-1.83219 -6.000639,-1.29824 -7.831866,1.18837 -1.83219,2.48758 -1.299207,5.99968 1.187406,7.8309"
         style="opacity:0.3;fill:#8a8a8d;fill-opacity:1;fill-rule:nonzero;stroke:none;stroke-width:0.96380341"
         id="path1582"
         inkscape:connector-curvature="0" />
      <path
         d="m 21.203298,115.04821 c 1.542085,1.13729 1.871706,3.31548 0.736346,4.85853 -1.136324,1.54402 -3.316448,1.87364 -4.858533,0.73828 -1.544013,-1.13729 -1.874598,-3.31645 -0.738273,-4.85854 1.137288,-1.54401 3.316447,-1.87459 4.86046,-0.73827 m -3.977617,5.39923 c 1.43414,1.05536 3.460055,0.74791 4.516383,-0.68527 1.055365,-1.4351 0.749839,-3.45909 -0.6843,-4.51638 -1.435104,-1.05633 -3.460054,-0.74791 -4.517347,0.68526 -1.056328,1.43414 -0.747911,3.45909 0.685264,4.51639"
         style="opacity:0.3;fill:#8a8a8d;fill-opacity:1;fill-rule:nonzero;stroke:none;stroke-width:0.96380341"
         id="path1586"
         inkscape:connector-curvature="0" />
      <path
         d="m 52.829061,124.227 c 1.758941,1.29728 2.136752,3.78486 0.840437,5.54476 -1.298244,1.75991 -3.78582,2.13868 -5.545725,0.8414 -1.758941,-1.29631 -2.137716,-3.78485 -0.840437,-5.54476 1.29728,-1.76087 3.784856,-2.13772 5.545725,-0.8414 m -4.557826,6.18858 c 1.650031,1.21729 3.982435,0.86261 5.200683,-0.78839 1.21632,-1.65196 0.862604,-3.98533 -0.788391,-5.20261 -1.651959,-1.21632 -3.985327,-0.86164 -5.203575,0.78935 -1.21632,1.65196 -0.860676,3.98533 0.791283,5.20165"
         style="opacity:0.3;fill:#8a8a8d;fill-opacity:1;fill-rule:nonzero;stroke:none;stroke-width:0.96380341"
         id="path1590"
         inkscape:connector-curvature="0" />
      <path
         d="m 46.955835,142.95341 c 2.050974,1.51028 2.490468,4.40844 0.980188,6.45941 -1.511244,2.05097 -4.4094,2.49047 -6.460374,0.98019 -2.05001,-1.51125 -2.490468,-4.40747 -0.979224,-6.45845 1.51028,-2.05194 4.408436,-2.49143 6.45941,-0.98115 m -5.333688,7.24202 c 1.9411,1.43028 4.686012,1.01392 6.116296,-0.92814 1.430285,-1.94207 1.013922,-4.68602 -0.928142,-6.1163 -1.942064,-1.43028 -4.686976,-1.01392 -6.116297,0.92814 -1.430284,1.94207 -1.014885,4.68505 0.928143,6.1163"
         style="opacity:0.3;fill:#8a8a8d;fill-opacity:1;fill-rule:nonzero;stroke:none;stroke-width:0.96380341"
         id="path1594"
         inkscape:connector-curvature="0" />
      <path
         d="m 49.120634,158.76479 c 1.543049,1.13729 1.871706,3.31548 0.736346,4.85853 -1.136324,1.54402 -3.315484,1.87364 -4.858533,0.73828 -1.543049,-1.13729 -1.874598,-3.31645 -0.73731,-4.85854 1.136325,-1.54401 3.315484,-1.87459 4.859497,-0.73827 m -3.976653,5.40019 c 1.433176,1.0544 3.460054,0.74695 4.515419,-0.68623 1.056329,-1.4351 0.749839,-3.46005 -0.6843,-4.51638 -1.435104,-1.05633 -3.460054,-0.74888 -4.516383,0.68526 -1.056329,1.43414 -0.748875,3.46006 0.685264,4.51735"
         style="opacity:0.3;fill:#8a8a8d;fill-opacity:1;fill-rule:nonzero;stroke:none;stroke-width:0.96380341"
         id="path1598"
         inkscape:connector-curvature="0" />
      <path
         d="m 70.493745,164.35283 c 2.050974,1.51124 2.490468,4.40844 0.980188,6.45941 -1.511244,2.05097 -4.408437,2.49047 -6.460374,0.98019 -2.05001,-1.51125 -2.490468,-4.40844 -0.979224,-6.45941 1.51028,-2.05098 4.408436,-2.49047 6.45941,-0.98019 m -5.333688,7.24202 c 1.9411,1.43028 4.686012,1.01392 6.116296,-0.92814 1.430285,-1.94207 1.013922,-4.68698 -0.928142,-6.1163 -1.942064,-1.43028 -4.686012,-1.01392 -6.116297,0.92814 -1.430284,1.94207 -1.014885,4.68505 0.928143,6.1163"
         style="opacity:0.3;fill:#8a8a8d;fill-opacity:1;fill-rule:nonzero;stroke:none;stroke-width:0.96380341"
         id="path1602"
         inkscape:connector-curvature="0" />
      <path
         d="m 74.851582,144.5111 c 1.434139,1.05633 1.742557,3.08224 0.686228,4.51638 -1.057292,1.43414 -3.082243,1.74063 -4.517346,0.6843 -1.43414,-1.05536 -1.739666,-3.08128 -0.684301,-4.51542 1.056329,-1.43317 3.082243,-1.74159 4.515419,-0.68526 m -3.68462,5.0031 c 1.325229,0.97634 3.195972,0.69298 4.173268,-0.63225 0.975369,-1.32523 0.692011,-3.19694 -0.633219,-4.17327 -1.325229,-0.97537 -3.197899,-0.69105 -4.172304,0.63322 -0.976333,1.32523 -0.692011,3.19693 0.632255,4.1723"
         style="opacity:0.3;fill:#8a8a8d;fill-opacity:1;fill-rule:nonzero;stroke:none;stroke-width:0.96380341"
         id="path1606"
         inkscape:connector-curvature="0" />
      <path
         d="m 31.710104,209.92357 -0.08963,0.22842 -4.414219,-1.72906 0.08867,-0.22746 z"
         style="opacity:0.3;fill:#8a8a8d;fill-opacity:1;fill-rule:nonzero;stroke:none;stroke-width:0.96380341"
         id="path1610"
         inkscape:connector-curvature="0" />
      <path
         d="m 33.314837,197.73773 1.752195,9.61779 -0.241915,0.0424 -1.752195,-9.61683 z"
         style="opacity:0.3;fill:#8a8a8d;fill-opacity:1;fill-rule:nonzero;stroke:none;stroke-width:0.96380341"
         id="path1614"
         inkscape:connector-curvature="0" />
      <path
         d="m 29.148122,196.1593 0.150353,0.19276 -11.547328,9.06361 -0.151317,-0.19469 z"
         style="opacity:0.3;fill:#8a8a8d;fill-opacity:1;fill-rule:nonzero;stroke:none;stroke-width:0.96380341"
         id="path1618"
         inkscape:connector-curvature="0" />
      <path
         d="m 35.882506,195.62565 9.612011,7.08106 -0.145534,0.19758 -9.612011,-7.08106 z"
         style="opacity:0.3;fill:#8a8a8d;fill-opacity:1;fill-rule:nonzero;stroke:none;stroke-width:0.96380341"
         id="path1622"
         inkscape:connector-curvature="0" />
      <path
         d="m 36.376648,193.17749 0.0019,0.24577 9.287209,-0.0655 -0.0019,-0.2448 z"
         style="opacity:0.3;fill:#8a8a8d;fill-opacity:1;fill-rule:nonzero;stroke:none;stroke-width:0.96380341"
         id="path1626"
         inkscape:connector-curvature="0" />
      <path
         d="m 30.062964,184.48919 0.718997,5.50428 0.242879,-0.0308 -0.718034,-5.50428 z"
         style="opacity:0.3;fill:#8a8a8d;fill-opacity:1;fill-rule:nonzero;stroke:none;stroke-width:0.96380341"
         id="path1630"
         inkscape:connector-curvature="0" />
      <path
         d="m 31.710104,179.15338 -1.419682,4.13279 -0.232277,-0.079 1.419682,-4.13376 z"
         style="opacity:0.3;fill:#8a8a8d;fill-opacity:1;fill-rule:nonzero;stroke:none;stroke-width:0.96380341"
         id="path1634"
         inkscape:connector-curvature="0" />
      <path
         d="m 50.005406,176.79187 -0.06554,0.2371 -9.704536,-2.67938 0.06554,-0.23709 z"
         style="opacity:0.3;fill:#8a8a8d;fill-opacity:1;fill-rule:nonzero;stroke:none;stroke-width:0.96380341"
         id="path1638"
         inkscape:connector-curvature="0" />
      <path
         d="m 53.047458,178.41453 6.234844,6.01317 -0.171557,0.17734 -6.232916,-6.01221 z"
         style="opacity:0.3;fill:#8a8a8d;fill-opacity:1;fill-rule:nonzero;stroke:none;stroke-width:0.96380341"
         id="path1642"
         inkscape:connector-curvature="0" />
      <path
         d="m 59.738471,185.02757 2.462518,3.89569 -0.208182,0.13108 -2.462518,-3.89569 z"
         style="opacity:0.3;fill:#8a8a8d;fill-opacity:1;fill-rule:nonzero;stroke:none;stroke-width:0.96380341"
         id="path1646"
         inkscape:connector-curvature="0" />
      <path
         d="m 60.763476,197.6266 0.167702,0.17927 -4.2976,4.04315 -0.167701,-0.1783 z"
         style="opacity:0.3;fill:#8a8a8d;fill-opacity:1;fill-rule:nonzero;stroke:none;stroke-width:0.96380341"
         id="path1650"
         inkscape:connector-curvature="0" />
      <path
         d="m 63.804564,170.07638 0.117584,0.21493 -11.067354,6.06425 -0.116621,-0.21493 z"
         style="opacity:0.3;fill:#8a8a8d;fill-opacity:1;fill-rule:nonzero;stroke:none;stroke-width:0.96380341"
         id="path1654"
         inkscape:connector-curvature="0" />
      <path
         d="m 69.789783,172.1978 1.664488,7.11576 -0.239023,0.0569 -1.664488,-7.11479 z"
         style="opacity:0.3;fill:#8a8a8d;fill-opacity:1;fill-rule:nonzero;stroke:none;stroke-width:0.96380341"
         id="path1658"
         inkscape:connector-curvature="0" />
      <path
         d="m 73.653382,156.95863 -3.620046,6.98179 -0.216855,-0.11373 3.619081,-6.98082 z"
         style="opacity:0.3;fill:#8a8a8d;fill-opacity:1;fill-rule:nonzero;stroke:none;stroke-width:0.96380341"
         id="path1662"
         inkscape:connector-curvature="0" />
      <path
         d="m 73.005899,150.30617 0.361426,5.85125 0.243843,-0.0145 -0.360463,-5.85221 z"
         style="opacity:0.3;fill:#8a8a8d;fill-opacity:1;fill-rule:nonzero;stroke:none;stroke-width:0.96380341"
         id="path1666"
         inkscape:connector-curvature="0" />
      <path
         d="m 63.580576,166.78306 -0.07807,0.23131 -13.187722,-4.4306 0.07807,-0.23421 z"
         style="opacity:0.3;fill:#8a8a8d;fill-opacity:1;fill-rule:nonzero;stroke:none;stroke-width:0.96380341"
         id="path1670"
         inkscape:connector-curvature="0" />
      <path
         d="m 55.152887,149.03366 0.191797,7.04733 0.24577,-0.007 -0.192761,-7.04733 z"
         style="opacity:0.3;fill:#8a8a8d;fill-opacity:1;fill-rule:nonzero;stroke:none;stroke-width:0.96380341"
         id="path1674"
         inkscape:connector-curvature="0" />
      <path
         d="m 62.410616,149.17476 -0.03855,0.24191 -6.354356,-1.02452 0.03855,-0.24095 z"
         style="opacity:0.3;fill:#8a8a8d;fill-opacity:1;fill-rule:nonzero;stroke:none;stroke-width:0.96380341"
         id="path1678"
         inkscape:connector-curvature="0" />
      <path
         d="m 52.393229,141.19138 2.886591,6.69554 -0.22553,0.0974 -2.886591,-6.69555 z"
         style="opacity:0.3;fill:#8a8a8d;fill-opacity:1;fill-rule:nonzero;stroke:none;stroke-width:0.96380341"
         id="path1682"
         inkscape:connector-curvature="0" />
      <path
         d="m 55.010822,148.19312 -0.04048,0.24191 -6.239663,-1.04187 0.03952,-0.24191 z"
         style="opacity:0.3;fill:#8a8a8d;fill-opacity:1;fill-rule:nonzero;stroke:none;stroke-width:0.96380341"
         id="path1686"
         inkscape:connector-curvature="0" />
      <path
         d="m 48.906092,130.98865 -3.663417,11.31505 -0.23324,-0.0742 3.663417,-11.31602 z"
         style="opacity:0.3;fill:#8a8a8d;fill-opacity:1;fill-rule:nonzero;stroke:none;stroke-width:0.96380341"
         id="path1690"
         inkscape:connector-curvature="0" />
      <path
         d="m 62.455818,134.16246 -0.127222,0.21011 -8.500746,-5.14382 0.12915,-0.21011 z"
         style="opacity:0.3;fill:#8a8a8d;fill-opacity:1;fill-rule:nonzero;stroke:none;stroke-width:0.96380341"
         id="path1694"
         inkscape:connector-curvature="0" />
      <path
         d="m 40.663838,143.90497 -0.138788,0.2024 -5.67391,-3.87642 0.13686,-0.20143 z"
         style="opacity:0.3;fill:#8a8a8d;fill-opacity:1;fill-rule:nonzero;stroke:none;stroke-width:0.96380341"
         id="path1698"
         inkscape:connector-curvature="0" />
      <path
         d="m 28.322624,139.26291 5.599698,0.67081 0.02795,-0.24385 -5.598734,-0.6708 z"
         style="opacity:0.3;fill:#8a8a8d;fill-opacity:1;fill-rule:nonzero;stroke:none;stroke-width:0.96380341"
         id="path1702"
         inkscape:connector-curvature="0" />
      <path
         d="m 32.048014,125.6247 0.194688,0.14746 -6.483505,8.52773 -0.195652,-0.14842 z"
         style="opacity:0.3;fill:#8a8a8d;fill-opacity:1;fill-rule:nonzero;stroke:none;stroke-width:0.96380341"
         id="path1706"
         inkscape:connector-curvature="0" />
      <path
         d="m 17.931667,129.91854 2.086634,3.92172 -0.215892,0.11565 -2.086634,-3.92171 z"
         style="opacity:0.3;fill:#8a8a8d;fill-opacity:1;fill-rule:nonzero;stroke:none;stroke-width:0.96380341"
         id="path1710"
         inkscape:connector-curvature="0" />
      <path
         d="m 18.817306,121.08895 -1.044763,7.76054 -0.242878,-0.0328 1.044763,-7.76055 z"
         style="opacity:0.3;fill:#8a8a8d;fill-opacity:1;fill-rule:nonzero;stroke:none;stroke-width:0.96380341"
         id="path1714"
         inkscape:connector-curvature="0" />
      <path
         d="m 16.931143,138.52964 -0.02506,0.24384 -9.6255043,-0.99657 0.026987,-0.24288 z"
         style="opacity:0.3;fill:#8a8a8d;fill-opacity:1;fill-rule:nonzero;stroke:none;stroke-width:0.96380341"
         id="path1718"
         inkscape:connector-curvature="0" />
      <path
         d="m 19.88655,144.06217 -1.91315,3.76944 -0.219747,-0.11084 1.912186,-3.76847 z"
         style="opacity:0.3;fill:#8a8a8d;fill-opacity:1;fill-rule:nonzero;stroke:none;stroke-width:0.96380341"
         id="path1722"
         inkscape:connector-curvature="0" />
      <path
         d="m 17.082653,158.66224 0.24577,0.006 0.243842,-9.56864 -0.244806,-0.006 z"
         style="opacity:0.3;fill:#8a8a8d;fill-opacity:1;fill-rule:nonzero;stroke:none;stroke-width:0.96380341"
         id="path1726"
         inkscape:connector-curvature="0" />
      <path
         d="m 31.805135,161.18471 0.790319,4.44024 -0.240951,0.0434 -0.790319,-4.4412 z"
         style="opacity:0.3;fill:#8a8a8d;fill-opacity:1;fill-rule:nonzero;stroke:none;stroke-width:0.96380341"
         id="path1730"
         inkscape:connector-curvature="0" />
      <path
         d="m 30.782058,152.51607 0.916577,7.58031 -0.243842,0.0299 -0.916577,-7.58128 z"
         style="opacity:0.3;fill:#8a8a8d;fill-opacity:1;fill-rule:nonzero;stroke:none;stroke-width:0.96380341"
         id="path1734"
         inkscape:connector-curvature="0" />
      <path
         d="m 24.741324,161.25815 0.02024,0.24481 6.063287,-0.50986 -0.02024,-0.24577 z"
         style="opacity:0.3;fill:#8a8a8d;fill-opacity:1;fill-rule:nonzero;stroke:none;stroke-width:0.96380341"
         id="path1738"
         inkscape:connector-curvature="0" />
      <path
         d="m 16.19605,158.4825 -0.107946,0.22071 -11.6282879,-5.7221 0.1089098,-0.22071 z"
         style="opacity:0.3;fill:#8a8a8d;fill-opacity:1;fill-rule:nonzero;stroke:none;stroke-width:0.96380341"
         id="path1742"
         inkscape:connector-curvature="0" />
      <path
         d="m 16.09061,159.59029 0.08963,0.22842 -11.3121607,4.46434 -0.08867,-0.22842 z"
         style="opacity:0.3;fill:#8a8a8d;fill-opacity:1;fill-rule:nonzero;stroke:none;stroke-width:0.96380341"
         id="path1746"
         inkscape:connector-curvature="0" />
      <path
         d="m -2.0371823,133.92334 2.22734963,13.5212 -0.24191465,0.0386 -2.22734968,-13.52023 z"
         style="opacity:0.3;fill:#8a8a8d;fill-opacity:1;fill-rule:nonzero;stroke:none;stroke-width:0.96380341"
         id="path1750"
         inkscape:connector-curvature="0" />
      <path
         d="m -7.7682464,142.55709 5.8078792,5.90233 -0.1754122,0.17252 -5.8078792,-5.90137 z"
         style="opacity:0.3;fill:#8a8a8d;fill-opacity:1;fill-rule:nonzero;stroke:none;stroke-width:0.96380341"
         id="path1754"
         inkscape:connector-curvature="0" />
      <path
         d="m -14.930848,151.26621 11.8412884,0.1918 0.00386,-0.24674 -11.8403244,-0.19083 z"
         style="opacity:0.3;fill:#8a8a8d;fill-opacity:1;fill-rule:nonzero;stroke:none;stroke-width:0.96380341"
         id="path1758"
         inkscape:connector-curvature="0" />
      <path
         d="m -10.376298,166.87713 0.03373,0.24384 4.6387858,-0.64575 -0.034697,-0.24287 z"
         style="opacity:0.3;fill:#8a8a8d;fill-opacity:1;fill-rule:nonzero;stroke:none;stroke-width:0.96380341"
         id="path1762"
         inkscape:connector-curvature="0" />
      <path
         d="m -11.294032,167.38071 0.143607,0.19951 -6.225206,4.45277 -0.143607,-0.19951 z"
         style="opacity:0.3;fill:#8a8a8d;fill-opacity:1;fill-rule:nonzero;stroke:none;stroke-width:0.96380341"
         id="path1766"
         inkscape:connector-curvature="0" />
      <path
         d="m -11.571607,158.28202 0.43082,8.23859 0.244806,-0.0125 -0.43082,-8.24052 z"
         style="opacity:0.3;fill:#8a8a8d;fill-opacity:1;fill-rule:nonzero;stroke:none;stroke-width:0.96380341"
         id="path1770"
         inkscape:connector-curvature="0" />
      <path
         d="m -1.7773409,171.52584 -1.9141135,11.28421 -0.2419147,-0.0414 1.9141135,-11.28421 z"
         style="opacity:0.3;fill:#8a8a8d;fill-opacity:1;fill-rule:nonzero;stroke:none;stroke-width:0.96380341"
         id="path1774"
         inkscape:connector-curvature="0" />
      <path
         d="m 2.6162532,170.83026 8.2800348,13.71492 -0.211073,0.12626 -8.2790709,-13.71299 z"
         style="opacity:0.3;fill:#8a8a8d;fill-opacity:1;fill-rule:nonzero;stroke:none;stroke-width:0.96380341"
         id="path1778"
         inkscape:connector-curvature="0" />
      <path
         d="m 15.482643,176.17262 2.687084,13.86046 -0.239987,0.0472 -2.688048,-13.86045 z"
         style="opacity:0.3;fill:#8a8a8d;fill-opacity:1;fill-rule:nonzero;stroke:none;stroke-width:0.96380341"
         id="path1782"
         inkscape:connector-curvature="0" />
      <path
         d="m 15.983339,193.46268 0.05686,0.23902 -10.1594511,2.41819 -0.056864,-0.23903 z"
         style="opacity:0.3;fill:#8a8a8d;fill-opacity:1;fill-rule:nonzero;stroke:none;stroke-width:0.96380341"
         id="path1786"
         inkscape:connector-curvature="0" />
      <path
         d="m 18.874749,172.51036 7.574531,0.19662 0.0058,-0.24577 -7.573567,-0.19566 z"
         style="opacity:0.3;fill:#8a8a8d;fill-opacity:1;fill-rule:nonzero;stroke:none;stroke-width:0.96380341"
         id="path1790"
         inkscape:connector-curvature="0" />
    </g>
  </g>
  <g
     inkscape:groupmode="layer"
     id="layer4"
     inkscape:label="boxes"
     style="opacity:0.8;filter:url(#filter12141)">
    <rect
       style="opacity:0.8;fill:#00833e;fill-opacity:1;stroke:#000000;stroke-width:0.29041478;stroke-linecap:round;stroke-linejoin:bevel;stroke-miterlimit:4;stroke-dasharray:none;stroke-dashoffset:0;stroke-opacity:1"
       id="rect12117"
       width="240.38432"
       height="6.5241685"
       x="0"
       y="0.14520739" />
    <g
       transform="matrix(0.8194539,0,0,-0.8194539,24.10656,353.51929)"
       id="g2467">
      <g
         transform="translate(199.1875,246.3936)"
         id="g1934">
        <path
           inkscape:connector-curvature="0"
           id="path1936"
           style="fill:#008446;fill-opacity:1;fill-rule:nonzero;stroke:none"
           d="M 0,0 14.91,0.156 29.82,0.273 37.275,0.347 41.003,0.366 44.73,0.35 48.458,0.305 C 49.7,0.282 50.943,0.266 52.185,0.235 54.67,0.184 57.155,0.106 59.64,0 V -0.078 C 57.155,-0.184 54.67,-0.262 52.185,-0.312 50.943,-0.344 49.7,-0.359 48.458,-0.383 L 44.73,-0.428 41.003,-0.444 37.275,-0.424 29.82,-0.35 14.91,-0.234 0,-0.078 Z" />
      </g>
      <g
         transform="translate(199.7368,247.4902)"
         id="g1938">
        <path
           inkscape:connector-curvature="0"
           id="path1940"
           style="fill:#008446;fill-opacity:1;fill-rule:nonzero;stroke:none"
           d="m 0,0 c -0.353,-0.345 -0.718,-0.673 -1.076,-1.01 -0.094,-0.084 -0.18,-0.16 -0.236,-0.234 -0.06,-0.076 -0.072,-0.142 -0.057,-0.157 0.006,-0.012 0.011,-0.019 0.026,-0.035 0.015,-0.014 0.041,-0.037 0.076,-0.059 0.036,-0.024 0.078,-0.047 0.128,-0.072 l 0.162,-0.081 c 0.219,-0.11 0.445,-0.206 0.668,-0.306 0.223,-0.104 0.434,-0.224 0.632,-0.367 0.394,-0.29 0.772,-0.611 1.087,-1.045 L 1.372,-3.435 c -0.528,0.062 -0.994,0.237 -1.443,0.442 -0.223,0.103 -0.434,0.23 -0.633,0.377 -0.198,0.146 -0.394,0.297 -0.597,0.435 l -0.153,0.107 c -0.055,0.039 -0.114,0.083 -0.173,0.137 -0.06,0.054 -0.122,0.119 -0.173,0.207 -0.052,0.086 -0.088,0.2 -0.086,0.31 0,0.112 0.038,0.218 0.085,0.298 0.048,0.08 0.105,0.141 0.161,0.191 0.113,0.103 0.228,0.168 0.329,0.233 0.422,0.253 0.836,0.514 1.264,0.76 z" />
      </g>
      <g
         transform="translate(257.6392,247.7227)"
         id="g1942">
        <path
           inkscape:connector-curvature="0"
           id="path1944"
           style="fill:#008446;fill-opacity:1;fill-rule:nonzero;stroke:none"
           d="M 0,0 C 0.445,0.071 0.826,0.025 1.187,-0.057 1.546,-0.143 1.88,-0.274 2.191,-0.446 L 2.307,-0.513 2.365,-0.548 C 2.389,-0.562 2.421,-0.579 2.458,-0.606 2.532,-0.659 2.645,-0.738 2.753,-0.904 2.864,-1.068 2.909,-1.31 2.877,-1.479 2.85,-1.653 2.79,-1.759 2.741,-1.839 2.692,-1.917 2.638,-1.974 2.604,-2.006 2.534,-2.069 2.46,-2.128 2.384,-2.186 2.078,-2.416 1.742,-2.618 1.313,-2.725 l -0.06,0.05 0.311,0.433 0.32,0.426 c 0.097,0.14 0.244,0.287 0.261,0.417 0.026,0.117 -0.177,0.182 -0.328,0.27 l -0.93,0.525 -0.465,0.262 -0.459,0.274 z" />
      </g>
      <g
         transform="translate(228.4785,216.0937)"
         id="g1946">
        <path
           inkscape:connector-curvature="0"
           id="path1948"
           style="fill:#008446;fill-opacity:1;fill-rule:nonzero;stroke:none"
           d="m 0,0 -0.156,14.91 -0.117,14.91 -0.074,7.455 -0.019,3.728 0.016,3.727 0.045,3.728 c 0.023,1.242 0.039,2.485 0.07,3.728 0.051,2.484 0.129,4.969 0.235,7.455 H 0.078 C 0.184,57.155 0.262,54.67 0.313,52.186 0.344,50.943 0.36,49.7 0.383,48.458 L 0.428,44.73 0.444,41.003 0.424,37.275 0.35,29.82 0.234,14.91 0.078,0 Z" />
      </g>
      <g
         transform="translate(227.3823,216.6436)"
         id="g1950">
        <path
           inkscape:connector-curvature="0"
           id="path1952"
           style="fill:#008446;fill-opacity:1;fill-rule:nonzero;stroke:none"
           d="m 0,0 c 0.345,-0.354 0.672,-0.718 1.009,-1.076 0.085,-0.094 0.16,-0.18 0.235,-0.236 0.076,-0.06 0.141,-0.072 0.157,-0.057 0.012,0.006 0.018,0.011 0.034,0.026 0.015,0.015 0.037,0.042 0.06,0.075 0.023,0.037 0.047,0.079 0.072,0.128 l 0.081,0.162 c 0.109,0.22 0.206,0.446 0.306,0.668 0.103,0.224 0.223,0.435 0.367,0.633 0.29,0.395 0.61,0.772 1.045,1.088 L 3.434,1.372 C 3.373,0.845 3.198,0.378 2.993,-0.071 2.889,-0.294 2.762,-0.505 2.616,-0.704 2.469,-0.902 2.319,-1.099 2.18,-1.301 L 2.074,-1.454 C 2.035,-1.509 1.991,-1.568 1.937,-1.627 1.882,-1.687 1.818,-1.748 1.73,-1.8 1.643,-1.853 1.53,-1.888 1.419,-1.886 c -0.112,0 -0.217,0.037 -0.297,0.085 -0.08,0.048 -0.141,0.105 -0.192,0.16 -0.102,0.114 -0.168,0.229 -0.232,0.329 -0.253,0.422 -0.515,0.836 -0.76,1.265 z" />
      </g>
      <g
         transform="translate(227.1494,274.5459)"
         id="g1954">
        <path
           inkscape:connector-curvature="0"
           id="path1956"
           style="fill:#008446;fill-opacity:1;fill-rule:nonzero;stroke:none"
           d="M 0,0 C -0.071,0.445 -0.025,0.826 0.057,1.187 0.143,1.546 0.274,1.88 0.446,2.191 L 0.514,2.307 0.548,2.365 C 0.562,2.389 0.579,2.421 0.606,2.458 0.659,2.532 0.738,2.646 0.904,2.753 1.068,2.864 1.31,2.909 1.479,2.877 1.653,2.85 1.759,2.79 1.839,2.741 1.917,2.692 1.974,2.638 2.006,2.604 2.069,2.534 2.128,2.46 2.186,2.384 2.416,2.078 2.618,1.742 2.725,1.313 L 2.675,1.253 2.242,1.564 1.816,1.884 C 1.676,1.981 1.529,2.128 1.399,2.146 1.282,2.171 1.217,1.968 1.129,1.817 L 0.604,0.887 0.342,0.422 0.068,-0.037 Z" />
      </g>
      <g
         transform="translate(214.4438,233.0957)"
         id="g1958">
        <path
           inkscape:connector-curvature="0"
           id="path1960"
           style="fill:#008446;fill-opacity:1;fill-rule:nonzero;stroke:none"
           d="m 0,0 c -0.007,1.827 0.051,3.654 0.181,5.479 0.14,1.822 0.357,3.64 0.65,5.446 0.29,1.807 0.683,3.598 1.156,5.368 0.475,1.769 1.042,3.516 1.72,5.222 0.681,1.704 1.474,3.368 2.406,4.956 0.933,1.586 2.007,3.098 3.26,4.462 0.158,0.17 0.312,0.342 0.473,0.508 l 0.501,0.483 0.25,0.242 c 0.084,0.081 0.176,0.152 0.263,0.23 l 0.531,0.451 c 0.175,0.153 0.37,0.281 0.554,0.424 l 0.281,0.208 0.14,0.104 0.147,0.095 c 0.395,0.249 0.781,0.513 1.201,0.722 l 0.309,0.166 c 0.103,0.056 0.206,0.111 0.315,0.155 l 0.645,0.282 0.162,0.07 0.166,0.057 0.334,0.114 c 0.224,0.071 0.443,0.162 0.674,0.208 l 0.687,0.167 c 0.23,0.052 0.466,0.074 0.699,0.112 l 0.35,0.052 c 0.117,0.015 0.235,0.015 0.353,0.023 l 0.708,0.037 0.708,-0.028 c 0.118,-0.006 0.237,-0.004 0.354,-0.018 L 20.53,35.75 c 0.233,-0.035 0.47,-0.055 0.701,-0.103 l 0.691,-0.159 c 0.233,-0.043 0.453,-0.131 0.679,-0.2 l 0.337,-0.11 0.168,-0.055 0.163,-0.068 0.652,-0.275 c 0.11,-0.042 0.214,-0.097 0.319,-0.152 l 0.313,-0.162 c 0.425,-0.205 0.817,-0.464 1.218,-0.709 l 0.149,-0.094 0.143,-0.101 0.285,-0.207 c 0.188,-0.14 0.387,-0.267 0.565,-0.417 l 0.541,-0.448 c 0.089,-0.076 0.183,-0.147 0.268,-0.227 l 0.256,-0.239 0.511,-0.479 c 0.165,-0.165 0.323,-0.337 0.485,-0.505 1.276,-1.361 2.378,-2.87 3.329,-4.46 0.943,-1.596 1.745,-3.267 2.436,-4.977 1.354,-3.435 2.288,-7.017 2.842,-10.647 0.273,-1.815 0.471,-3.639 0.588,-5.468 0.09,-1.83 0.125,-3.661 0.063,-5.488 h -0.093 c -0.141,3.648 -0.502,7.279 -1.192,10.846 -0.343,1.784 -0.763,3.55 -1.272,5.289 -0.505,1.739 -1.093,3.452 -1.791,5.118 -0.686,1.67 -1.48,3.295 -2.405,4.837 -0.919,1.544 -1.962,3.015 -3.174,4.328 -1.203,1.314 -2.572,2.492 -4.136,3.325 L 23.877,33.9 c -0.097,0.054 -0.194,0.106 -0.296,0.147 l -0.607,0.266 -0.151,0.067 -0.156,0.053 -0.313,0.107 c -0.21,0.067 -0.414,0.153 -0.631,0.196 l -0.641,0.158 c -0.215,0.048 -0.434,0.068 -0.651,0.104 l -0.327,0.049 c -0.109,0.015 -0.219,0.015 -0.329,0.022 l -0.659,0.036 -0.66,-0.027 c -0.11,-0.006 -0.221,-0.004 -0.33,-0.016 L 17.799,35.017 C 17.581,34.983 17.36,34.966 17.144,34.92 l -0.645,-0.148 c -0.218,-0.04 -0.424,-0.124 -0.636,-0.188 L 15.548,34.481 15.39,34.43 15.237,34.365 14.624,34.107 c -0.104,-0.04 -0.202,-0.092 -0.301,-0.144 l -0.296,-0.154 c -0.401,-0.192 -0.773,-0.441 -1.153,-0.674 l -0.142,-0.089 -0.135,-0.098 -0.272,-0.196 c -0.179,-0.135 -0.368,-0.255 -0.538,-0.4 l -0.517,-0.43 c -0.085,-0.073 -0.175,-0.14 -0.257,-0.217 l -0.245,-0.231 -0.49,-0.462 C 10.119,30.854 9.967,30.687 9.812,30.524 8.577,29.215 7.506,27.747 6.569,26.199 5.632,24.649 4.829,23.017 4.134,21.34 3.435,19.664 2.844,17.942 2.342,16.194 1.843,14.445 1.422,12.671 1.104,10.878 0.782,9.085 0.535,7.278 0.364,5.463 0.205,3.647 0.116,1.824 0.092,0 Z" />
      </g>
    </g>
  </g>
  <g
     style="opacity:0.8;filter:url(#filter12141)"
     inkscape:label="boxes copy"
     id="g12155"
     inkscape:groupmode="layer" />
</svg>
