<?xml version="1.0" encoding="UTF-8" standalone="no"?>
<!-- Created with Inkscape (http://www.inkscape.org/) -->

<svg
   xmlns:dc="http://purl.org/dc/elements/1.1/"
   xmlns:cc="http://creativecommons.org/ns#"
   xmlns:rdf="http://www.w3.org/1999/02/22-rdf-syntax-ns#"
   xmlns:svg="http://www.w3.org/2000/svg"
   xmlns="http://www.w3.org/2000/svg"
   xmlns:sodipodi="http://sodipodi.sourceforge.net/DTD/sodipodi-0.dtd"
   xmlns:inkscape="http://www.inkscape.org/namespaces/inkscape"
   width="36.852303mm"
   height="37.626175mm"
   viewBox="0 0 36.852303 37.626175"
   version="1.1"
   id="svg7529"
   inkscape:version="0.92.3 (2405546, 2018-03-11)"
   sodipodi:docname="jax-cyan.svg">
  <defs
     id="defs7523">
    <clipPath
       clipPathUnits="userSpaceOnUse"
       id="clipPath818">
      <path
         d="M 0,792 H 612 V 0 H 0 Z"
         id="path816"
         inkscape:connector-curvature="0" />
    </clipPath>
  </defs>
  <sodipodi:namedview
     id="base"
     pagecolor="#ffffff"
     bordercolor="#666666"
     borderopacity="1.0"
     inkscape:pageopacity="0.0"
     inkscape:pageshadow="2"
     inkscape:zoom="0.35"
     inkscape:cx="509.64213"
     inkscape:cy="288.24743"
     inkscape:document-units="mm"
     inkscape:current-layer="layer1"
     showgrid="false"
     fit-margin-top="0"
     fit-margin-left="0"
     fit-margin-right="0"
     fit-margin-bottom="0"
     inkscape:window-width="1920"
     inkscape:window-height="1051"
     inkscape:window-x="1920"
     inkscape:window-y="0"
     inkscape:window-maximized="1" />
  <metadata
     id="metadata7526">
    <rdf:RDF>
      <cc:Work
         rdf:about="">
        <dc:format>image/svg+xml</dc:format>
        <dc:type
           rdf:resource="http://purl.org/dc/dcmitype/StillImage" />
        <dc:title></dc:title>
      </cc:Work>
    </rdf:RDF>
  </metadata>
  <g
     inkscape:label="Layer 1"
     inkscape:groupmode="layer"
     id="layer1"
     transform="translate(148.44996,-187.47263)">
    <g
       transform="matrix(0.35277777,0,0,-0.35277777,-277.40049,285.8163)"
       id="g812">
      <g
         id="g814"
         clip-path="url(#clipPath818)">
        <g
           id="g820"
           transform="translate(406.4189,184.6377)">
          <path
             d="m 0,0 c 0.61,0.83 1.779,1.008 2.608,0.396 0.83,-0.612 1.008,-1.78 0.398,-2.61 C 2.395,-3.044 1.226,-3.221 0.396,-2.608 -0.435,-1.998 -0.611,-0.83 0,0"
             style="fill:#27aae1;fill-opacity:1;fill-rule:nonzero;stroke:none"
             id="path822"
             inkscape:connector-curvature="0" />
        </g>
        <g
           id="g824"
           transform="translate(418.5576,181.8076)">
          <path
             d="M 0,0 C 0.278,0.377 0.81,0.458 1.187,0.18 1.564,-0.098 1.645,-0.629 1.366,-1.006 1.088,-1.383 0.558,-1.464 0.181,-1.187 -0.197,-0.908 -0.277,-0.377 0,0"
             style="fill:#27aae1;fill-opacity:1;fill-rule:nonzero;stroke:none"
             id="path826"
             inkscape:connector-curvature="0" />
        </g>
        <g
           id="g828"
           transform="translate(401.2744,206.5498)">
          <path
             d="M 0,0 C 0.36,0.49 1.051,0.595 1.542,0.234 2.032,-0.128 2.137,-0.818 1.775,-1.308 1.415,-1.798 0.725,-1.903 0.233,-1.542 -0.256,-1.18 -0.361,-0.49 0,0"
             style="fill:#27aae1;fill-opacity:1;fill-rule:nonzero;stroke:none"
             id="path830"
             inkscape:connector-curvature="0" />
        </g>
        <g
           id="g832"
           transform="translate(385.5371,207.5)">
          <path
             d="M 0,0 C 0.5,0.679 1.456,0.823 2.135,0.323 2.813,-0.177 2.959,-1.133 2.459,-1.812 1.958,-2.49 1.003,-2.637 0.324,-2.136 -0.355,-1.636 -0.5,-0.68 0,0"
             style="fill:#27aae1;fill-opacity:1;fill-rule:nonzero;stroke:none"
             id="path834"
             inkscape:connector-curvature="0" />
        </g>
        <g
           id="g836"
           transform="translate(378.873,224.6299)">
          <path
             d="M 0,0 C 0.278,0.377 0.809,0.458 1.187,0.18 1.563,-0.098 1.644,-0.629 1.366,-1.006 1.088,-1.383 0.557,-1.464 0.18,-1.187 -0.198,-0.908 -0.278,-0.377 0,0"
             style="fill:#27aae1;fill-opacity:1;fill-rule:nonzero;stroke:none"
             id="path838"
             inkscape:connector-curvature="0" />
        </g>
        <g
           id="g840"
           transform="translate(378.1953,234.2959)">
          <path
             d="M 0,0 C 0.278,0.377 0.81,0.458 1.187,0.18 1.564,-0.099 1.645,-0.629 1.366,-1.006 1.088,-1.383 0.557,-1.464 0.18,-1.187 -0.198,-0.908 -0.278,-0.377 0,0"
             style="fill:#27aae1;fill-opacity:1;fill-rule:nonzero;stroke:none"
             id="path842"
             inkscape:connector-curvature="0" />
        </g>
        <g
           id="g844"
           transform="translate(407.7148,232.8887)">
          <path
             d="M 0,0 C 0.417,0.565 1.214,0.687 1.778,0.27 2.346,-0.147 2.466,-0.943 2.05,-1.51 1.632,-2.076 0.836,-2.196 0.27,-1.78 -0.296,-1.363 -0.417,-0.566 0,0"
             style="fill:#27aae1;fill-opacity:1;fill-rule:nonzero;stroke:none"
             id="path846"
             inkscape:connector-curvature="0" />
        </g>
        <g
           id="g848"
           transform="translate(415.3535,230.5283)">
          <path
             d="M 0,0 C 0.278,0.377 0.809,0.458 1.187,0.18 1.563,-0.098 1.644,-0.629 1.366,-1.006 1.088,-1.383 0.557,-1.464 0.18,-1.187 -0.198,-0.908 -0.278,-0.377 0,0"
             style="fill:#27aae1;fill-opacity:1;fill-rule:nonzero;stroke:none"
             id="path850"
             inkscape:connector-curvature="0" />
        </g>
        <g
           id="g852"
           transform="translate(381.7363,250.5479)">
          <path
             d="M 0,0 C 0.278,0.377 0.81,0.458 1.187,0.18 1.564,-0.099 1.645,-0.629 1.366,-1.006 1.089,-1.384 0.558,-1.464 0.181,-1.187 -0.197,-0.908 -0.277,-0.377 0,0"
             style="fill:#27aae1;fill-opacity:1;fill-rule:nonzero;stroke:none"
             id="path854"
             inkscape:connector-curvature="0" />
        </g>
        <g
           id="g856"
           transform="translate(422.916,231.0684)">
          <path
             d="M 0,0 C 0.306,0.415 0.89,0.503 1.305,0.198 1.72,-0.107 1.808,-0.691 1.503,-1.106 1.197,-1.521 0.613,-1.609 0.198,-1.305 -0.217,-0.999 -0.305,-0.415 0,0"
             style="fill:#27aae1;fill-opacity:1;fill-rule:nonzero;stroke:none"
             id="path858"
             inkscape:connector-curvature="0" />
        </g>
        <g
           id="g860"
           transform="translate(421.3008,241.3203)">
          <path
             d="M 0,0 C 0.5,0.679 1.456,0.824 2.135,0.324 2.813,-0.176 2.959,-1.132 2.459,-1.812 1.958,-2.49 1.003,-2.635 0.324,-2.135 -0.355,-1.635 -0.5,-0.679 0,0"
             style="fill:#27aae1;fill-opacity:1;fill-rule:nonzero;stroke:none"
             id="path862"
             inkscape:connector-curvature="0" />
        </g>
        <g
           id="g864"
           transform="translate(408.5,244.1113)">
          <path
             d="M 0,0 C 0.306,0.414 0.89,0.503 1.305,0.197 1.719,-0.108 1.808,-0.692 1.503,-1.107 1.196,-1.521 0.612,-1.61 0.197,-1.306 -0.218,-0.999 -0.306,-0.415 0,0"
             style="fill:#27aae1;fill-opacity:1;fill-rule:nonzero;stroke:none"
             id="path866"
             inkscape:connector-curvature="0" />
        </g>
        <g
           id="g868"
           transform="translate(397.002,255.1084)">
          <path
             d="M 0,0 C 0.307,0.415 0.891,0.503 1.306,0.198 1.72,-0.108 1.809,-0.692 1.502,-1.107 1.197,-1.521 0.613,-1.61 0.198,-1.306 -0.217,-0.999 -0.306,-0.415 0,0"
             style="fill:#27aae1;fill-opacity:1;fill-rule:nonzero;stroke:none"
             id="path870"
             inkscape:connector-curvature="0" />
        </g>
        <g
           id="g872"
           transform="translate(408.5859,263.54)">
          <path
             d="M 0,0 C 0.278,0.377 0.809,0.457 1.187,0.18 1.564,-0.099 1.644,-0.63 1.366,-1.007 1.088,-1.384 0.557,-1.465 0.18,-1.187 -0.198,-0.908 -0.278,-0.378 0,0"
             style="fill:#27aae1;fill-opacity:1;fill-rule:nonzero;stroke:none"
             id="path874"
             inkscape:connector-curvature="0" />
        </g>
        <g
           id="g876"
           transform="translate(423.5029,269.2002)">
          <path
             d="M 0,0 C 0.667,0.906 1.941,1.099 2.847,0.432 3.752,-0.235 3.944,-1.509 3.277,-2.415 2.61,-3.32 1.337,-3.514 0.432,-2.847 -0.475,-2.18 -0.667,-0.906 0,0"
             style="fill:#27aae1;fill-opacity:1;fill-rule:nonzero;stroke:none"
             id="path878"
             inkscape:connector-curvature="0" />
        </g>
        <g
           id="g880"
           transform="translate(426.0039,252.7119)">
          <path
             d="M 0,0 C 0.278,0.377 0.809,0.458 1.187,0.181 1.563,-0.098 1.644,-0.629 1.366,-1.006 1.088,-1.383 0.557,-1.465 0.18,-1.187 -0.198,-0.907 -0.278,-0.377 0,0"
             style="fill:#27aae1;fill-opacity:1;fill-rule:nonzero;stroke:none"
             id="path882"
             inkscape:connector-curvature="0" />
        </g>
        <g
           id="g884"
           transform="translate(444.0527,251.3242)">
          <path
             d="M 0,0 C 0.306,0.415 0.89,0.504 1.305,0.198 1.719,-0.107 1.808,-0.691 1.502,-1.106 1.196,-1.521 0.612,-1.609 0.197,-1.305 -0.218,-0.999 -0.307,-0.415 0,0"
             style="fill:#27aae1;fill-opacity:1;fill-rule:nonzero;stroke:none"
             id="path886"
             inkscape:connector-curvature="0" />
        </g>
        <g
           id="g888"
           transform="translate(447.7314,243.873)">
          <path
             d="M 0,0 C 0.277,0.377 0.809,0.458 1.187,0.181 1.563,-0.098 1.644,-0.629 1.365,-1.006 1.088,-1.383 0.557,-1.464 0.18,-1.187 -0.198,-0.907 -0.278,-0.377 0,0"
             style="fill:#27aae1;fill-opacity:1;fill-rule:nonzero;stroke:none"
             id="path890"
             inkscape:connector-curvature="0" />
        </g>
        <g
           id="g892"
           transform="translate(447.9736,235.4766)">
          <path
             d="M 0,0 C 0.277,0.377 0.81,0.458 1.187,0.181 1.563,-0.098 1.644,-0.629 1.365,-1.006 1.089,-1.383 0.557,-1.465 0.18,-1.187 -0.197,-0.909 -0.278,-0.377 0,0"
             style="fill:#27aae1;fill-opacity:1;fill-rule:nonzero;stroke:none"
             id="path894"
             inkscape:connector-curvature="0" />
        </g>
        <g
           id="g896"
           transform="translate(455.5742,243.3643)">
          <path
             d="M 0,0 C 0.5,0.68 1.456,0.824 2.136,0.324 2.814,-0.176 2.959,-1.132 2.459,-1.811 1.958,-2.489 1.003,-2.635 0.324,-2.135 -0.354,-1.635 -0.5,-0.679 0,0"
             style="fill:#27aae1;fill-opacity:1;fill-rule:nonzero;stroke:none"
             id="path898"
             inkscape:connector-curvature="0" />
        </g>
        <g
           id="g900"
           transform="translate(455.3096,258.3105)">
          <path
             d="M 0,0 C 0.277,0.377 0.81,0.458 1.187,0.181 1.563,-0.098 1.644,-0.629 1.366,-1.006 1.088,-1.384 0.557,-1.465 0.18,-1.187 -0.197,-0.908 -0.278,-0.377 0,0"
             style="fill:#27aae1;fill-opacity:1;fill-rule:nonzero;stroke:none"
             id="path902"
             inkscape:connector-curvature="0" />
        </g>
        <g
           id="g904"
           transform="translate(466.5898,235.1455)">
          <path
             d="M 0,0 C 0.278,0.377 0.809,0.458 1.187,0.181 1.563,-0.098 1.644,-0.629 1.366,-1.006 1.088,-1.383 0.557,-1.464 0.18,-1.187 -0.198,-0.908 -0.278,-0.377 0,0"
             style="fill:#27aae1;fill-opacity:1;fill-rule:nonzero;stroke:none"
             id="path906"
             inkscape:connector-curvature="0" />
        </g>
        <g
           id="g908"
           transform="translate(464.3184,211.3203)">
          <path
             d="M 0,0 C 0.307,0.415 0.891,0.503 1.306,0.198 1.72,-0.107 1.809,-0.691 1.503,-1.106 1.197,-1.521 0.613,-1.609 0.198,-1.305 -0.217,-0.999 -0.306,-0.415 0,0"
             style="fill:#27aae1;fill-opacity:1;fill-rule:nonzero;stroke:none"
             id="path910"
             inkscape:connector-curvature="0" />
        </g>
        <g
           id="g912"
           transform="translate(442.9121,214.4434)">
          <path
             d="M 0,0 C 0.611,0.83 1.78,1.008 2.609,0.396 3.44,-0.216 3.617,-1.384 3.006,-2.214 2.396,-3.043 1.227,-3.221 0.396,-2.608 -0.434,-1.998 -0.61,-0.83 0,0"
             style="fill:#27aae1;fill-opacity:1;fill-rule:nonzero;stroke:none"
             id="path914"
             inkscape:connector-curvature="0" />
        </g>
        <g
           id="g916"
           transform="translate(451.7568,206.1387)">
          <path
             d="M 0,0 C 0.306,0.415 0.89,0.503 1.305,0.197 1.719,-0.108 1.808,-0.692 1.502,-1.107 1.197,-1.521 0.613,-1.61 0.198,-1.306 -0.217,-0.999 -0.306,-0.415 0,0"
             style="fill:#27aae1;fill-opacity:1;fill-rule:nonzero;stroke:none"
             id="path918"
             inkscape:connector-curvature="0" />
        </g>
        <g
           id="g920"
           transform="translate(447.2988,187.9277)">
          <path
             d="m 0,0 c 0.5,0.679 1.456,0.823 2.135,0.323 0.68,-0.5 0.824,-1.455 0.324,-2.135 C 1.959,-2.49 1.003,-2.637 0.324,-2.136 -0.354,-1.636 -0.5,-0.68 0,0"
             style="fill:#27aae1;fill-opacity:1;fill-rule:nonzero;stroke:none"
             id="path922"
             inkscape:connector-curvature="0" />
        </g>
        <g
           id="g924"
           transform="translate(438.0937,187.0166)">
          <path
             d="M 0,0 C 0.473,0.641 1.375,0.777 2.016,0.306 2.657,-0.167 2.795,-1.069 2.321,-1.711 1.85,-2.353 0.946,-2.489 0.306,-2.017 -0.335,-1.544 -0.473,-0.642 0,0"
             style="fill:#27aae1;fill-opacity:1;fill-rule:nonzero;stroke:none"
             id="path926"
             inkscape:connector-curvature="0" />
        </g>
        <g
           id="g928"
           transform="translate(421.375,207.2324)">
          <path
             d="M 0,0 C 0.306,0.415 0.89,0.504 1.305,0.198 1.719,-0.107 1.808,-0.691 1.503,-1.106 1.197,-1.521 0.613,-1.609 0.198,-1.305 -0.217,-0.999 -0.306,-0.415 0,0"
             style="fill:#27aae1;fill-opacity:1;fill-rule:nonzero;stroke:none"
             id="path930"
             inkscape:connector-curvature="0" />
        </g>
        <g
           id="g932"
           transform="translate(431.4141,181.4521)">
          <path
             d="m 0,0 c 2.297,-1.691 2.79,-4.937 1.098,-7.235 -1.693,-2.298 -4.939,-2.79 -7.236,-1.099 -2.299,1.693 -2.79,4.939 -1.098,7.236 C -5.543,1.2 -2.297,1.692 0,0 m -5.987,-8.129 c 2.184,-1.608 5.271,-1.141 6.88,1.044 1.609,2.186 1.141,5.272 -1.044,6.88 -2.185,1.609 -5.271,1.142 -6.88,-1.044 -1.61,-2.184 -1.141,-5.27 1.044,-6.88"
             style="fill:#27aae1;fill-opacity:1;fill-rule:nonzero;stroke:none"
             id="path934"
             inkscape:connector-curvature="0" />
        </g>
        <g
           id="g936"
           transform="translate(427.1318,199.8848)">
          <path
             d="m 0,0 c 1.939,-1.429 2.355,-4.169 0.926,-6.109 -1.428,-1.94 -4.169,-2.355 -6.108,-0.927 -1.94,1.429 -2.356,4.17 -0.928,6.109 C -4.681,1.013 -1.94,1.429 0,0 m -5.031,-6.831 c 1.826,-1.346 4.407,-0.954 5.752,0.873 1.346,1.827 0.955,4.408 -0.872,5.753 -1.827,1.346 -4.408,0.954 -5.754,-0.873 -1.345,-1.826 -0.954,-4.407 0.874,-5.753"
             style="fill:#27aae1;fill-opacity:1;fill-rule:nonzero;stroke:none"
             id="path938"
             inkscape:connector-curvature="0" />
        </g>
        <g
           id="g940"
           transform="translate(443.7275,199.6719)">
          <path
             d="M 0,0 C 1.562,-1.15 1.897,-3.359 0.747,-4.923 -0.404,-6.485 -2.613,-6.82 -4.176,-5.669 -5.739,-4.518 -6.074,-2.31 -4.922,-0.747 -3.771,0.816 -1.563,1.151 0,0 m -4.025,-5.464 c 1.451,-1.069 3.499,-0.758 4.567,0.693 1.067,1.45 0.757,3.499 -0.693,4.566 -1.451,1.068 -3.499,0.758 -4.567,-0.692 -1.068,-1.451 -0.758,-3.499 0.693,-4.567"
             style="fill:#27aae1;fill-opacity:1;fill-rule:nonzero;stroke:none"
             id="path942"
             inkscape:connector-curvature="0" />
        </g>
        <g
           id="g944"
           transform="translate(461.6494,201.1172)">
          <path
             d="m 0,0 c 2.618,-1.929 3.179,-5.628 1.251,-8.244 -1.928,-2.618 -5.626,-3.179 -8.244,-1.25 -2.617,1.928 -3.178,5.626 -1.25,8.243 C -6.315,1.366 -2.618,1.928 0,0 m -6.842,-9.289 c 2.505,-1.846 6.044,-1.31 7.889,1.195 1.844,2.504 1.307,6.043 -1.198,7.889 -2.504,1.845 -6.042,1.308 -7.887,-1.197 -1.845,-2.504 -1.308,-6.043 1.196,-7.887"
             style="fill:#27aae1;fill-opacity:1;fill-rule:nonzero;stroke:none"
             id="path946"
             inkscape:connector-curvature="0" />
        </g>
        <g
           id="g948"
           transform="translate(429.9736,224.3428)">
          <path
             d="m 0,0 c 3.258,-2.4 3.956,-7.002 1.557,-10.26 -2.4,-3.259 -7.003,-3.956 -10.261,-1.557 -3.257,2.4 -3.956,7.003 -1.556,10.26 C -7.861,1.702 -3.258,2.398 0,0 m -8.553,-11.612 c 3.145,-2.317 7.588,-1.642 9.905,1.503 2.316,3.145 1.642,7.588 -1.503,9.904 -3.145,2.316 -7.588,1.642 -9.905,-1.502 -2.316,-3.146 -1.642,-7.588 1.503,-9.905"
             style="fill:#27aae1;fill-opacity:1;fill-rule:nonzero;stroke:none"
             id="path950"
             inkscape:connector-curvature="0" />
        </g>
        <g
           id="g952"
           transform="translate(408.9209,221.9375)">
          <path
             d="M 0,0 C 1.865,-1.373 2.264,-4.007 0.891,-5.871 -0.482,-7.736 -3.116,-8.135 -4.981,-6.762 -6.845,-5.389 -7.245,-2.755 -5.872,-0.89 -4.499,0.974 -1.865,1.373 0,0 m -4.83,-6.557 c 1.752,-1.29 4.226,-0.915 5.516,0.836 1.29,1.752 0.914,4.226 -0.837,5.516 -1.751,1.29 -4.226,0.915 -5.516,-0.836 -1.29,-1.752 -0.914,-4.226 0.837,-5.516"
             style="fill:#27aae1;fill-opacity:1;fill-rule:nonzero;stroke:none"
             id="path954"
             inkscape:connector-curvature="0" />
        </g>
        <g
           id="g956"
           transform="translate(412.1494,199.8564)">
          <path
             d="m 0,0 c 1.337,-0.985 1.623,-2.874 0.638,-4.211 -0.985,-1.337 -2.873,-1.623 -4.21,-0.639 -1.337,0.985 -1.624,2.875 -0.639,4.211 C -3.227,0.698 -1.337,0.985 0,0 m -3.421,-4.645 c 1.224,-0.901 2.952,-0.639 3.855,0.585 0.901,1.224 0.638,2.955 -0.585,3.855 -1.224,0.902 -2.954,0.64 -3.855,-0.585 -0.902,-1.224 -0.64,-2.953 0.585,-3.855"
             style="fill:#27aae1;fill-opacity:1;fill-rule:nonzero;stroke:none"
             id="path958"
             inkscape:connector-curvature="0" />
        </g>
        <g
           id="g960"
           transform="translate(395.1367,197.2158)">
          <path
             d="M 0,0 C 2.241,-1.651 2.721,-4.817 1.071,-7.059 -0.58,-9.3 -3.746,-9.78 -5.987,-8.13 -8.229,-6.479 -8.709,-3.313 -7.059,-1.071 -5.407,1.17 -2.241,1.65 0,0 m -5.836,-7.925 c 2.128,-1.566 5.134,-1.11 6.702,1.018 1.567,2.128 1.111,5.135 -1.017,6.702 -2.128,1.566 -5.135,1.11 -6.703,-1.018 -1.566,-2.128 -1.11,-5.133 1.018,-6.702"
             style="fill:#27aae1;fill-opacity:1;fill-rule:nonzero;stroke:none"
             id="path962"
             inkscape:connector-curvature="0" />
        </g>
        <g
           id="g964"
           transform="translate(394.1094,229.5811)">
          <path
             d="m 0,0 c 2.58,-1.9 3.133,-5.545 1.232,-8.125 -1.9,-2.581 -5.545,-3.134 -8.125,-1.234 -2.58,1.901 -3.132,5.546 -1.232,8.126 C -6.225,1.347 -2.58,1.9 0,0 m -6.742,-9.154 c 2.468,-1.816 5.952,-1.288 7.769,1.18 1.818,2.467 1.289,5.952 -1.177,7.769 -2.468,1.817 -5.953,1.288 -7.77,-1.179 -1.816,-2.467 -1.289,-5.953 1.178,-7.77"
             style="fill:#27aae1;fill-opacity:1;fill-rule:nonzero;stroke:none"
             id="path966"
             inkscape:connector-curvature="0" />
        </g>
        <g
           id="g968"
           transform="translate(371.9473,220.0908)">
          <path
             d="M 0,0 C 1.789,-1.318 2.172,-3.845 0.854,-5.635 -0.463,-7.424 -2.991,-7.807 -4.78,-6.489 -6.569,-5.171 -6.952,-2.645 -5.635,-0.855 -4.317,0.934 -1.789,1.318 0,0 m -4.629,-6.284 c 1.676,-1.236 4.044,-0.876 5.279,0.8 1.234,1.677 0.875,4.045 -0.801,5.279 -1.676,1.234 -4.044,0.875 -5.279,-0.801 -1.234,-1.676 -0.875,-4.044 0.801,-5.278"
             style="fill:#27aae1;fill-opacity:1;fill-rule:nonzero;stroke:none"
             id="path970"
             inkscape:connector-curvature="0" />
        </g>
        <g
           id="g972"
           transform="translate(374.2393,243.373)">
          <path
             d="M 0,0 C 1.526,-1.124 1.854,-3.278 0.73,-4.804 -0.394,-6.33 -2.549,-6.655 -4.075,-5.532 -5.6,-4.409 -5.927,-2.254 -4.804,-0.729 -3.68,0.797 -1.524,1.123 0,0 m -3.924,-5.328 c 1.412,-1.04 3.408,-0.737 4.449,0.676 1.04,1.412 0.737,3.407 -0.675,4.447 -1.412,1.04 -3.409,0.738 -4.449,-0.675 -1.04,-1.412 -0.737,-3.407 0.675,-4.448"
             style="fill:#27aae1;fill-opacity:1;fill-rule:nonzero;stroke:none"
             id="path974"
             inkscape:connector-curvature="0" />
        </g>
        <g
           id="g976"
           transform="translate(394.4268,243.8877)">
          <path
             d="m 0,0 c 1.903,-1.401 2.31,-4.09 0.909,-5.99 -1.401,-1.903 -4.088,-2.311 -5.99,-0.909 -1.902,1.401 -2.311,4.087 -0.909,5.99 C -4.589,0.992 -1.902,1.4 0,0 m -4.93,-6.694 c 1.788,-1.319 4.317,-0.936 5.634,0.853 1.317,1.789 0.934,4.318 -0.855,5.636 C -1.94,1.112 -4.468,0.729 -5.785,-1.061 -7.104,-2.85 -6.72,-5.376 -4.93,-6.694"
             style="fill:#27aae1;fill-opacity:1;fill-rule:nonzero;stroke:none"
             id="path978"
             inkscape:connector-curvature="0" />
        </g>
        <g
           id="g980"
           transform="translate(390.8281,265.6084)">
          <path
             d="M 0,0 C 1.789,-1.317 2.172,-3.845 0.854,-5.634 -0.463,-7.423 -2.99,-7.807 -4.779,-6.488 -6.568,-5.171 -6.952,-2.644 -5.634,-0.854 -4.316,0.935 -1.789,1.318 0,0 m -4.629,-6.283 c 1.676,-1.236 4.044,-0.875 5.279,0.8 1.235,1.676 0.875,4.045 -0.8,5.278 -1.677,1.235 -4.044,0.875 -5.279,-0.801 -1.235,-1.676 -0.876,-4.044 0.8,-5.277"
             style="fill:#27aae1;fill-opacity:1;fill-rule:nonzero;stroke:none"
             id="path982"
             inkscape:connector-curvature="0" />
        </g>
        <g
           id="g984"
           transform="translate(417.9404,258.0723)">
          <path
             d="m 0,0 c 2.693,-1.984 3.271,-5.788 1.286,-8.481 -1.983,-2.693 -5.788,-3.271 -8.48,-1.288 -2.694,1.984 -3.271,5.789 -1.287,8.482 C -6.498,1.406 -2.692,1.983 0,0 m -7.044,-9.563 c 2.579,-1.901 6.226,-1.347 8.125,1.233 1.901,2.58 1.348,6.225 -1.231,8.125 -2.58,1.901 -6.226,1.347 -8.126,-1.233 -1.901,-2.581 -1.348,-6.225 1.232,-8.125"
             style="fill:#27aae1;fill-opacity:1;fill-rule:nonzero;stroke:none"
             id="path986"
             inkscape:connector-curvature="0" />
        </g>
        <g
           id="g988"
           transform="translate(412.9658,278.0684)">
          <path
             d="m 0,0 c 1.6,-1.18 1.942,-3.44 0.764,-5.041 -1.179,-1.602 -3.441,-1.944 -5.041,-0.766 -1.602,1.18 -1.945,3.441 -0.766,5.041 C -3.863,0.836 -1.602,1.179 0,0 m -4.127,-5.602 c 1.488,-1.095 3.59,-0.776 4.686,0.711 1.095,1.489 0.778,3.589 -0.71,4.686 -1.489,1.096 -3.59,0.776 -4.687,-0.711 -1.096,-1.488 -0.776,-3.589 0.711,-4.686"
             style="fill:#27aae1;fill-opacity:1;fill-rule:nonzero;stroke:none"
             id="path990"
             inkscape:connector-curvature="0" />
        </g>
        <g
           id="g992"
           transform="translate(445.7793,268.5449)">
          <path
             d="M 0,0 C 1.825,-1.346 2.217,-3.927 0.872,-5.753 -0.475,-7.579 -3.056,-7.972 -4.882,-6.626 -6.707,-5.281 -7.1,-2.699 -5.754,-0.873 -4.408,0.954 -1.827,1.345 0,0 m -4.729,-6.421 c 1.712,-1.263 4.132,-0.895 5.396,0.818 1.262,1.714 0.895,4.135 -0.818,5.398 -1.714,1.262 -4.135,0.894 -5.399,-0.819 -1.262,-1.714 -0.893,-4.135 0.821,-5.397"
             style="fill:#27aae1;fill-opacity:1;fill-rule:nonzero;stroke:none"
             id="path994"
             inkscape:connector-curvature="0" />
        </g>
        <g
           id="g996"
           transform="translate(439.6855,249.1152)">
          <path
             d="M 0,0 C 2.128,-1.567 2.584,-4.574 1.017,-6.702 -0.551,-8.83 -3.558,-9.286 -5.686,-7.719 -7.813,-6.151 -8.27,-3.146 -6.702,-1.018 -5.135,1.111 -2.128,1.567 0,0 m -5.534,-7.514 c 2.014,-1.484 4.862,-1.052 6.346,0.963 1.484,2.015 1.052,4.862 -0.963,6.346 -2.015,1.484 -4.863,1.052 -6.346,-0.963 -1.484,-2.015 -1.053,-4.861 0.963,-6.346"
             style="fill:#27aae1;fill-opacity:1;fill-rule:nonzero;stroke:none"
             id="path998"
             inkscape:connector-curvature="0" />
        </g>
        <g
           id="g1000"
           transform="translate(441.9316,232.71)">
          <path
             d="m 0,0 c 1.601,-1.18 1.942,-3.44 0.764,-5.041 -1.179,-1.602 -3.44,-1.944 -5.041,-0.766 -1.601,1.18 -1.945,3.441 -0.765,5.041 C -3.863,0.836 -1.602,1.179 0,0 m -4.126,-5.603 c 1.487,-1.094 3.59,-0.775 4.685,0.712 1.096,1.489 0.778,3.59 -0.71,4.686 -1.489,1.096 -3.59,0.777 -4.686,-0.711 -1.096,-1.488 -0.777,-3.59 0.711,-4.687"
             style="fill:#27aae1;fill-opacity:1;fill-rule:nonzero;stroke:none"
             id="path1002"
             inkscape:connector-curvature="0" />
        </g>
        <g
           id="g1004"
           transform="translate(464.1074,226.9121)">
          <path
             d="M 0,0 C 2.128,-1.568 2.584,-4.574 1.017,-6.702 -0.551,-8.83 -3.557,-9.286 -5.686,-7.719 -7.813,-6.151 -8.27,-3.145 -6.702,-1.017 -5.135,1.111 -2.128,1.567 0,0 m -5.534,-7.514 c 2.014,-1.484 4.862,-1.052 6.346,0.963 1.484,2.015 1.052,4.863 -0.963,6.346 -2.015,1.484 -4.862,1.052 -6.346,-0.963 -1.484,-2.015 -1.053,-4.861 0.963,-6.346"
             style="fill:#27aae1;fill-opacity:1;fill-rule:nonzero;stroke:none"
             id="path1006"
             inkscape:connector-curvature="0" />
        </g>
        <g
           id="g1008"
           transform="translate(468.6289,247.499)">
          <path
             d="m 0,0 c 1.488,-1.096 1.808,-3.198 0.712,-4.686 -1.097,-1.488 -3.198,-1.806 -4.687,-0.71 -1.488,1.095 -1.805,3.197 -0.71,4.685 C -3.589,0.776 -1.487,1.096 0,0 m -3.823,-5.191 c 1.375,-1.013 3.316,-0.719 4.33,0.656 1.012,1.375 0.718,3.317 -0.657,4.33 -1.375,1.012 -3.318,0.717 -4.329,-0.657 -1.013,-1.375 -0.718,-3.317 0.656,-4.329"
             style="fill:#27aae1;fill-opacity:1;fill-rule:nonzero;stroke:none"
             id="path1010"
             inkscape:connector-curvature="0" />
        </g>
        <g
           id="g1012"
           transform="translate(423.8672,179.6299)">
          <path
             d="m 0,0 -0.093,-0.237 -4.58,1.794 0.092,0.236 z"
             style="fill:#27aae1;fill-opacity:1;fill-rule:nonzero;stroke:none"
             id="path1014"
             inkscape:connector-curvature="0" />
        </g>
        <g
           id="g1016"
           transform="translate(425.5322,192.2734)">
          <path
             d="m 0,0 1.818,-9.979 -0.251,-0.044 -1.818,9.978 z"
             style="fill:#27aae1;fill-opacity:1;fill-rule:nonzero;stroke:none"
             id="path1018"
             inkscape:connector-curvature="0" />
        </g>
        <g
           id="g1020"
           transform="translate(421.209,193.9111)">
          <path
             d="m 0,0 0.156,-0.2 -11.981,-9.404 -0.157,0.202 z"
             style="fill:#27aae1;fill-opacity:1;fill-rule:nonzero;stroke:none"
             id="path1022"
             inkscape:connector-curvature="0" />
        </g>
        <g
           id="g1024"
           transform="translate(428.1963,194.4648)">
          <path
             d="M 0,0 9.973,-7.347 9.822,-7.552 -0.151,-0.205 Z"
             style="fill:#27aae1;fill-opacity:1;fill-rule:nonzero;stroke:none"
             id="path1026"
             inkscape:connector-curvature="0" />
        </g>
        <g
           id="g1028"
           transform="translate(428.709,197.0049)">
          <path
             d="M 0,0 0.002,-0.255 9.638,-0.187 9.636,0.067 Z"
             style="fill:#27aae1;fill-opacity:1;fill-rule:nonzero;stroke:none"
             id="path1030"
             inkscape:connector-curvature="0" />
        </g>
        <g
           id="g1032"
           transform="translate(422.1582,206.0195)">
          <path
             d="M 0,0 0.746,-5.711 0.998,-5.679 0.253,0.032 Z"
             style="fill:#27aae1;fill-opacity:1;fill-rule:nonzero;stroke:none"
             id="path1034"
             inkscape:connector-curvature="0" />
        </g>
        <g
           id="g1036"
           transform="translate(423.8672,211.5557)">
          <path
             d="m 0,0 -1.473,-4.288 -0.241,0.082 1.473,4.289 z"
             style="fill:#27aae1;fill-opacity:1;fill-rule:nonzero;stroke:none"
             id="path1038"
             inkscape:connector-curvature="0" />
        </g>
        <g
           id="g1040"
           transform="translate(442.8496,214.0059)">
          <path
             d="m 0,0 -0.068,-0.246 -10.069,2.78 0.068,0.246 z"
             style="fill:#27aae1;fill-opacity:1;fill-rule:nonzero;stroke:none"
             id="path1042"
             inkscape:connector-curvature="0" />
        </g>
        <g
           id="g1044"
           transform="translate(446.0059,212.3223)">
          <path
             d="M 0,0 6.469,-6.239 6.291,-6.423 -0.176,-0.185 Z"
             style="fill:#27aae1;fill-opacity:1;fill-rule:nonzero;stroke:none"
             id="path1046"
             inkscape:connector-curvature="0" />
        </g>
        <g
           id="g1048"
           transform="translate(452.9482,205.4609)">
          <path
             d="M 0,0 2.555,-4.042 2.339,-4.178 -0.216,-0.136 Z"
             style="fill:#27aae1;fill-opacity:1;fill-rule:nonzero;stroke:none"
             id="path1050"
             inkscape:connector-curvature="0" />
        </g>
        <g
           id="g1052"
           transform="translate(454.0117,192.3887)">
          <path
             d="m 0,0 0.174,-0.186 -4.459,-4.195 -0.174,0.185 z"
             style="fill:#27aae1;fill-opacity:1;fill-rule:nonzero;stroke:none"
             id="path1054"
             inkscape:connector-curvature="0" />
        </g>
        <g
           id="g1056"
           transform="translate(457.167,220.9736)">
          <path
             d="m 0,0 0.122,-0.223 -11.483,-6.292 -0.121,0.223 z"
             style="fill:#27aae1;fill-opacity:1;fill-rule:nonzero;stroke:none"
             id="path1058"
             inkscape:connector-curvature="0" />
        </g>
        <g
           id="g1060"
           transform="translate(463.377,218.7725)">
          <path
             d="M 0,0 1.727,-7.383 1.479,-7.442 -0.248,-0.06 Z"
             style="fill:#27aae1;fill-opacity:1;fill-rule:nonzero;stroke:none"
             id="path1062"
             inkscape:connector-curvature="0" />
        </g>
        <g
           id="g1064"
           transform="translate(467.3857,234.584)">
          <path
             d="m 0,0 -3.756,-7.244 -0.225,0.118 3.755,7.243 z"
             style="fill:#27aae1;fill-opacity:1;fill-rule:nonzero;stroke:none"
             id="path1066"
             inkscape:connector-curvature="0" />
        </g>
        <g
           id="g1068"
           transform="translate(466.7139,241.4863)">
          <path
             d="M 0,0 0.375,-6.071 0.628,-6.056 0.254,0.016 Z"
             style="fill:#27aae1;fill-opacity:1;fill-rule:nonzero;stroke:none"
             id="path1070"
             inkscape:connector-curvature="0" />
        </g>
        <g
           id="g1072"
           transform="translate(456.9346,224.3906)">
          <path
             d="M 0,0 -0.081,-0.24 -13.764,4.357 -13.683,4.6 Z"
             style="fill:#27aae1;fill-opacity:1;fill-rule:nonzero;stroke:none"
             id="path1074"
             inkscape:connector-curvature="0" />
        </g>
        <g
           id="g1076"
           transform="translate(448.1904,242.8066)">
          <path
             d="m 0,0 0.199,-7.312 0.255,0.007 -0.2,7.312 z"
             style="fill:#27aae1;fill-opacity:1;fill-rule:nonzero;stroke:none"
             id="path1078"
             inkscape:connector-curvature="0" />
        </g>
        <g
           id="g1080"
           transform="translate(455.7207,242.6602)">
          <path
             d="m 0,0 -0.04,-0.251 -6.593,1.063 0.04,0.25 z"
             style="fill:#27aae1;fill-opacity:1;fill-rule:nonzero;stroke:none"
             id="path1082"
             inkscape:connector-curvature="0" />
        </g>
        <g
           id="g1084"
           transform="translate(445.3271,250.9434)">
          <path
             d="M 0,0 2.995,-6.947 2.761,-7.048 -0.234,-0.101 Z"
             style="fill:#27aae1;fill-opacity:1;fill-rule:nonzero;stroke:none"
             id="path1086"
             inkscape:connector-curvature="0" />
        </g>
        <g
           id="g1088"
           transform="translate(448.043,243.6787)">
          <path
             d="M 0,0 -0.042,-0.251 -6.516,0.83 -6.475,1.081 Z"
             style="fill:#27aae1;fill-opacity:1;fill-rule:nonzero;stroke:none"
             id="path1090"
             inkscape:connector-curvature="0" />
        </g>
        <g
           id="g1092"
           transform="translate(441.709,261.5293)">
          <path
             d="m 0,0 -3.801,-11.74 -0.242,0.077 3.801,11.741 z"
             style="fill:#27aae1;fill-opacity:1;fill-rule:nonzero;stroke:none"
             id="path1094"
             inkscape:connector-curvature="0" />
        </g>
        <g
           id="g1096"
           transform="translate(455.7676,258.2363)">
          <path
             d="m 0,0 -0.132,-0.218 -8.82,5.337 0.134,0.218 z"
             style="fill:#27aae1;fill-opacity:1;fill-rule:nonzero;stroke:none"
             id="path1098"
             inkscape:connector-curvature="0" />
        </g>
        <g
           id="g1100"
           transform="translate(433.1572,248.1279)">
          <path
             d="m 0,0 -0.144,-0.21 -5.887,4.022 0.142,0.209 z"
             style="fill:#27aae1;fill-opacity:1;fill-rule:nonzero;stroke:none"
             id="path1102"
             inkscape:connector-curvature="0" />
        </g>
        <g
           id="g1104"
           transform="translate(420.3525,252.9443)">
          <path
             d="M 0,0 5.81,-0.696 5.839,-0.443 0.03,0.253 Z"
             style="fill:#27aae1;fill-opacity:1;fill-rule:nonzero;stroke:none"
             id="path1106"
             inkscape:connector-curvature="0" />
        </g>
        <g
           id="g1108"
           transform="translate(424.2178,267.0947)">
          <path
             d="m 0,0 0.202,-0.153 -6.727,-8.848 -0.203,0.154 z"
             style="fill:#27aae1;fill-opacity:1;fill-rule:nonzero;stroke:none"
             id="path1110"
             inkscape:connector-curvature="0" />
        </g>
        <g
           id="g1112"
           transform="translate(409.5713,262.6396)">
          <path
             d="M 0,0 2.165,-4.069 1.941,-4.189 -0.224,-0.12 Z"
             style="fill:#27aae1;fill-opacity:1;fill-rule:nonzero;stroke:none"
             id="path1114"
             inkscape:connector-curvature="0" />
        </g>
        <g
           id="g1116"
           transform="translate(410.4902,271.8008)">
          <path
             d="m 0,0 -1.084,-8.052 -0.252,0.034 1.084,8.052 z"
             style="fill:#27aae1;fill-opacity:1;fill-rule:nonzero;stroke:none"
             id="path1118"
             inkscape:connector-curvature="0" />
        </g>
        <g
           id="g1120"
           transform="translate(408.5332,253.7051)">
          <path
             d="m 0,0 -0.026,-0.253 -9.987,1.034 0.028,0.252 z"
             style="fill:#27aae1;fill-opacity:1;fill-rule:nonzero;stroke:none"
             id="path1122"
             inkscape:connector-curvature="0" />
        </g>
        <g
           id="g1124"
           transform="translate(411.5996,247.9648)">
          <path
             d="m 0,0 -1.985,-3.911 -0.228,0.115 1.984,3.91 z"
             style="fill:#27aae1;fill-opacity:1;fill-rule:nonzero;stroke:none"
             id="path1126"
             inkscape:connector-curvature="0" />
        </g>
        <g
           id="g1128"
           transform="translate(408.6904,232.8164)">
          <path
             d="M 0,0 0.255,-0.006 0.508,9.922 0.254,9.928 Z"
             style="fill:#27aae1;fill-opacity:1;fill-rule:nonzero;stroke:none"
             id="path1130"
             inkscape:connector-curvature="0" />
        </g>
        <g
           id="g1132"
           transform="translate(423.9658,230.1992)">
          <path
             d="M 0,0 0.82,-4.607 0.57,-4.652 -0.25,-0.044 Z"
             style="fill:#27aae1;fill-opacity:1;fill-rule:nonzero;stroke:none"
             id="path1134"
             inkscape:connector-curvature="0" />
        </g>
        <g
           id="g1136"
           transform="translate(422.9043,239.1934)">
          <path
             d="M 0,0 0.951,-7.865 0.698,-7.896 -0.253,-0.03 Z"
             style="fill:#27aae1;fill-opacity:1;fill-rule:nonzero;stroke:none"
             id="path1138"
             inkscape:connector-curvature="0" />
        </g>
        <g
           id="g1140"
           transform="translate(416.6367,230.123)">
          <path
             d="M 0,0 0.021,-0.254 6.312,0.275 6.291,0.53 Z"
             style="fill:#27aae1;fill-opacity:1;fill-rule:nonzero;stroke:none"
             id="path1142"
             inkscape:connector-curvature="0" />
        </g>
        <g
           id="g1144"
           transform="translate(407.7705,233.0029)">
          <path
             d="m 0,0 -0.112,-0.229 -12.065,5.937 0.113,0.229 z"
             style="fill:#27aae1;fill-opacity:1;fill-rule:nonzero;stroke:none"
             id="path1146"
             inkscape:connector-curvature="0" />
        </g>
        <g
           id="g1148"
           transform="translate(407.6611,231.8535)">
          <path
             d="m 0,0 0.093,-0.237 -11.737,-4.632 -0.092,0.237 z"
             style="fill:#27aae1;fill-opacity:1;fill-rule:nonzero;stroke:none"
             id="path1150"
             inkscape:connector-curvature="0" />
        </g>
        <g
           id="g1152"
           transform="translate(388.8525,258.4844)">
          <path
             d="M 0,0 2.311,-14.029 2.06,-14.069 -0.251,-0.041 Z"
             style="fill:#27aae1;fill-opacity:1;fill-rule:nonzero;stroke:none"
             id="path1154"
             inkscape:connector-curvature="0" />
        </g>
        <g
           id="g1156"
           transform="translate(382.9062,249.5264)">
          <path
             d="M 0,0 6.026,-6.124 5.844,-6.303 -0.182,-0.18 Z"
             style="fill:#27aae1;fill-opacity:1;fill-rule:nonzero;stroke:none"
             id="path1158"
             inkscape:connector-curvature="0" />
        </g>
        <g
           id="g1160"
           transform="translate(375.4746,240.4902)">
          <path
             d="M 0,0 12.286,-0.199 12.29,0.057 0.005,0.255 Z"
             style="fill:#27aae1;fill-opacity:1;fill-rule:nonzero;stroke:none"
             id="path1162"
             inkscape:connector-curvature="0" />
        </g>
        <g
           id="g1164"
           transform="translate(380.2002,224.293)">
          <path
             d="M 0,0 0.035,-0.253 4.848,0.417 4.812,0.669 Z"
             style="fill:#27aae1;fill-opacity:1;fill-rule:nonzero;stroke:none"
             id="path1166"
             inkscape:connector-curvature="0" />
        </g>
        <g
           id="g1168"
           transform="translate(379.248,223.7705)">
          <path
             d="M 0,0 0.149,-0.207 -6.31,-4.827 -6.459,-4.62 Z"
             style="fill:#27aae1;fill-opacity:1;fill-rule:nonzero;stroke:none"
             id="path1170"
             inkscape:connector-curvature="0" />
        </g>
        <g
           id="g1172"
           transform="translate(378.96,233.2109)">
          <path
             d="m 0,0 0.447,-8.548 0.254,0.013 -0.447,8.55 z"
             style="fill:#27aae1;fill-opacity:1;fill-rule:nonzero;stroke:none"
             id="path1174"
             inkscape:connector-curvature="0" />
        </g>
        <g
           id="g1176"
           transform="translate(389.1221,219.4697)">
          <path
             d="m 0,0 -1.986,-11.708 -0.251,0.043 1.986,11.708 z"
             style="fill:#27aae1;fill-opacity:1;fill-rule:nonzero;stroke:none"
             id="path1178"
             inkscape:connector-curvature="0" />
        </g>
        <g
           id="g1180"
           transform="translate(393.6807,220.1914)">
          <path
             d="m 0,0 8.591,-14.23 -0.219,-0.131 -8.59,14.228 z"
             style="fill:#27aae1;fill-opacity:1;fill-rule:nonzero;stroke:none"
             id="path1182"
             inkscape:connector-curvature="0" />
        </g>
        <g
           id="g1184"
           transform="translate(407.0303,214.6484)">
          <path
             d="M 0,0 2.788,-14.381 2.539,-14.43 -0.25,-0.049 Z"
             style="fill:#27aae1;fill-opacity:1;fill-rule:nonzero;stroke:none"
             id="path1186"
             inkscape:connector-curvature="0" />
        </g>
        <g
           id="g1188"
           transform="translate(407.5498,196.709)">
          <path
             d="m 0,0 0.059,-0.248 -10.541,-2.509 -0.059,0.248 z"
             style="fill:#27aae1;fill-opacity:1;fill-rule:nonzero;stroke:none"
             id="path1190"
             inkscape:connector-curvature="0" />
        </g>
        <g
           id="g1192"
           transform="translate(410.5498,218.4482)">
          <path
             d="M 0,0 7.859,-0.204 7.865,0.051 0.007,0.254 Z"
             style="fill:#27aae1;fill-opacity:1;fill-rule:nonzero;stroke:none"
             id="path1194"
             inkscape:connector-curvature="0" />
        </g>
      </g>
    </g>
  </g>
</svg>
