<?xml version="1.0" encoding="UTF-8" standalone="no"?>
<!-- Created with Inkscape (http://www.inkscape.org/) -->

<svg
   xmlns:dc="http://purl.org/dc/elements/1.1/"
   xmlns:cc="http://creativecommons.org/ns#"
   xmlns:rdf="http://www.w3.org/1999/02/22-rdf-syntax-ns#"
   xmlns:svg="http://www.w3.org/2000/svg"
   xmlns="http://www.w3.org/2000/svg"
   xmlns:sodipodi="http://sodipodi.sourceforge.net/DTD/sodipodi-0.dtd"
   xmlns:inkscape="http://www.inkscape.org/namespaces/inkscape"
   width="908"
   height="681"
   viewBox="0 0 240.24167 180.18125"
   version="1.1"
   id="svg8"
   inkscape:version="0.92.3 (2405546, 2018-03-11)"
   sodipodi:docname="slide-bkgd1.svg">
  <defs
     id="defs2">
    <clipPath
       clipPathUnits="userSpaceOnUse"
       id="clipPath726">
      <path
         d="m 198,630 h 191.519 v 88.56 H 198 Z"
         id="path724"
         inkscape:connector-curvature="0" />
    </clipPath>
    <clipPath
       clipPathUnits="userSpaceOnUse"
       id="clipPath926">
      <path
         d="m 198.017,635.908 h 191.502 v 76.747 H 198.017 Z"
         id="path924"
         inkscape:connector-curvature="0" />
    </clipPath>
    <clipPath
       clipPathUnits="userSpaceOnUse"
       id="clipPath938">
      <path
         d="m 198,630 h 191.519 v 88.56 H 198 Z"
         id="path936"
         inkscape:connector-curvature="0" />
    </clipPath>
    <clipPath
       clipPathUnits="userSpaceOnUse"
       id="clipPath994">
      <path
         d="m 198.017,635.908 h 191.502 v 76.747 H 198.017 Z"
         id="path992"
         inkscape:connector-curvature="0" />
    </clipPath>
    <clipPath
       clipPathUnits="userSpaceOnUse"
       id="clipPath1022">
      <path
         d="m 198,630 h 191.519 v 88.56 H 198 Z"
         id="path1020"
         inkscape:connector-curvature="0" />
    </clipPath>
    <clipPath
       clipPathUnits="userSpaceOnUse"
       id="clipPath1038">
      <path
         d="m 198.017,635.908 h 191.502 v 76.747 H 198.017 Z"
         id="path1036"
         inkscape:connector-curvature="0" />
    </clipPath>
    <clipPath
       clipPathUnits="userSpaceOnUse"
       id="clipPath1054">
      <path
         d="m 198,630 h 191.519 v 88.56 H 198 Z"
         id="path1052"
         inkscape:connector-curvature="0" />
    </clipPath>
  </defs>
  <sodipodi:namedview
     id="base"
     pagecolor="#ffffff"
     bordercolor="#666666"
     borderopacity="1.0"
     inkscape:pageopacity="0.0"
     inkscape:pageshadow="2"
     inkscape:zoom="2.8"
     inkscape:cx="816.7"
     inkscape:cy="260.6"
     inkscape:document-units="mm"
     inkscape:current-layer="layer1"
     showgrid="true"
     units="px"
     inkscape:pagecheckerboard="false"
     fit-margin-top="0"
     fit-margin-left="0"
     fit-margin-right="0"
     fit-margin-bottom="0"
     inkscape:window-width="1920"
     inkscape:window-height="1051"
     inkscape:window-x="1920"
     inkscape:window-y="0"
     inkscape:window-maximized="1">
    <inkscape:grid
       type="xygrid"
       id="grid10"
       units="px"
       spacingx="1.3229167"
       spacingy="1.3229167" />
    <sodipodi:guide
       position="0,0"
       orientation="0,908"
       id="guide9418"
       inkscape:locked="false" />
    <sodipodi:guide
       position="240.2,0"
       orientation="-681,0"
       id="guide9420"
       inkscape:locked="false" />
    <sodipodi:guide
       position="240.2,180.2"
       orientation="0,-908"
       id="guide9422"
       inkscape:locked="false" />
    <sodipodi:guide
       position="0,180.2"
       orientation="681,0"
       id="guide9424"
       inkscape:locked="false" />
  </sodipodi:namedview>
  <metadata
     id="metadata5">
    <rdf:RDF>
      <cc:Work
         rdf:about="">
        <dc:format>image/svg+xml</dc:format>
        <dc:type
           rdf:resource="http://purl.org/dc/dcmitype/StillImage" />
        <dc:title />
      </cc:Work>
    </rdf:RDF>
  </metadata>
  <g
     inkscape:label="Layer 1"
     inkscape:groupmode="layer"
     id="layer1"
     transform="translate(0,-116.8186)">
    <g
       id="g6076"
       transform="translate(191.27509,102.80651)">
      <path
         d="m 14.893374,205.09704 c 0.58792,-0.79996 1.714606,-0.97151 2.513599,-0.38167 0.799957,0.58985 0.971514,1.71557 0.383594,2.51553 -0.588884,0.79996 -1.71557,0.97055 -2.515527,0.37974 -0.80092,-0.58792 -0.97055,-1.71364 -0.381666,-2.5136"
         style="opacity:0.3;fill:#8a8a8d;fill-opacity:1;fill-rule:nonzero;stroke:none;stroke-width:0.96380341"
         id="path1418"
         inkscape:connector-curvature="0" />
      <path
         d="m 26.592694,207.8247 c 0.267937,-0.36335 0.780681,-0.44142 1.144035,-0.17348 0.363354,0.26793 0.441422,0.77971 0.17252,1.14307 -0.267937,0.36335 -0.778753,0.44142 -1.142107,0.17444 -0.364317,-0.2689 -0.441422,-0.78068 -0.174448,-1.14403"
         style="opacity:0.3;fill:#8a8a8d;fill-opacity:1;fill-rule:nonzero;stroke:none;stroke-width:0.96380341"
         id="path1422"
         inkscape:connector-curvature="0" />
      <path
         d="m 9.935087,183.97808 c 0.346969,-0.47226 1.012957,-0.57346 1.486185,-0.22553 0.472263,0.3489 0.573463,1.01392 0.224566,1.48618 -0.346969,0.47227 -1.011994,0.57347 -1.486185,0.22553 -0.4712997,-0.34889 -0.572499,-1.01392 -0.224566,-1.48618"
         style="opacity:0.3;fill:#8a8a8d;fill-opacity:1;fill-rule:nonzero;stroke:none;stroke-width:0.96380341"
         id="path1426"
         inkscape:connector-curvature="0" />
      <path
         d="m -5.232576,183.06228 c 0.4819017,-0.65442 1.4032977,-0.79321 2.0577202,-0.31131 0.6534587,0.4819 0.794174,1.4033 0.3122723,2.05772 -0.4828655,0.65346 -1.4032977,0.79514 -2.0577202,0.31227 -0.6544225,-0.4819 -0.794174,-1.40329 -0.3122723,-2.05868"
         style="opacity:0.3;fill:#8a8a8d;fill-opacity:1;fill-rule:nonzero;stroke:none;stroke-width:0.96380341"
         id="path1430"
         inkscape:connector-curvature="0" />
      <path
         d="m -11.655458,166.55242 c 0.267937,-0.36335 0.779717,-0.44142 1.144035,-0.17348 0.36239,0.26793 0.440458,0.77971 0.17252,1.14307 -0.267937,0.36335 -0.779717,0.44142 -1.14307,0.17444 -0.364318,-0.2689 -0.441422,-0.78068 -0.173485,-1.14403"
         style="opacity:0.3;fill:#8a8a8d;fill-opacity:1;fill-rule:nonzero;stroke:none;stroke-width:0.96380341"
         id="path1434"
         inkscape:connector-curvature="0" />
      <path
         d="m -12.308628,157.2363 c 0.267937,-0.36335 0.780681,-0.44142 1.144035,-0.17348 0.363354,0.2689 0.441422,0.77971 0.17252,1.14307 -0.267937,0.36335 -0.779717,0.44142 -1.14307,0.17444 -0.364318,-0.2689 -0.441422,-0.78068 -0.173485,-1.14403"
         style="opacity:0.3;fill:#8a8a8d;fill-opacity:1;fill-rule:nonzero;stroke:none;stroke-width:0.96380341"
         id="path1438"
         inkscape:connector-curvature="0" />
      <path
         d="m 16.142366,158.59256 c 0.401906,-0.54455 1.170057,-0.66213 1.713642,-0.26023 0.547441,0.40191 0.663097,1.1691 0.262155,1.71557 -0.40287,0.54552 -1.170057,0.66117 -1.71557,0.26023 -0.545513,-0.40191 -0.662133,-1.17006 -0.260227,-1.71557"
         style="opacity:0.3;fill:#8a8a8d;fill-opacity:1;fill-rule:nonzero;stroke:none;stroke-width:0.96380341"
         id="path1442"
         inkscape:connector-curvature="0" />
      <path
         d="m 23.504571,160.86752 c 0.267937,-0.36335 0.779717,-0.44142 1.144035,-0.17348 0.36239,0.26793 0.440458,0.77971 0.17252,1.14307 -0.267937,0.36335 -0.779717,0.44142 -1.14307,0.17444 -0.364318,-0.2689 -0.441422,-0.78068 -0.173485,-1.14403"
         style="opacity:0.3;fill:#8a8a8d;fill-opacity:1;fill-rule:nonzero;stroke:none;stroke-width:0.96380341"
         id="path1446"
         inkscape:connector-curvature="0" />
      <path
         d="m -8.8958,141.57256 c 0.2679373,-0.36335 0.7806807,-0.44142 1.1440346,-0.17348 0.3633539,0.2689 0.441422,0.77971 0.1725208,1.14307 -0.2669735,0.36431 -0.7787531,0.44142 -1.142107,0.17444 -0.3643177,-0.2689 -0.4414219,-0.78068 -0.1744484,-1.14403"
         style="opacity:0.3;fill:#8a8a8d;fill-opacity:1;fill-rule:nonzero;stroke:none;stroke-width:0.96380341"
         id="path1450"
         inkscape:connector-curvature="0" />
      <path
         d="m 30.793334,160.34697 c 0.294924,-0.39998 0.857785,-0.48479 1.257763,-0.19083 0.399979,0.29396 0.484794,0.85682 0.190833,1.2568 -0.294923,0.39997 -0.857785,0.48479 -1.257763,0.19179 -0.399978,-0.29492 -0.484793,-0.85778 -0.190833,-1.25776"
         style="opacity:0.3;fill:#8a8a8d;fill-opacity:1;fill-rule:nonzero;stroke:none;stroke-width:0.96380341"
         id="path1454"
         inkscape:connector-curvature="0" />
      <path
         d="m 29.236599,150.46616 c 0.481902,-0.65442 1.403298,-0.79417 2.05772,-0.31227 0.653459,0.4819 0.794174,1.4033 0.312273,2.05868 -0.482866,0.65346 -1.403298,0.79321 -2.057721,0.31131 -0.654422,-0.4819 -0.794174,-1.4033 -0.312272,-2.05772"
         style="opacity:0.3;fill:#8a8a8d;fill-opacity:1;fill-rule:nonzero;stroke:none;stroke-width:0.96380341"
         id="path1458"
         inkscape:connector-curvature="0" />
      <path
         d="m 16.899145,147.77618 c 0.294924,-0.39901 0.857785,-0.48479 1.257763,-0.18987 0.399015,0.29396 0.484794,0.85682 0.190833,1.2568 -0.295887,0.39901 -0.858748,0.48479 -1.258727,0.1918 -0.399978,-0.29589 -0.484793,-0.85875 -0.189869,-1.25873"
         style="opacity:0.3;fill:#8a8a8d;fill-opacity:1;fill-rule:nonzero;stroke:none;stroke-width:0.96380341"
         id="path1462"
         inkscape:connector-curvature="0" />
      <path
         d="m 5.8173334,137.17714 c 0.2958876,-0.39998 0.8587488,-0.48479 1.2587272,-0.19083 0.3990146,0.29492 0.4847931,0.85778 0.1889055,1.25776 -0.29396,0.39901 -0.8568212,0.48479 -1.2567996,0.1918 -0.3999784,-0.29589 -0.4857569,-0.85875 -0.1908331,-1.25873"
         style="opacity:0.3;fill:#8a8a8d;fill-opacity:1;fill-rule:nonzero;stroke:none;stroke-width:0.96380341"
         id="path1466"
         inkscape:connector-curvature="0" />
      <path
         d="m 16.981936,129.05073 c 0.267937,-0.36335 0.779717,-0.44046 1.144035,-0.17348 0.363354,0.2689 0.440458,0.78068 0.17252,1.14403 -0.267937,0.36335 -0.779717,0.44142 -1.14307,0.17348 -0.364318,-0.2689 -0.441422,-0.77971 -0.173485,-1.14403"
         style="opacity:0.3;fill:#8a8a8d;fill-opacity:1;fill-rule:nonzero;stroke:none;stroke-width:0.96380341"
         id="path1470"
         inkscape:connector-curvature="0" />
      <path
         d="m 31.358991,123.59541 c 0.642857,-0.87321 1.870742,-1.05922 2.743948,-0.41636 0.872242,0.64285 1.057293,1.87074 0.414436,2.74395 -0.642857,0.87224 -1.869779,1.05922 -2.742021,0.41636 -0.87417,-0.64286 -1.05922,-1.87074 -0.416363,-2.74395"
         style="opacity:0.3;fill:#8a8a8d;fill-opacity:1;fill-rule:nonzero;stroke:none;stroke-width:0.96380341"
         id="path1474"
         inkscape:connector-curvature="0" />
      <path
         d="m 33.769463,139.48689 c 0.267937,-0.36335 0.779717,-0.44142 1.144035,-0.17445 0.36239,0.2689 0.440458,0.78068 0.17252,1.14404 -0.267937,0.36335 -0.779717,0.44238 -1.14307,0.17444 -0.364318,-0.26986 -0.441422,-0.78068 -0.173485,-1.14403"
         style="opacity:0.3;fill:#8a8a8d;fill-opacity:1;fill-rule:nonzero;stroke:none;stroke-width:0.96380341"
         id="path1478"
         inkscape:connector-curvature="0" />
      <path
         d="m 51.164958,140.82436 c 0.294924,-0.39998 0.857785,-0.48576 1.257763,-0.19083 0.399015,0.29396 0.484794,0.85682 0.18987,1.2568 -0.294924,0.39997 -0.857785,0.48479 -1.257764,0.19179 -0.399978,-0.29492 -0.485757,-0.85778 -0.189869,-1.25776"
         style="opacity:0.3;fill:#8a8a8d;fill-opacity:1;fill-rule:nonzero;stroke:none;stroke-width:0.96380341"
         id="path1482"
         inkscape:connector-curvature="0" />
      <path
         d="m 54.710501,148.00586 c 0.266974,-0.36335 0.779717,-0.44142 1.144035,-0.17445 0.36239,0.2689 0.440458,0.78068 0.171557,1.14404 -0.266974,0.36335 -0.778754,0.44142 -1.142107,0.17444 -0.364318,-0.26986 -0.441422,-0.78068 -0.173485,-1.14403"
         style="opacity:0.3;fill:#8a8a8d;fill-opacity:1;fill-rule:nonzero;stroke:none;stroke-width:0.96380341"
         id="path1486"
         inkscape:connector-curvature="0" />
      <path
         d="m 54.943934,156.09833 c 0.266974,-0.36335 0.780681,-0.44142 1.144035,-0.17445 0.36239,0.2689 0.440458,0.78068 0.171557,1.14404 -0.26601,0.36335 -0.778754,0.44238 -1.142107,0.17444 -0.363354,-0.26793 -0.441422,-0.78068 -0.173485,-1.14403"
         style="opacity:0.3;fill:#8a8a8d;fill-opacity:1;fill-rule:nonzero;stroke:none;stroke-width:0.96380341"
         id="path1490"
         inkscape:connector-curvature="0" />
      <path
         d="m 62.269418,148.49614 c 0.481902,-0.65539 1.403298,-0.79417 2.058684,-0.31227 0.653459,0.4819 0.79321,1.4033 0.311309,2.05772 -0.482866,0.65346 -1.403298,0.79417 -2.057721,0.31227 -0.653458,-0.4819 -0.794174,-1.4033 -0.312272,-2.05772"
         style="opacity:0.3;fill:#8a8a8d;fill-opacity:1;fill-rule:nonzero;stroke:none;stroke-width:0.96380341"
         id="path1494"
         inkscape:connector-curvature="0" />
      <path
         d="m 62.014396,134.09094 c 0.266974,-0.36335 0.780681,-0.44142 1.144035,-0.17445 0.36239,0.2689 0.440458,0.78068 0.17252,1.14404 -0.267937,0.36431 -0.779717,0.44238 -1.14307,0.17444 -0.363354,-0.2689 -0.441422,-0.78068 -0.173485,-1.14403"
         style="opacity:0.3;fill:#8a8a8d;fill-opacity:1;fill-rule:nonzero;stroke:none;stroke-width:0.96380341"
         id="path1498"
         inkscape:connector-curvature="0" />
      <path
         d="m 72.886291,156.41745 c 0.267937,-0.36335 0.779717,-0.44142 1.144035,-0.17445 0.36239,0.2689 0.440458,0.78068 0.17252,1.14404 -0.267937,0.36335 -0.779717,0.44142 -1.14307,0.17444 -0.364318,-0.2689 -0.441422,-0.78068 -0.173485,-1.14403"
         style="opacity:0.3;fill:#8a8a8d;fill-opacity:1;fill-rule:nonzero;stroke:none;stroke-width:0.96380341"
         id="path1502"
         inkscape:connector-curvature="0" />
      <path
         d="m 70.697108,179.38026 c 0.295888,-0.39998 0.858749,-0.48479 1.258727,-0.19083 0.399015,0.29396 0.484793,0.85682 0.189869,1.2568 -0.294923,0.39997 -0.857785,0.48479 -1.257763,0.19179 -0.399978,-0.29492 -0.485757,-0.85778 -0.190833,-1.25776"
         style="opacity:0.3;fill:#8a8a8d;fill-opacity:1;fill-rule:nonzero;stroke:none;stroke-width:0.96380341"
         id="path1506"
         inkscape:connector-curvature="0" />
      <path
         d="m 50.065643,176.3702 c 0.588884,-0.79996 1.71557,-0.97151 2.514563,-0.38167 0.800921,0.58985 0.971514,1.71557 0.38263,2.51553 -0.58792,0.79899 -1.714606,0.97055 -2.515527,0.37974 -0.799957,-0.58792 -0.969586,-1.71364 -0.381666,-2.5136"
         style="opacity:0.3;fill:#8a8a8d;fill-opacity:1;fill-rule:nonzero;stroke:none;stroke-width:0.96380341"
         id="path1510"
         inkscape:connector-curvature="0" />
      <path
         d="m 58.590195,184.3743 c 0.294924,-0.39998 0.857785,-0.48479 1.257763,-0.18987 0.399015,0.29396 0.484794,0.85682 0.18987,1.2568 -0.29396,0.39901 -0.856822,0.48479 -1.2568,0.1918 -0.399978,-0.29589 -0.485757,-0.85875 -0.190833,-1.25873"
         style="opacity:0.3;fill:#8a8a8d;fill-opacity:1;fill-rule:nonzero;stroke:none;stroke-width:0.96380341"
         id="path1514"
         inkscape:connector-curvature="0" />
      <path
         d="m 54.29356,201.92613 c 0.481902,-0.65442 1.403298,-0.79321 2.05772,-0.31131 0.655387,0.4819 0.794174,1.40234 0.312273,2.05772 -0.481902,0.65346 -1.403298,0.79514 -2.057721,0.31227 -0.653458,-0.4819 -0.794174,-1.40329 -0.312272,-2.05868"
         style="opacity:0.3;fill:#8a8a8d;fill-opacity:1;fill-rule:nonzero;stroke:none;stroke-width:0.96380341"
         id="path1518"
         inkscape:connector-curvature="0" />
      <path
         d="m 45.421653,202.80425 c 0.455879,-0.6178 1.32523,-0.74888 1.943028,-0.29492 0.617798,0.45588 0.750802,1.32523 0.29396,1.94399 -0.453952,0.61876 -1.32523,0.74984 -1.942064,0.29492 -0.617798,-0.45588 -0.750803,-1.32523 -0.294924,-1.94399"
         style="opacity:0.3;fill:#8a8a8d;fill-opacity:1;fill-rule:nonzero;stroke:none;stroke-width:0.96380341"
         id="path1522"
         inkscape:connector-curvature="0" />
      <path
         d="m 29.308113,183.32019 c 0.294924,-0.39998 0.857785,-0.48576 1.257763,-0.19083 0.399015,0.29396 0.484794,0.85682 0.190833,1.2568 -0.294923,0.39997 -0.857785,0.48479 -1.257763,0.19179 -0.399978,-0.29492 -0.485757,-0.85778 -0.190833,-1.25776"
         style="opacity:0.3;fill:#8a8a8d;fill-opacity:1;fill-rule:nonzero;stroke:none;stroke-width:0.96380341"
         id="path1526"
         inkscape:connector-curvature="0" />
      <path
         d="m 38.983832,208.16733 c 2.213856,1.62979 2.689011,4.7583 1.058256,6.97312 -1.631719,2.21482 -4.760225,2.68901 -6.974081,1.05922 -2.215784,-1.63172 -2.689012,-4.76023 -1.058256,-6.97408 1.631719,-2.21482 4.760225,-2.68902 6.974081,-1.05826 m -5.770291,7.83476 c 2.104947,1.54979 5.080208,1.0997 6.630967,-1.00621 1.55076,-2.10688 1.0997,-5.08117 -1.00621,-6.63097 -2.105911,-1.55076 -5.080208,-1.10066 -6.630968,1.00621 -1.551723,2.10495 -1.099699,5.07924 1.006211,6.63097"
         style="opacity:0.3;fill:#8a8a8d;fill-opacity:1;fill-rule:nonzero;stroke:none;stroke-width:0.96380341"
         id="path1530"
         inkscape:connector-curvature="0" />
      <path
         d="m 34.856537,190.40183 c 1.868815,1.37728 2.269757,4.0181 0.892482,5.88787 -1.376311,1.86978 -4.018096,2.26976 -5.886911,0.89345 -1.869779,-1.37727 -2.270721,-4.01906 -0.89441,-5.88787 1.377275,-1.86978 4.01906,-2.27073 5.888839,-0.89345 m -4.848895,6.58374 c 1.759905,1.29728 4.247482,0.91947 5.543797,-0.8414 1.29728,-1.76087 0.920432,-4.24844 -0.840436,-5.54476 -1.760869,-1.29728 -4.248446,-0.91947 -5.545725,0.8414 -1.296316,1.75991 -0.919468,4.24748 0.842364,5.54476"
         style="opacity:0.3;fill:#8a8a8d;fill-opacity:1;fill-rule:nonzero;stroke:none;stroke-width:0.96380341"
         id="path1534"
         inkscape:connector-curvature="0" />
      <path
         d="m 50.851529,190.60703 c 1.505461,1.10837 1.828335,3.23742 0.719961,4.7448 -1.109338,1.50546 -3.238379,1.82834 -4.744804,0.719 -1.506425,-1.10934 -1.829299,-3.23741 -0.718997,-4.74384 1.109337,-1.50642 3.237415,-1.8293 4.74384,-0.71996 m -3.879309,5.26622 c 1.398479,1.03031 3.372348,0.73056 4.40169,-0.66791 1.028379,-1.39752 0.7296,-3.37235 -0.667915,-4.40073 -1.398479,-1.02934 -3.372348,-0.73056 -4.40169,0.66695 -1.029342,1.39848 -0.730563,3.37235 0.667915,4.40169"
         style="opacity:0.3;fill:#8a8a8d;fill-opacity:1;fill-rule:nonzero;stroke:none;stroke-width:0.96380341"
         id="path1538"
         inkscape:connector-curvature="0" />
      <path
         d="m 68.124717,189.21404 c 2.523237,1.85918 3.063931,5.42429 1.205718,7.9456 -1.858213,2.52323 -5.422358,3.06393 -7.945595,1.20475 -2.522274,-1.85821 -3.062967,-5.42236 -1.204754,-7.94463 1.858213,-2.52228 5.421394,-3.06393 7.944631,-1.20572 m -6.594343,8.95277 c 2.414328,1.77918 5.825228,1.26258 7.603445,-1.15175 1.777254,-2.41336 1.259691,-5.82426 -1.154636,-7.60344 -2.413364,-1.77822 -5.8233,-1.26066 -7.601518,1.15367 -1.778217,2.41337 -1.260654,5.82427 1.152709,7.60152"
         style="opacity:0.3;fill:#8a8a8d;fill-opacity:1;fill-rule:nonzero;stroke:none;stroke-width:0.96380341"
         id="path1542"
         inkscape:connector-curvature="0" />
      <path
         d="m 37.595473,166.82913 c 3.140071,2.31313 3.812806,6.74855 1.500642,9.88862 -2.313128,3.14104 -6.749515,3.81281 -9.889587,1.50064 -3.139107,-2.31312 -3.812806,-6.74951 -1.499678,-9.88862 2.312165,-3.14103 6.748552,-3.81184 9.888623,-1.50064 m -8.24341,11.19168 c 3.031161,2.23314 7.31334,1.58257 9.546472,-1.44859 2.232169,-3.03116 1.582565,-7.31334 -1.448596,-9.54551 -3.031162,-2.23217 -7.31334,-1.58257 -9.546473,1.44763 -2.232169,3.03213 -1.582565,7.31334 1.448597,9.54647"
         style="opacity:0.3;fill:#8a8a8d;fill-opacity:1;fill-rule:nonzero;stroke:none;stroke-width:0.96380341"
         id="path1546"
         inkscape:connector-curvature="0" />
      <path
         d="m 17.30481,169.14737 c 1.797493,1.3233 2.182051,3.86196 0.858749,5.65849 -1.323302,1.79749 -3.86196,2.18205 -5.659454,0.85875 -1.796529,-1.3233 -2.182051,-3.86196 -0.858749,-5.65945 1.323303,-1.79653 3.861961,-2.18109 5.659454,-0.85779 m -4.65517,6.31966 c 1.688583,1.24331 4.073033,0.88188 5.316339,-0.80574 1.243306,-1.68858 0.880916,-4.07303 -0.806703,-5.31634 -1.68762,-1.24331 -4.073033,-0.88188 -5.31634,0.80574 -1.243306,1.68858 -0.880916,4.07303 0.806704,5.31634"
         style="opacity:0.3;fill:#8a8a8d;fill-opacity:1;fill-rule:nonzero;stroke:none;stroke-width:0.96380341"
         id="path1550"
         inkscape:connector-curvature="0" />
      <path
         d="m 20.416449,190.4292 c 1.288605,0.94935 1.564253,2.76997 0.614907,4.05858 -0.949347,1.2886 -2.769008,1.56425 -4.057613,0.61587 -1.288605,-0.94935 -1.565216,-2.77094 -0.61587,-4.05858 0.948382,-1.2886 2.769971,-1.56522 4.058576,-0.61587 m -3.297171,4.47687 c 1.179695,0.86838 2.845147,0.61587 3.715462,-0.56383 0.868387,-1.17969 0.614906,-2.84804 -0.563825,-3.71546 -1.179696,-0.86935 -2.847076,-0.61683 -3.715462,0.56382 -0.869351,1.1797 -0.616835,2.84612 0.563825,3.71547"
         style="opacity:0.3;fill:#8a8a8d;fill-opacity:1;fill-rule:nonzero;stroke:none;stroke-width:0.96380341"
         id="path1554"
         inkscape:connector-curvature="0" />
      <path
         d="m 4.019551,192.97422 c 2.1598834,1.59124 2.622509,4.64264 1.0322334,6.80349 -1.5912394,2.15988 -4.6426409,2.62251 -6.8025243,1.03223 -2.1608472,-1.59124 -2.6234728,-4.64264 -1.0331972,-6.80349 1.5922032,-2.15988 4.6436047,-2.62251 6.8034881,-1.03223 m -5.6247566,7.63814 c 2.05097363,1.50932 4.9481666,1.06982 6.4594103,-0.98115 1.5102799,-2.05097 1.0707856,-4.94913 -0.980188,-6.45941 -2.0509736,-1.50932 -4.9491304,-1.06982 -6.4603741,0.98115 -1.5093161,2.05098 -1.0698218,4.9472 0.9811518,6.45941"
         style="opacity:0.3;fill:#8a8a8d;fill-opacity:1;fill-rule:nonzero;stroke:none;stroke-width:0.96380341"
         id="path1558"
         inkscape:connector-curvature="0" />
      <path
         d="m 3.0294358,161.78044 c 2.4866127,1.83123 3.019596,5.34429 1.1874058,7.8309 -1.8312265,2.48758 -5.3442898,3.02056 -7.8309026,1.18934 -2.4866127,-1.83219 -3.0186322,-5.34526 -1.1874057,-7.83187 1.8312264,-2.48661 5.34428975,-3.0196 7.8309025,-1.18837 m -6.4979625,8.82266 c 2.3786668,1.75026 5.7365578,1.24137 7.4877886,-1.13729 1.7521945,-2.3777 1.2423426,-5.73656 -1.1343966,-7.48779 -2.37866678,-1.75123 -5.7375216,-1.24138 -7.4887523,1.13632 -1.750267,2.37771 -1.2423426,5.73753 1.1353603,7.48876"
         style="opacity:0.3;fill:#8a8a8d;fill-opacity:1;fill-rule:nonzero;stroke:none;stroke-width:0.96380341"
         id="path1562"
         inkscape:connector-curvature="0" />
      <path
         d="m -18.330471,170.92722 c 1.724244,1.27029 2.093381,3.70582 0.823088,5.43103 -1.269329,1.72425 -3.705824,2.09338 -5.430068,0.82309 -1.724244,-1.27029 -2.093381,-3.70486 -0.824052,-5.43007 1.270293,-1.72424 3.706788,-2.09434 5.431032,-0.82405 m -4.461446,6.05654 c 1.615335,1.19126 3.897621,0.84429 5.087918,-0.77104 1.189334,-1.6163 0.843328,-3.89859 -0.772006,-5.08792 -1.615335,-1.18933 -3.897621,-0.84333 -5.087918,0.77201 -1.189334,1.61533 -0.843328,3.89762 0.772006,5.08695"
         style="opacity:0.3;fill:#8a8a8d;fill-opacity:1;fill-rule:nonzero;stroke:none;stroke-width:0.96380341"
         id="path1566"
         inkscape:connector-curvature="0" />
      <path
         d="m -16.121434,148.48776 c 1.470764,1.08332 1.786891,3.15935 0.703576,4.63011 -1.083315,1.47077 -3.160311,1.784 -4.631075,0.70165 -1.4698,-1.08235 -1.784964,-3.15935 -0.702612,-4.62915 1.083315,-1.47076 3.161275,-1.78496 4.630111,-0.70261 m -3.781965,5.13514 c 1.360891,1.00236 3.284642,0.71033 4.287962,-0.65153 1.002355,-1.36089 0.710323,-3.28367 -0.650568,-4.28603 -1.36089,-1.00236 -3.285605,-0.71129 -4.287961,0.65057 -1.002355,1.36089 -0.710323,3.28368 0.650567,4.28699"
         style="opacity:0.3;fill:#8a8a8d;fill-opacity:1;fill-rule:nonzero;stroke:none;stroke-width:0.96380341"
         id="path1570"
         inkscape:connector-curvature="0" />
      <path
         d="m 3.3353469,147.99169 c 1.8341179,1.35029 2.2263858,3.94196 0.8760973,5.77318 -1.3502886,1.83412 -3.94002828,2.22735 -5.7731823,0.8761 -1.8331541,-1.35029 -2.2273497,-3.93906 -0.8760973,-5.77318 1.3502885,-1.83219 3.9400283,-2.22542 5.7731823,-0.8761 m -4.7515507,6.4517 c 1.72328045,1.27126 4.1607392,0.90212 5.4300683,-0.82212 1.2693291,-1.72425 0.9001924,-4.16171 -0.8240519,-5.432 -1.7242443,-1.26933 -4.16073925,-0.90019 -5.4300683,0.82502 -1.2712567,1.72424 -0.9011562,4.15881 0.8240519,5.4291"
         style="opacity:0.3;fill:#8a8a8d;fill-opacity:1;fill-rule:nonzero;stroke:none;stroke-width:0.96380341"
         id="path1574"
         inkscape:connector-curvature="0" />
      <path
         d="m -0.13309231,127.0572 c 1.72424431,1.26933 2.09338101,3.70582 0.8230881,5.43007 -1.26932907,1.72424 -3.70486019,2.09434 -5.42910449,0.82309 -1.7242443,-1.26933 -2.0943448,-3.70486 -0.8240519,-5.43007 1.2702929,-1.72425 3.705824,-2.09338 5.43006829,-0.82309 m -4.46144589,6.05558 c 1.6153345,1.19126 3.89762091,0.84332 5.08791809,-0.77105 1.19029721,-1.61533 0.84332801,-3.89858 -0.77104271,-5.08695 -1.61629828,-1.1903 -3.89762088,-0.84333 -5.08791808,0.77201 -1.1902972,1.61533 -0.8442918,3.89762 0.7710427,5.08599"
         style="opacity:0.3;fill:#8a8a8d;fill-opacity:1;fill-rule:nonzero;stroke:none;stroke-width:0.96380341"
         id="path1578"
         inkscape:connector-curvature="0" />
      <path
         d="m 25.997834,134.32052 c 2.595523,1.91219 3.152601,5.57849 1.239451,8.17402 -1.911222,2.59552 -5.578494,3.1526 -8.173053,1.24138 -2.596486,-1.91219 -3.1526,-5.57946 -1.240415,-8.17499 1.911223,-2.59552 5.579458,-3.15163 8.174017,-1.24041 m -6.789031,9.21685 c 2.485649,1.83219 6.00064,1.29824 7.830902,-1.18837 1.832191,-2.48661 1.299207,-5.99967 -1.186442,-7.8309 -2.486612,-1.83219 -6.000639,-1.29824 -7.831866,1.18837 -1.83219,2.48758 -1.299207,5.99968 1.187406,7.8309"
         style="opacity:0.3;fill:#8a8a8d;fill-opacity:1;fill-rule:nonzero;stroke:none;stroke-width:0.96380341"
         id="path1582"
         inkscape:connector-curvature="0" />
      <path
         d="m 21.203298,115.04821 c 1.542085,1.13729 1.871706,3.31548 0.736346,4.85853 -1.136324,1.54402 -3.316448,1.87364 -4.858533,0.73828 -1.544013,-1.13729 -1.874598,-3.31645 -0.738273,-4.85854 1.137288,-1.54401 3.316447,-1.87459 4.86046,-0.73827 m -3.977617,5.39923 c 1.43414,1.05536 3.460055,0.74791 4.516383,-0.68527 1.055365,-1.4351 0.749839,-3.45909 -0.6843,-4.51638 -1.435104,-1.05633 -3.460054,-0.74791 -4.517347,0.68526 -1.056328,1.43414 -0.747911,3.45909 0.685264,4.51639"
         style="opacity:0.3;fill:#8a8a8d;fill-opacity:1;fill-rule:nonzero;stroke:none;stroke-width:0.96380341"
         id="path1586"
         inkscape:connector-curvature="0" />
      <path
         d="m 52.829061,124.227 c 1.758941,1.29728 2.136752,3.78486 0.840437,5.54476 -1.298244,1.75991 -3.78582,2.13868 -5.545725,0.8414 -1.758941,-1.29631 -2.137716,-3.78485 -0.840437,-5.54476 1.29728,-1.76087 3.784856,-2.13772 5.545725,-0.8414 m -4.557826,6.18858 c 1.650031,1.21729 3.982435,0.86261 5.200683,-0.78839 1.21632,-1.65196 0.862604,-3.98533 -0.788391,-5.20261 -1.651959,-1.21632 -3.985327,-0.86164 -5.203575,0.78935 -1.21632,1.65196 -0.860676,3.98533 0.791283,5.20165"
         style="opacity:0.3;fill:#8a8a8d;fill-opacity:1;fill-rule:nonzero;stroke:none;stroke-width:0.96380341"
         id="path1590"
         inkscape:connector-curvature="0" />
      <path
         d="m 46.955835,142.95341 c 2.050974,1.51028 2.490468,4.40844 0.980188,6.45941 -1.511244,2.05097 -4.4094,2.49047 -6.460374,0.98019 -2.05001,-1.51125 -2.490468,-4.40747 -0.979224,-6.45845 1.51028,-2.05194 4.408436,-2.49143 6.45941,-0.98115 m -5.333688,7.24202 c 1.9411,1.43028 4.686012,1.01392 6.116296,-0.92814 1.430285,-1.94207 1.013922,-4.68602 -0.928142,-6.1163 -1.942064,-1.43028 -4.686976,-1.01392 -6.116297,0.92814 -1.430284,1.94207 -1.014885,4.68505 0.928143,6.1163"
         style="opacity:0.3;fill:#8a8a8d;fill-opacity:1;fill-rule:nonzero;stroke:none;stroke-width:0.96380341"
         id="path1594"
         inkscape:connector-curvature="0" />
      <path
         d="m 49.120634,158.76479 c 1.543049,1.13729 1.871706,3.31548 0.736346,4.85853 -1.136324,1.54402 -3.315484,1.87364 -4.858533,0.73828 -1.543049,-1.13729 -1.874598,-3.31645 -0.73731,-4.85854 1.136325,-1.54401 3.315484,-1.87459 4.859497,-0.73827 m -3.976653,5.40019 c 1.433176,1.0544 3.460054,0.74695 4.515419,-0.68623 1.056329,-1.4351 0.749839,-3.46005 -0.6843,-4.51638 -1.435104,-1.05633 -3.460054,-0.74888 -4.516383,0.68526 -1.056329,1.43414 -0.748875,3.46006 0.685264,4.51735"
         style="opacity:0.3;fill:#8a8a8d;fill-opacity:1;fill-rule:nonzero;stroke:none;stroke-width:0.96380341"
         id="path1598"
         inkscape:connector-curvature="0" />
      <path
         d="m 70.493745,164.35283 c 2.050974,1.51124 2.490468,4.40844 0.980188,6.45941 -1.511244,2.05097 -4.408437,2.49047 -6.460374,0.98019 -2.05001,-1.51125 -2.490468,-4.40844 -0.979224,-6.45941 1.51028,-2.05098 4.408436,-2.49047 6.45941,-0.98019 m -5.333688,7.24202 c 1.9411,1.43028 4.686012,1.01392 6.116296,-0.92814 1.430285,-1.94207 1.013922,-4.68698 -0.928142,-6.1163 -1.942064,-1.43028 -4.686012,-1.01392 -6.116297,0.92814 -1.430284,1.94207 -1.014885,4.68505 0.928143,6.1163"
         style="opacity:0.3;fill:#8a8a8d;fill-opacity:1;fill-rule:nonzero;stroke:none;stroke-width:0.96380341"
         id="path1602"
         inkscape:connector-curvature="0" />
      <path
         d="m 74.851582,144.5111 c 1.434139,1.05633 1.742557,3.08224 0.686228,4.51638 -1.057292,1.43414 -3.082243,1.74063 -4.517346,0.6843 -1.43414,-1.05536 -1.739666,-3.08128 -0.684301,-4.51542 1.056329,-1.43317 3.082243,-1.74159 4.515419,-0.68526 m -3.68462,5.0031 c 1.325229,0.97634 3.195972,0.69298 4.173268,-0.63225 0.975369,-1.32523 0.692011,-3.19694 -0.633219,-4.17327 -1.325229,-0.97537 -3.197899,-0.69105 -4.172304,0.63322 -0.976333,1.32523 -0.692011,3.19693 0.632255,4.1723"
         style="opacity:0.3;fill:#8a8a8d;fill-opacity:1;fill-rule:nonzero;stroke:none;stroke-width:0.96380341"
         id="path1606"
         inkscape:connector-curvature="0" />
      <path
         d="m 31.710104,209.92357 -0.08963,0.22842 -4.414219,-1.72906 0.08867,-0.22746 z"
         style="opacity:0.3;fill:#8a8a8d;fill-opacity:1;fill-rule:nonzero;stroke:none;stroke-width:0.96380341"
         id="path1610"
         inkscape:connector-curvature="0" />
      <path
         d="m 33.314837,197.73773 1.752195,9.61779 -0.241915,0.0424 -1.752195,-9.61683 z"
         style="opacity:0.3;fill:#8a8a8d;fill-opacity:1;fill-rule:nonzero;stroke:none;stroke-width:0.96380341"
         id="path1614"
         inkscape:connector-curvature="0" />
      <path
         d="m 29.148122,196.1593 0.150353,0.19276 -11.547328,9.06361 -0.151317,-0.19469 z"
         style="opacity:0.3;fill:#8a8a8d;fill-opacity:1;fill-rule:nonzero;stroke:none;stroke-width:0.96380341"
         id="path1618"
         inkscape:connector-curvature="0" />
      <path
         d="m 35.882506,195.62565 9.612011,7.08106 -0.145534,0.19758 -9.612011,-7.08106 z"
         style="opacity:0.3;fill:#8a8a8d;fill-opacity:1;fill-rule:nonzero;stroke:none;stroke-width:0.96380341"
         id="path1622"
         inkscape:connector-curvature="0" />
      <path
         d="m 36.376648,193.17749 0.0019,0.24577 9.287209,-0.0655 -0.0019,-0.2448 z"
         style="opacity:0.3;fill:#8a8a8d;fill-opacity:1;fill-rule:nonzero;stroke:none;stroke-width:0.96380341"
         id="path1626"
         inkscape:connector-curvature="0" />
      <path
         d="m 30.062964,184.48919 0.718997,5.50428 0.242879,-0.0308 -0.718034,-5.50428 z"
         style="opacity:0.3;fill:#8a8a8d;fill-opacity:1;fill-rule:nonzero;stroke:none;stroke-width:0.96380341"
         id="path1630"
         inkscape:connector-curvature="0" />
      <path
         d="m 31.710104,179.15338 -1.419682,4.13279 -0.232277,-0.079 1.419682,-4.13376 z"
         style="opacity:0.3;fill:#8a8a8d;fill-opacity:1;fill-rule:nonzero;stroke:none;stroke-width:0.96380341"
         id="path1634"
         inkscape:connector-curvature="0" />
      <path
         d="m 50.005406,176.79187 -0.06554,0.2371 -9.704536,-2.67938 0.06554,-0.23709 z"
         style="opacity:0.3;fill:#8a8a8d;fill-opacity:1;fill-rule:nonzero;stroke:none;stroke-width:0.96380341"
         id="path1638"
         inkscape:connector-curvature="0" />
      <path
         d="m 53.047458,178.41453 6.234844,6.01317 -0.171557,0.17734 -6.232916,-6.01221 z"
         style="opacity:0.3;fill:#8a8a8d;fill-opacity:1;fill-rule:nonzero;stroke:none;stroke-width:0.96380341"
         id="path1642"
         inkscape:connector-curvature="0" />
      <path
         d="m 59.738471,185.02757 2.462518,3.89569 -0.208182,0.13108 -2.462518,-3.89569 z"
         style="opacity:0.3;fill:#8a8a8d;fill-opacity:1;fill-rule:nonzero;stroke:none;stroke-width:0.96380341"
         id="path1646"
         inkscape:connector-curvature="0" />
      <path
         d="m 60.763476,197.6266 0.167702,0.17927 -4.2976,4.04315 -0.167701,-0.1783 z"
         style="opacity:0.3;fill:#8a8a8d;fill-opacity:1;fill-rule:nonzero;stroke:none;stroke-width:0.96380341"
         id="path1650"
         inkscape:connector-curvature="0" />
      <path
         d="m 63.804564,170.07638 0.117584,0.21493 -11.067354,6.06425 -0.116621,-0.21493 z"
         style="opacity:0.3;fill:#8a8a8d;fill-opacity:1;fill-rule:nonzero;stroke:none;stroke-width:0.96380341"
         id="path1654"
         inkscape:connector-curvature="0" />
      <path
         d="m 69.789783,172.1978 1.664488,7.11576 -0.239023,0.0569 -1.664488,-7.11479 z"
         style="opacity:0.3;fill:#8a8a8d;fill-opacity:1;fill-rule:nonzero;stroke:none;stroke-width:0.96380341"
         id="path1658"
         inkscape:connector-curvature="0" />
      <path
         d="m 73.653382,156.95863 -3.620046,6.98179 -0.216855,-0.11373 3.619081,-6.98082 z"
         style="opacity:0.3;fill:#8a8a8d;fill-opacity:1;fill-rule:nonzero;stroke:none;stroke-width:0.96380341"
         id="path1662"
         inkscape:connector-curvature="0" />
      <path
         d="m 73.005899,150.30617 0.361426,5.85125 0.243843,-0.0145 -0.360463,-5.85221 z"
         style="opacity:0.3;fill:#8a8a8d;fill-opacity:1;fill-rule:nonzero;stroke:none;stroke-width:0.96380341"
         id="path1666"
         inkscape:connector-curvature="0" />
      <path
         d="m 63.580576,166.78306 -0.07807,0.23131 -13.187722,-4.4306 0.07807,-0.23421 z"
         style="opacity:0.3;fill:#8a8a8d;fill-opacity:1;fill-rule:nonzero;stroke:none;stroke-width:0.96380341"
         id="path1670"
         inkscape:connector-curvature="0" />
      <path
         d="m 55.152887,149.03366 0.191797,7.04733 0.24577,-0.007 -0.192761,-7.04733 z"
         style="opacity:0.3;fill:#8a8a8d;fill-opacity:1;fill-rule:nonzero;stroke:none;stroke-width:0.96380341"
         id="path1674"
         inkscape:connector-curvature="0" />
      <path
         d="m 62.410616,149.17476 -0.03855,0.24191 -6.354356,-1.02452 0.03855,-0.24095 z"
         style="opacity:0.3;fill:#8a8a8d;fill-opacity:1;fill-rule:nonzero;stroke:none;stroke-width:0.96380341"
         id="path1678"
         inkscape:connector-curvature="0" />
      <path
         d="m 52.393229,141.19138 2.886591,6.69554 -0.22553,0.0974 -2.886591,-6.69555 z"
         style="opacity:0.3;fill:#8a8a8d;fill-opacity:1;fill-rule:nonzero;stroke:none;stroke-width:0.96380341"
         id="path1682"
         inkscape:connector-curvature="0" />
      <path
         d="m 55.010822,148.19312 -0.04048,0.24191 -6.239663,-1.04187 0.03952,-0.24191 z"
         style="opacity:0.3;fill:#8a8a8d;fill-opacity:1;fill-rule:nonzero;stroke:none;stroke-width:0.96380341"
         id="path1686"
         inkscape:connector-curvature="0" />
      <path
         d="m 48.906092,130.98865 -3.663417,11.31505 -0.23324,-0.0742 3.663417,-11.31602 z"
         style="opacity:0.3;fill:#8a8a8d;fill-opacity:1;fill-rule:nonzero;stroke:none;stroke-width:0.96380341"
         id="path1690"
         inkscape:connector-curvature="0" />
      <path
         d="m 62.455818,134.16246 -0.127222,0.21011 -8.500746,-5.14382 0.12915,-0.21011 z"
         style="opacity:0.3;fill:#8a8a8d;fill-opacity:1;fill-rule:nonzero;stroke:none;stroke-width:0.96380341"
         id="path1694"
         inkscape:connector-curvature="0" />
      <path
         d="m 40.663838,143.90497 -0.138788,0.2024 -5.67391,-3.87642 0.13686,-0.20143 z"
         style="opacity:0.3;fill:#8a8a8d;fill-opacity:1;fill-rule:nonzero;stroke:none;stroke-width:0.96380341"
         id="path1698"
         inkscape:connector-curvature="0" />
      <path
         d="m 28.322624,139.26291 5.599698,0.67081 0.02795,-0.24385 -5.598734,-0.6708 z"
         style="opacity:0.3;fill:#8a8a8d;fill-opacity:1;fill-rule:nonzero;stroke:none;stroke-width:0.96380341"
         id="path1702"
         inkscape:connector-curvature="0" />
      <path
         d="m 32.048014,125.6247 0.194688,0.14746 -6.483505,8.52773 -0.195652,-0.14842 z"
         style="opacity:0.3;fill:#8a8a8d;fill-opacity:1;fill-rule:nonzero;stroke:none;stroke-width:0.96380341"
         id="path1706"
         inkscape:connector-curvature="0" />
      <path
         d="m 17.931667,129.91854 2.086634,3.92172 -0.215892,0.11565 -2.086634,-3.92171 z"
         style="opacity:0.3;fill:#8a8a8d;fill-opacity:1;fill-rule:nonzero;stroke:none;stroke-width:0.96380341"
         id="path1710"
         inkscape:connector-curvature="0" />
      <path
         d="m 18.817306,121.08895 -1.044763,7.76054 -0.242878,-0.0328 1.044763,-7.76055 z"
         style="opacity:0.3;fill:#8a8a8d;fill-opacity:1;fill-rule:nonzero;stroke:none;stroke-width:0.96380341"
         id="path1714"
         inkscape:connector-curvature="0" />
      <path
         d="m 16.931143,138.52964 -0.02506,0.24384 -9.6255043,-0.99657 0.026987,-0.24288 z"
         style="opacity:0.3;fill:#8a8a8d;fill-opacity:1;fill-rule:nonzero;stroke:none;stroke-width:0.96380341"
         id="path1718"
         inkscape:connector-curvature="0" />
      <path
         d="m 19.88655,144.06217 -1.91315,3.76944 -0.219747,-0.11084 1.912186,-3.76847 z"
         style="opacity:0.3;fill:#8a8a8d;fill-opacity:1;fill-rule:nonzero;stroke:none;stroke-width:0.96380341"
         id="path1722"
         inkscape:connector-curvature="0" />
      <path
         d="m 17.082653,158.66224 0.24577,0.006 0.243842,-9.56864 -0.244806,-0.006 z"
         style="opacity:0.3;fill:#8a8a8d;fill-opacity:1;fill-rule:nonzero;stroke:none;stroke-width:0.96380341"
         id="path1726"
         inkscape:connector-curvature="0" />
      <path
         d="m 31.805135,161.18471 0.790319,4.44024 -0.240951,0.0434 -0.790319,-4.4412 z"
         style="opacity:0.3;fill:#8a8a8d;fill-opacity:1;fill-rule:nonzero;stroke:none;stroke-width:0.96380341"
         id="path1730"
         inkscape:connector-curvature="0" />
      <path
         d="m 30.782058,152.51607 0.916577,7.58031 -0.243842,0.0299 -0.916577,-7.58128 z"
         style="opacity:0.3;fill:#8a8a8d;fill-opacity:1;fill-rule:nonzero;stroke:none;stroke-width:0.96380341"
         id="path1734"
         inkscape:connector-curvature="0" />
      <path
         d="m 24.741324,161.25815 0.02024,0.24481 6.063287,-0.50986 -0.02024,-0.24577 z"
         style="opacity:0.3;fill:#8a8a8d;fill-opacity:1;fill-rule:nonzero;stroke:none;stroke-width:0.96380341"
         id="path1738"
         inkscape:connector-curvature="0" />
      <path
         d="m 16.19605,158.4825 -0.107946,0.22071 -11.6282879,-5.7221 0.1089098,-0.22071 z"
         style="opacity:0.3;fill:#8a8a8d;fill-opacity:1;fill-rule:nonzero;stroke:none;stroke-width:0.96380341"
         id="path1742"
         inkscape:connector-curvature="0" />
      <path
         d="m 16.09061,159.59029 0.08963,0.22842 -11.3121607,4.46434 -0.08867,-0.22842 z"
         style="opacity:0.3;fill:#8a8a8d;fill-opacity:1;fill-rule:nonzero;stroke:none;stroke-width:0.96380341"
         id="path1746"
         inkscape:connector-curvature="0" />
      <path
         d="m -2.0371823,133.92334 2.22734963,13.5212 -0.24191465,0.0386 -2.22734968,-13.52023 z"
         style="opacity:0.3;fill:#8a8a8d;fill-opacity:1;fill-rule:nonzero;stroke:none;stroke-width:0.96380341"
         id="path1750"
         inkscape:connector-curvature="0" />
      <path
         d="m -7.7682464,142.55709 5.8078792,5.90233 -0.1754122,0.17252 -5.8078792,-5.90137 z"
         style="opacity:0.3;fill:#8a8a8d;fill-opacity:1;fill-rule:nonzero;stroke:none;stroke-width:0.96380341"
         id="path1754"
         inkscape:connector-curvature="0" />
      <path
         d="m -14.930848,151.26621 11.8412884,0.1918 0.00386,-0.24674 -11.8403244,-0.19083 z"
         style="opacity:0.3;fill:#8a8a8d;fill-opacity:1;fill-rule:nonzero;stroke:none;stroke-width:0.96380341"
         id="path1758"
         inkscape:connector-curvature="0" />
      <path
         d="m -10.376298,166.87713 0.03373,0.24384 4.6387858,-0.64575 -0.034697,-0.24287 z"
         style="opacity:0.3;fill:#8a8a8d;fill-opacity:1;fill-rule:nonzero;stroke:none;stroke-width:0.96380341"
         id="path1762"
         inkscape:connector-curvature="0" />
      <path
         d="m -11.294032,167.38071 0.143607,0.19951 -6.225206,4.45277 -0.143607,-0.19951 z"
         style="opacity:0.3;fill:#8a8a8d;fill-opacity:1;fill-rule:nonzero;stroke:none;stroke-width:0.96380341"
         id="path1766"
         inkscape:connector-curvature="0" />
      <path
         d="m -11.571607,158.28202 0.43082,8.23859 0.244806,-0.0125 -0.43082,-8.24052 z"
         style="opacity:0.3;fill:#8a8a8d;fill-opacity:1;fill-rule:nonzero;stroke:none;stroke-width:0.96380341"
         id="path1770"
         inkscape:connector-curvature="0" />
      <path
         d="m -1.7773409,171.52584 -1.9141135,11.28421 -0.2419147,-0.0414 1.9141135,-11.28421 z"
         style="opacity:0.3;fill:#8a8a8d;fill-opacity:1;fill-rule:nonzero;stroke:none;stroke-width:0.96380341"
         id="path1774"
         inkscape:connector-curvature="0" />
      <path
         d="m 2.6162532,170.83026 8.2800348,13.71492 -0.211073,0.12626 -8.2790709,-13.71299 z"
         style="opacity:0.3;fill:#8a8a8d;fill-opacity:1;fill-rule:nonzero;stroke:none;stroke-width:0.96380341"
         id="path1778"
         inkscape:connector-curvature="0" />
      <path
         d="m 15.482643,176.17262 2.687084,13.86046 -0.239987,0.0472 -2.688048,-13.86045 z"
         style="opacity:0.3;fill:#8a8a8d;fill-opacity:1;fill-rule:nonzero;stroke:none;stroke-width:0.96380341"
         id="path1782"
         inkscape:connector-curvature="0" />
      <path
         d="m 15.983339,193.46268 0.05686,0.23902 -10.1594511,2.41819 -0.056864,-0.23903 z"
         style="opacity:0.3;fill:#8a8a8d;fill-opacity:1;fill-rule:nonzero;stroke:none;stroke-width:0.96380341"
         id="path1786"
         inkscape:connector-curvature="0" />
      <path
         d="m 18.874749,172.51036 7.574531,0.19662 0.0058,-0.24577 -7.573567,-0.19566 z"
         style="opacity:0.3;fill:#8a8a8d;fill-opacity:1;fill-rule:nonzero;stroke:none;stroke-width:0.96380341"
         id="path1790"
         inkscape:connector-curvature="0" />
    </g>
    <rect
       style="opacity:1;fill:#00833e;fill-opacity:1;stroke:#000000;stroke-width:0.0436;stroke-linecap:round;stroke-linejoin:bevel;stroke-miterlimit:4;stroke-dasharray:none;stroke-dashoffset:0;stroke-opacity:1"
       id="rect3586"
       width="240.3"
       height="6.403"
       x="-0.05237"
       y="116.8" />
    <g
       id="g6427"
       transform="translate(207.9,-142.8)">
      <g
         transform="matrix(0.3528,0,0,-0.3528,-63.72,518.3)"
         id="g932">
        <g
           clip-path="url(#clipPath938)"
           id="g934">
          <g
             transform="translate(243.6,662.3)"
             id="g940">
            <path
               inkscape:connector-curvature="0"
               id="path942"
               style="fill:#d0202e;fill-opacity:1;fill-rule:nonzero;stroke:none"
               d="M 0,0 C 6.156,10.48 4.684,22.77 -3.287,27.45 C -4.068,27.91 -4.882,28.28 -5.72,28.56 C -3.625,28.43 -1.606,27.85 0.227,26.77 C 8.197,22.09 8.872,9.857 2.716,-0.621 C -2.836,-10.07 -11.9,-14.88 -19.63,-12.28 C -12.62,-12.71 -4.74,-8.068 0,0" />
          </g>
          <g
             transform="translate(240.5,663.9)"
             id="g944">
            <path
               inkscape:connector-curvature="0"
               id="path946"
               style="fill:#27aae1;fill-opacity:1;fill-rule:nonzero;stroke:none"
               d="M 0,0 C 6.214,7.727 6.486,17.82 0.608,22.55 C 0.032,23.01 -0.582,23.41 -1.225,23.73 C 0.451,23.38 2.011,22.67 3.364,21.58 C 9.241,16.86 8.969,6.762 2.755,-0.965 C -2.85,-7.935 -11.38,-10.6 -17.3,-7.579 C -11.7,-8.759 -4.784,-5.95 0,0" />
          </g>
          <g
             transform="translate(221.4,680.6)"
             id="g948">
            <path
               inkscape:connector-curvature="0"
               id="path950"
               style="fill:#d7df23;fill-opacity:1;fill-rule:nonzero;stroke:none"
               d="M 0,0 C -5.509,-8.553 -4.417,-19.64 2.438,-24.77 C 3.109,-25.27 3.81,-25.69 4.534,-26.04 C 2.716,-25.67 0.971,-24.92 -0.605,-23.74 C -7.46,-18.61 -8.551,-7.526 -3.043,1.028 C 1.927,8.744 10.57,11.76 17.25,8.514 C 11.16,9.747 4.241,6.586 0,0" />
          </g>
          <g
             transform="translate(219.3,681.5)"
             id="g952">
            <path
               inkscape:connector-curvature="0"
               id="path954"
               style="fill:#ec008c;fill-opacity:1;fill-rule:nonzero;stroke:none"
               d="M 0,0 C -6.627,-10.29 -5.313,-23.63 2.933,-29.79 C 3.739,-30.39 4.583,-30.9 5.454,-31.33 C 3.267,-30.88 1.168,-29.97 -0.728,-28.55 C -8.973,-22.39 -9.489,-9.109 -2.863,1.18 C 3.115,10.46 14.4,13.41 20.74,10.24 C 13.42,11.72 5.101,7.922 0,0" />
          </g>
          <g
             transform="translate(225.2,678.9)"
             id="g956">
            <path
               inkscape:connector-curvature="0"
               id="path958"
               style="fill:#6ba2b8;fill-opacity:1;fill-rule:nonzero;stroke:none"
               d="M 0,0 C 4.335,6.249 11.54,8.756 16.09,5.599 C 16.53,5.29 16.94,4.938 17.3,4.549 C 16.72,5.677 15.9,6.64 14.85,7.366 C 10.3,10.52 3.101,8.016 -1.233,1.767 C -5.144,-3.87 -5.383,-10.63 -2.052,-14.21 C -4,-10.44 -3.337,-4.812 0,0" />
          </g>
          <g
             transform="translate(237.8,669.4)"
             id="g960">
            <path
               inkscape:connector-curvature="0"
               id="path962"
               style="fill:#55575a;fill-opacity:1;fill-rule:nonzero;stroke:none"
               d="M 0,0 C -4.335,-6.249 -11.54,-8.755 -16.09,-5.6 C -16.53,-5.29 -16.94,-4.938 -17.3,-4.548 C -16.72,-5.676 -15.9,-6.639 -14.85,-7.366 C -10.3,-10.52 -3.101,-8.015 1.234,-1.766 C 5.144,3.871 5.383,10.63 2.051,14.21 C 4,10.44 3.337,4.812 0,0" />
          </g>
          <g
             transform="translate(245.4,691.4)"
             id="g964">
            <path
               inkscape:connector-curvature="0"
               id="path966"
               style="fill:#6ba2b8;fill-opacity:1;fill-rule:nonzero;stroke:none"
               d="M 0,0 C -10.15,7.039 -26.21,1.449 -35.88,-12.49 C -39.52,-17.74 -41.73,-23.42 -42.53,-28.85 C -41.99,-22.9 -39.7,-16.54 -35.66,-10.72 C -26,3.218 -9.935,8.808 0.212,1.769 C 6.535,-2.617 9.069,-10.87 7.744,-19.84 C 8.505,-11.57 5.906,-4.096 0,0" />
          </g>
          <g
             transform="translate(245.9,694.6)"
             id="g968">
            <path
               inkscape:connector-curvature="0"
               id="path970"
               style="fill:#008445;fill-opacity:1;fill-rule:nonzero;stroke:none"
               d="M 0,0 C -10.21,7.084 -26.22,1.802 -36.28,-11.76 C -36.03,-11.37 -35.76,-10.97 -35.49,-10.58 C -25.49,3.839 -8.875,9.622 1.623,2.341 C 12.12,-4.942 12.53,-22.53 2.527,-36.95 C 2.256,-37.34 1.978,-37.73 1.696,-38.11 C 10.87,-23.92 10.21,-7.084 0,0" />
          </g>
          <g
             transform="translate(217.8,651.7)"
             id="g972">
            <path
               inkscape:connector-curvature="0"
               id="path974"
               style="fill:#f4bd47;fill-opacity:1;fill-rule:nonzero;stroke:none"
               d="M 0,0 C -10.21,7.085 -10.87,23.92 -1.695,38.11 C -1.977,37.73 -2.255,37.34 -2.527,36.95 C -12.53,22.53 -12.12,4.942 -1.623,-2.34 C 8.876,-9.622 25.49,-3.839 35.49,10.58 C 35.76,10.97 36.03,11.37 36.29,11.76 C 26.22,-1.802 10.21,-7.083 0,0" />
          </g>
          <g
             transform="translate(235.6,683.6)"
             id="g976">
            <path
               inkscape:connector-curvature="0"
               id="path978"
               style="fill:#1e376c;fill-opacity:1;fill-rule:nonzero;stroke:none"
               d="M 0,0 C 0.086,-0.048 0.165,-0.109 0.237,-0.179 C -0.933,0.095 -2.981,-1.707 -4.518,-4.433 C -6.168,-7.358 -6.606,-10.24 -5.495,-10.86 C -4.46,-11.45 -2.447,-9.866 -0.842,-7.281 C -0.959,-7.508 -1.081,-7.735 -1.209,-7.963 C -3.253,-11.59 -6.023,-13.89 -7.398,-13.12 C -8.773,-12.34 -8.231,-8.777 -6.189,-5.155 C -4.146,-1.533 -1.375,0.775 0,0" />
          </g>
          <g
             transform="translate(227.5,668.5)"
             id="g980">
            <path
               inkscape:connector-curvature="0"
               id="path982"
               style="fill:#2e5697;fill-opacity:1;fill-rule:nonzero;stroke:none"
               d="M 0,0 C 1.868,-1.053 5.163,1.252 7.36,5.149 C 9.407,8.778 9.779,12.51 8.31,13.85 C 8.468,13.8 8.62,13.74 8.764,13.66 C 11.08,12.35 10.75,7.383 8.024,2.558 C 5.303,-2.268 1.223,-5.121 -1.09,-3.818 C -3.402,-2.513 -3.072,2.455 -0.351,7.281 C -0.181,7.583 -0.005,7.876 0.174,8.161 C -1.625,4.53 -1.739,0.982 0,0" />
          </g>
          <g
             transform="translate(225.1,700.3)"
             id="g984">
            <path
               inkscape:connector-curvature="0"
               id="path986"
               style="fill:#005789;fill-opacity:1;fill-rule:nonzero;stroke:none"
               d="M 0,0 C -4.375,-3.096 -8.416,-7.33 -11.66,-12.51 C -21.53,-28.32 -20.21,-46.96 -8.696,-54.16 C -1.681,-58.54 7.497,-57.66 15.83,-52.73 C 6.865,-59.08 -3.506,-60.65 -11.24,-55.81 C -22.75,-48.62 -24.08,-29.97 -14.2,-14.17 C -10.34,-7.99 -5.345,-3.162 0,0" />
          </g>
        </g>
      </g>
      <g
         transform="matrix(0.3528,0,0,-0.3528,-63.72,518.3)"
         id="g988">
        <g
           clip-path="url(#clipPath994)"
           id="g990">
          <g
             transform="translate(249.7,654.9)"
             id="g996">
            <path
               inkscape:connector-curvature="0"
               id="path998"
               style="fill:#ac1f2d;fill-opacity:1;fill-rule:nonzero;stroke:none"
               d="M 0,0 C 11.08,15.97 10.63,35.46 -1.001,43.53 C -3.824,45.49 -7.047,46.59 -10.47,46.91 C -6.123,46.97 -2.009,45.86 1.491,43.43 C 13.12,35.36 13.57,15.87 2.493,-0.099 C -5.897,-12.19 -18.49,-18.8 -29.16,-17.8 C -19.07,-17.66 -7.744,-11.16 0,0" />
          </g>
          <g
             transform="translate(252.5,703.8)"
             id="g1000">
            <path
               inkscape:connector-curvature="0"
               id="path1002"
               style="fill:#ee2a7b;fill-opacity:1;fill-rule:nonzero;stroke:none"
               d="M 0,0 C -12.79,7.991 -32.05,0.234 -43.03,-17.33 C -46.39,-22.71 -48.58,-28.38 -49.64,-33.89 C -48.88,-27.44 -46.54,-20.64 -42.55,-14.26 C -31.58,3.301 -12.26,11.85 0.532,3.864 C 9.404,-1.681 12.77,-14.15 10.37,-26.64 C 11.7,-15.33 8.141,-5.088 0,0" />
          </g>
          <g
             transform="translate(211.7,644.1)"
             id="g1004">
            <path
               inkscape:connector-curvature="0"
               id="path1006"
               style="fill:#8dc63f;fill-opacity:1;fill-rule:nonzero;stroke:none"
               d="M 0,0 C 12.52,-7.821 31.23,-0.558 42.31,16.21 C 42.08,15.83 41.86,15.46 41.62,15.08 C 30.65,-2.481 10.56,-10.58 -2.229,-2.588 C -15.02,5.404 -15.66,26.46 -4.691,44.02 C -4.456,44.4 -4.215,44.77 -3.973,45.13 C -14.19,27.82 -12.52,7.82 0,0" />
          </g>
          <g
             transform="translate(248.4,703.2)"
             id="g1008">
            <path
               inkscape:connector-curvature="0"
               id="path1010"
               style="fill:#f78d2c;fill-opacity:1;fill-rule:nonzero;stroke:none"
               d="M 0,0 C 3.93,-2.456 6.76,-6.513 8.52,-10.91 C 6.746,-7.406 4.194,-4.478 0.879,-2.407 C -11.91,5.584 -31.17,-2.173 -42.15,-19.73 C -49.75,-31.9 -51.38,-45.58 -47.41,-55.49 C -52.48,-45.47 -51.07,-29.14 -42.94,-16.13 C -31.97,1.429 -12.79,7.992 0,0" />
          </g>
          <g
             transform="translate(252.8,656.3)"
             id="g1012">
            <path
               inkscape:connector-curvature="0"
               id="path1014"
               style="fill:#92278f;fill-opacity:1;fill-rule:nonzero;stroke:none"
               d="M 0,0 C 11.51,16.59 11.34,36.74 -0.166,45.7 C 0.152,45.51 0.466,45.31 0.775,45.09 C 13.17,36.5 14.8,16.75 3.492,-0.594 C -8.622,-19.18 -29.57,-25.12 -41.96,-16.52 C -42.27,-16.31 -42.57,-16.09 -42.87,-15.86 C -30.44,-23.49 -11.51,-16.59 0,0" />
          </g>
        </g>
      </g>
    </g>
    <rect
       style="opacity:1;fill:#00833e;fill-opacity:1;stroke:#000000;stroke-width:0.0434;stroke-linecap:round;stroke-linejoin:bevel;stroke-miterlimit:4;stroke-dasharray:none;stroke-dashoffset:0;stroke-opacity:1"
       id="rect3586-6"
       width="240.3"
       height="6.352"
       x="-0.0603"
       y="290.7" />
  </g>
</svg>
